CourierBadi-Italic.ufo
<glyph name="exclam" format="2">
  <advance width="1228"/>
  <unicode hex="0021"/>
  <outline>
    <contour>
      <point x="772.7589385190421" y="1269.0" type="line" smooth="yes"/>
      <point x="742.7589385190421" y="1269.0"/>
      <point x="726.1140338084151" y="1254.0"/>
      <point x="722.9425894836188" y="1219.0" type="curve" smooth="yes"/>
      <point x="646.2794141227341" y="512.0" type="line" smooth="yes"/>
      <point x="642.8132777207717" y="481.0"/>
      <point x="661.8157190487277" y="464.0"/>
      <point x="695.8157190487277" y="464.0" type="curve" smooth="yes"/>
      <point x="730.8157190487277" y="464.0"/>
      <point x="753.8132777207717" y="481.0"/>
      <point x="761.2794141227341" y="512.0" type="curve" smooth="yes"/>
      <point x="934.9425894836188" y="1219.0" type="line" smooth="yes"/>
      <point x="944.1140338084151" y="1254.0"/>
      <point x="932.7589385190421" y="1269.0"/>
      <point x="902.7589385190421" y="1269.0" type="curve" smooth="yes"/>
    </contour>
    <contour>
      <point x="525.4996850066523" y="207.0" type="curve" smooth="yes"/>
      <point x="498.34532997754866" y="53.0" type="line" smooth="yes"/>
      <point x="490.41061584566773" y="8.0"/>
      <point x="524.2367301929154" y="-10.0"/>
      <point x="612.2367301929154" y="-10.0" type="curve" smooth="yes"/>
      <point x="700.2367301929154" y="-10.0"/>
      <point x="740.4106158456677" y="8.0"/>
      <point x="748.3453299775487" y="53.0" type="curve" smooth="yes"/>
      <point x="775.4996850066523" y="207.0" type="line" smooth="yes"/>
      <point x="783.4343991385332" y="252.0"/>
      <point x="749.6082847912855" y="270.0"/>
      <point x="661.6082847912855" y="270.0" type="curve" smooth="yes"/>
      <point x="573.6082847912855" y="270.0"/>
      <point x="533.4343991385332" y="252.0"/>
    </contour>
  </outline>
</glyph>
<glyph name="numbersign" format="2">
  <advance width="1228"/>
  <unicode hex="0023"/>
  <outline>
    <contour>
      <point x="1139.179319676534" y="1209"/>
      <point x="1113.4160498694496" y="1199"/>
      <point x="1103.3605293131548" y="1176" type="curve" smooth="yes"/>
      <point x="609.9347141318809" y="45" type="line" smooth="yes"/>
      <point x="591.5289809421254" y="3"/>
      <point x="629.1208064244138" y="-22"/>
      <point x="668.1208064244138" y="-22" type="curve" smooth="yes"/>
      <point x="692.1208064244138" y="-22"/>
      <point x="717.8840762314984" y="-12"/>
      <point x="727.9395967877931" y="11" type="curve" smooth="yes"/>
      <point x="1221.365411969067" y="1142" type="line" smooth="yes"/>
      <point x="1239.7711451588225" y="1184"/>
      <point x="1202.179319676534" y="1209"/>
      <point x="1163.179319676534" y="1209" type="curve" smooth="yes"/>
    </contour>
    <contour>
      <point x="206.93164281722932" y="476" type="line" smooth="yes"/>
      <point x="161.93164281722932" y="476"/>
      <point x="140.40510320306004" y="456"/>
      <point x="131.23610020621985" y="404" type="curve" smooth="yes"/>
      <point x="122.06709720937967" y="352"/>
      <point x="136.54055759521037" y="332"/>
      <point x="181.54055759521037" y="332" type="curve" smooth="yes"/>
      <point x="1093.5405575952104" y="332" type="line" smooth="yes"/>
      <point x="1138.5405575952104" y="332"/>
      <point x="1160.0670972093797" y="352"/>
      <point x="1169.2361002062198" y="404" type="curve" smooth="yes"/>
      <point x="1178.40510320306" y="456"/>
      <point x="1163.9316428172294" y="476"/>
      <point x="1118.9316428172294" y="476" type="curve" smooth="yes"/>
    </contour>
    <contour>
      <point x="745.1793196765342" y="1209"/>
      <point x="719.4160498694495" y="1199"/>
      <point x="709.3605293131548" y="1176" type="curve" smooth="yes"/>
      <point x="215.93471413188092" y="45" type="line" smooth="yes"/>
      <point x="197.5289809421254" y="3"/>
      <point x="235.12080642441376" y="-22"/>
      <point x="274.1208064244138" y="-22" type="curve" smooth="yes"/>
      <point x="298.1208064244138" y="-22"/>
      <point x="323.8840762314984" y="-12"/>
      <point x="333.9395967877931" y="11" type="curve" smooth="yes"/>
      <point x="827.365411969067" y="1142" type="line" smooth="yes"/>
      <point x="845.7711451588225" y="1184"/>
      <point x="808.1793196765342" y="1209"/>
      <point x="769.1793196765342" y="1209" type="curve" smooth="yes"/>
    </contour>
    <contour>
      <point x="345.5228383128222" y="865" type="line" smooth="yes"/>
      <point x="300.5228383128222" y="865"/>
      <point x="278.99629869865294" y="845"/>
      <point x="269.8272957018127" y="793" type="curve" smooth="yes"/>
      <point x="260.65829270497255" y="741"/>
      <point x="275.1317530908033" y="721"/>
      <point x="320.1317530908033" y="721" type="curve" smooth="yes"/>
      <point x="1232.1317530908032" y="721" type="line" smooth="yes"/>
      <point x="1277.1317530908032" y="721"/>
      <point x="1298.6582927049726" y="741"/>
      <point x="1307.8272957018128" y="793" type="curve" smooth="yes"/>
      <point x="1316.996298698653" y="845"/>
      <point x="1302.5228383128222" y="865"/>
      <point x="1257.5228383128222" y="865" type="curve" smooth="yes"/>
    </contour>
  </outline>
</glyph>
<glyph name="dollar" format="2">
  <advance width="1228"/>
  <unicode hex="0024"/>
  <outline>
    <contour>
      <point x="545.6625453741892" y="1121"/>
      <point x="363.7955584383835" y="1014"/>
      <point x="329.05914323881586" y="817" type="curve" smooth="yes"/>
      <point x="307.3709246116747" y="694"/>
      <point x="359.90967086562443" y="629"/>
      <point x="443.38557257941125" y="592" type="curve" smooth="yes"/>
      <point x="574.9822807176118" y="533"/>
      <point x="783.7455505246965" y="543"/>
      <point x="893.1634903542325" y="500" type="curve" smooth="yes"/>
      <point x="946.4606237593547" y="479"/>
      <point x="976.8181603766839" y="447"/>
      <point x="966.4148685148843" y="388" type="curve" smooth="yes"/>
      <point x="948.9584974247464" y="289"/>
      <point x="852.7919357558623" y="220"/>
      <point x="675.7919357558623" y="220" type="curve" smooth="yes"/>
      <point x="544.7919357558623" y="220"/>
      <point x="423.13970706136706" y="256"/>
      <point x="328.8956528845834" y="317" type="curve" smooth="yes"/>
      <point x="302.06953853733575" y="335"/>
      <point x="271.5405575952104" y="332"/>
      <point x="236.54788157907865" y="281" type="curve" smooth="yes"/>
      <point x="203.90785952436386" y="232"/>
      <point x="209.265396141693" y="200"/>
      <point x="243.56252954681523" y="179" type="curve" smooth="yes"/>
      <point x="356.0433139165142" y="108"/>
      <point x="498.04819657242643" y="74"/>
      <point x="657.0481965724264" y="74" type="curve" smooth="yes"/>
      <point x="927.0481965724264" y="74"/>
      <point x="1087.4417231224015" y="201"/>
      <point x="1120.4148685148843" y="388" type="curve" smooth="yes"/>
      <point x="1145.276972794778" y="529"/>
      <point x="1082.6198614443706" y="599"/>
      <point x="988.4966136920007" y="638" type="curve" smooth="yes"/>
      <point x="850.3709246116747" y="694"/>
      <point x="645.6076548045901" y="684"/>
      <point x="543.8370610136371" y="725" type="curve" smooth="yes"/>
      <point x="499.0109466663895" y="743"/>
      <point x="474.77177514551806" y="770"/>
      <point x="483.05914323881586" y="817" type="curve" smooth="yes"/>
      <point x="501.0444952710793" y="919"/>
      <point x="598.9188061907533" y="975"/>
      <point x="743.9188061907533" y="975" type="curve" smooth="yes"/>
      <point x="866.9188061907533" y="975"/>
      <point x="978.4526697887909" y="944"/>
      <point x="1071.7546858498254" y="889" type="curve" smooth="yes"/>
      <point x="1100.7571271777815" y="872"/>
      <point x="1131.4624351006153" y="876"/>
      <point x="1163.6314380974554" y="928" type="curve" smooth="yes"/>
      <point x="1195.4477871328788" y="978"/>
      <point x="1189.0902505155495" y="1010"/>
      <point x="1154.616790129719" y="1030" type="curve" smooth="yes"/>
      <point x="1044.7253899143523" y="1093"/>
      <point x="910.6625453741892" y="1121"/>
      <point x="765.6625453741892" y="1121" type="curve" smooth="yes"/>
    </contour>
    <contour>
      <point x="564.2727201255612" y="149" type="line"/>
      <point x="509.7876830866456" y="-160" type="line" smooth="yes"/>
      <point x="501.6766419740562" y="-206"/>
      <point x="519.3264293405954" y="-225"/>
      <point x="568.3264293405954" y="-225" type="curve" smooth="yes"/>
      <point x="617.3264293405954" y="-225"/>
      <point x="641.6766419740562" y="-206"/>
      <point x="649.7876830866456" y="-160" type="curve" smooth="yes"/>
      <point x="704.2727201255612" y="149" type="line"/>
    </contour>
    <contour>
      <point x="807.9736967603526" y="1412"/>
      <point x="783.6234841268918" y="1393"/>
      <point x="775.5124430143023" y="1347" type="curve" smooth="yes"/>
      <point x="723.3196567245967" y="1051" type="line"/>
      <point x="863.3196567245967" y="1051" type="line"/>
      <point x="915.5124430143023" y="1347" type="line" smooth="yes"/>
      <point x="923.6234841268918" y="1393"/>
      <point x="905.9736967603526" y="1412"/>
      <point x="856.9736967603526" y="1412" type="curve" smooth="yes"/>
    </contour>
  </outline>
</glyph>
<glyph name="percent" format="2">
  <advance width="1228"/>
  <unicode hex="0025"/>
  <outline>
    <contour>
      <point x="674.4343991385332" y="252.0" type="curve" smooth="yes"/>
      <point x="647.809025051555" y="101.0"/>
      <point x="749.1208064244138" y="-22.0"/>
      <point x="900.1208064244138" y="-22.0" type="curve" smooth="yes"/>
      <point x="1051.1208064244138" y="-22.0"/>
      <point x="1195.809025051555" y="101.0"/>
      <point x="1222.434399138533" y="252.0" type="curve" smooth="yes"/>
      <point x="1249.0597732255114" y="403.0"/>
      <point x="1147.7479918526526" y="526.0"/>
      <point x="996.7479918526526" y="526.0" type="curve" smooth="yes"/>
      <point x="845.7479918526526" y="526.0"/>
      <point x="701.0597732255114" y="403.0"/>
    </contour>
    <contour>
      <point x="214.86572696241475" y="935.0" type="curve" smooth="yes"/>
      <point x="188.24035287543654" y="784.0"/>
      <point x="289.5521342482954" y="661.0"/>
      <point x="440.5521342482954" y="661.0" type="curve" smooth="yes"/>
      <point x="591.5521342482954" y="661.0"/>
      <point x="736.2403528754365" y="784.0"/>
      <point x="762.8657269624148" y="935.0" type="curve" smooth="yes"/>
      <point x="789.4911010493929" y="1086.0"/>
      <point x="688.1793196765342" y="1209.0"/>
      <point x="537.1793196765342" y="1209.0" type="curve" smooth="yes"/>
      <point x="386.1793196765342" y="1209.0"/>
      <point x="241.49110104939297" y="1086.0"/>
    </contour>
    <contour>
      <point x="169.37887858223849" y="229.0" type="line" smooth="yes"/>
      <point x="130.91274218027607" y="198.0"/>
      <point x="127.44660577831365" y="167.0"/>
      <point x="153.6278154149343" y="134.0" type="curve" smooth="yes"/>
      <point x="178.80902505155495" y="101.0"/>
      <point x="209.28004410942958" y="98.0"/>
      <point x="247.74618051139197" y="129.0" type="curve" smooth="yes"/>
      <point x="1268.097574499418" y="959.0" type="line" smooth="yes"/>
      <point x="1306.5637109013803" y="990.0"/>
      <point x="1310.0298473033426" y="1021.0"/>
      <point x="1283.848637666722" y="1054.0" type="curve" smooth="yes"/>
      <point x="1258.6674280301015" y="1087.0"/>
      <point x="1228.196408972227" y="1090.0"/>
      <point x="1189.7302725702643" y="1059.0" type="curve" smooth="yes"/>
    </contour>
    <contour>
      <point x="1092.434399138533" y="252.0" type="curve" smooth="yes"/>
      <point x="1078.5045676625643" y="173.0"/>
      <point x="1002.0433139165142" y="108.0"/>
      <point x="923.0433139165142" y="108.0" type="curve" smooth="yes"/>
      <point x="844.0433139165142" y="108.0"/>
      <point x="790.5045676625645" y="173.0"/>
      <point x="804.4343991385332" y="252.0" type="curve" smooth="yes"/>
      <point x="818.3642306145019" y="331.0"/>
      <point x="894.8254843605521" y="396.0"/>
      <point x="973.8254843605521" y="396.0" type="curve" smooth="yes"/>
      <point x="1052.825484360552" y="396.0"/>
      <point x="1106.3642306145018" y="331.0"/>
    </contour>
    <contour>
      <point x="632.8657269624148" y="935.0" type="curve" smooth="yes"/>
      <point x="618.935895486446" y="856.0"/>
      <point x="542.4746417403958" y="791.0"/>
      <point x="463.4746417403958" y="791.0" type="curve" smooth="yes"/>
      <point x="384.4746417403958" y="791.0"/>
      <point x="330.93589548644604" y="856.0"/>
      <point x="344.8657269624148" y="935.0" type="curve" smooth="yes"/>
      <point x="358.7955584383835" y="1014.0"/>
      <point x="435.25681218443367" y="1079.0"/>
      <point x="514.2568121844337" y="1079.0" type="curve" smooth="yes"/>
      <point x="593.2568121844337" y="1079.0"/>
      <point x="646.7955584383835" y="1014.0"/>
    </contour>
  </outline>
</glyph>
<glyph name="ampersand" format="2">
  <advance width="1228"/>
  <unicode hex="0026"/>
  <outline>
    <contour>
      <point x="624.7589385190421" y="1269"/>
      <point x="460.7809104706469" y="1116"/>
      <point x="426.2208222517878" y="920" type="curve" smooth="yes"/>
      <point x="404.708930605355" y="798"/>
      <point x="434.3684832837186" y="711"/>
      <point x="496.38068992349906" y="626" type="curve" smooth="yes"/>
      <point x="954.7053079228339" y="4" type="line" smooth="yes"/>
      <point x="975.7681524629968" y="-24"/>
      <point x="1001.7681524629968" y="-24"/>
      <point x="1049.0" y="0" type="curve" smooth="yes"/>
      <point x="1101.7608284791286" y="27"/>
      <point x="1113.8743109196741" y="56"/>
      <point x="1088.8694282637618" y="90" type="curve" smooth="yes"/>
      <point x="640.2525595152171" y="699" type="line" smooth="yes"/>
      <point x="589.5954481648096" y="769"/>
      <point x="564.7040479494428" y="832"/>
      <point x="580.2208222517878" y="920" type="curve" smooth="yes"/>
      <point x="599.264136168302" y="1028"/>
      <point x="688.6625453741892" y="1121"/>
      <point x="814.6625453741892" y="1121" type="curve" smooth="yes"/>
      <point x="898.6625453741892" y="1121"/>
      <point x="971.0780438757691" y="1095"/>
      <point x="1031.1433297438882" y="1050" type="curve" smooth="yes"/>
      <point x="1056.7931171104274" y="1031"/>
      <point x="1087.7931171104274" y="1031"/>
      <point x="1123.6094661458505" y="1081" type="curve" smooth="yes"/>
      <point x="1159.6021421619823" y="1132"/>
      <point x="1155.5392976218193" y="1160"/>
      <point x="1123.4184911974057" y="1182" type="curve" smooth="yes"/>
      <point x="1046.9401481556627" y="1236"/>
      <point x="952.7589385190421" y="1269"/>
      <point x="841.7589385190421" y="1269" type="curve" smooth="yes"/>
    </contour>
    <contour>
      <point x="394.2043629427906" y="625"/>
      <point x="246.92676016131713" y="510"/>
      <point x="213.4246338267088" y="320" type="curve" smooth="yes"/>
      <point x="180.98046937635124" y="136"/>
      <point x="284.1208064244138" y="-22"/>
      <point x="512.1208064244138" y="-22" type="curve" smooth="yes"/>
      <point x="789.1208064244138" y="-22"/>
      <point x="1002.1397070613671" y="256"/>
      <point x="1157.2092455987029" y="591" type="curve" smooth="yes"/>
      <point x="1178.3202867112923" y="637"/>
      <point x="1175.0811151904209" y="664"/>
      <point x="1116.668058016797" y="673" type="curve" smooth="yes"/>
      <point x="1064.0786738624647" y="681"/>
      <point x="1039.668058016797" y="673"/>
      <point x="1018.733343884916" y="628" type="curve" smooth="yes"/>
      <point x="903.0646558814236" y="369"/>
      <point x="741.2171995692665" y="126"/>
      <point x="538.2171995692665" y="126" type="curve" smooth="yes"/>
      <point x="418.2171995692666" y="126"/>
      <point x="346.97070406452684" y="204"/>
      <point x="367.42463382670877" y="320" type="curve" smooth="yes"/>
      <point x="389.64183339597537" y="446"/>
      <point x="481.2190109105272" y="523"/>
      <point x="651.441093135706" y="615" type="curve"/>
      <point x="575.1317530908033" y="721" type="line"/>
    </contour>
  </outline>
</glyph>
<glyph name="quotesingle" format="2">
  <advance width="1228"/>
  <unicode hex="0027"/>
  <outline>
    <contour>
      <point x="755.7589385190421" y="1269" type="line" smooth="yes"/>
      <point x="725.7589385190421" y="1269"/>
      <point x="708.1140338084151" y="1254"/>
      <point x="705.9425894836188" y="1219" type="curve" smooth="yes"/>
      <point x="681.5954481648096" y="769" type="line" smooth="yes"/>
      <point x="679.6003308207218" y="735"/>
      <point x="701.0737912065524" y="715"/>
      <point x="740.0737912065524" y="715" type="curve" smooth="yes"/>
      <point x="780.0737912065524" y="715"/>
      <point x="807.6003308207218" y="735"/>
      <point x="817.5954481648096" y="769" type="curve" smooth="yes"/>
      <point x="951.9425894836188" y="1219" type="line" smooth="yes"/>
      <point x="962.1140338084151" y="1254"/>
      <point x="949.7589385190421" y="1269"/>
      <point x="919.7589385190421" y="1269" type="curve" smooth="yes"/>
    </contour>
  </outline>
</glyph>
<glyph name="parenleft" format="2">
  <advance width="1228"/>
  <unicode hex="0028"/>
  <outline>
    <contour>
      <point x="765.821783059205" y="1241"/>
      <point x="462.7473618659571" y="940"/>
      <point x="388.1610490262764" y="517" type="curve" smooth="yes"/>
      <point x="313.5747361865957" y="94"/>
      <point x="511.2056229161816" y="-203"/>
      <point x="711.5778075012473" y="-337" type="curve"/>
      <point x="737.5802488292034" y="-354"/>
      <point x="771.2831154240812" y="-333"/>
      <point x="794.5729248453351" y="-303" type="curve" smooth="yes"/>
      <point x="817.8627342665891" y="-273"/>
      <point x="831.7394865142192" y="-234"/>
      <point x="813.2080642441377" y="-220" type="curve" smooth="yes"/>
      <point x="638.1305717362382" y="-90"/>
      <point x="470.7437391834359" y="146"/>
      <point x="536.1610490262764" y="517" type="curve" smooth="yes"/>
      <point x="601.5783588691169" y="888"/>
      <point x="852.8968342391485" y="1128"/>
      <point x="1073.8193417312489" y="1258" type="curve" smooth="yes"/>
      <point x="1097.2879194611673" y="1272"/>
      <point x="1097.1646717087976" y="1311"/>
      <point x="1084.4544811300516" y="1341" type="curve" smooth="yes"/>
      <point x="1071.7442905513055" y="1371"/>
      <point x="1045.4471571461831" y="1392"/>
      <point x="1013.4495984741393" y="1375" type="curve" smooth="yes"/>
    </contour>
  </outline>
</glyph>
<glyph name="parenright" format="2">
  <advance width="1228"/>
  <unicode hex="0029"/>
  <outline>
    <contour>
      <point x="673.4471571461833" y="1392"/>
      <point x="639.7442905513055" y="1371"/>
      <point x="616.4544811300516" y="1341" type="curve" smooth="yes"/>
      <point x="593.1646717087976" y="1311"/>
      <point x="579.2879194611675" y="1272"/>
      <point x="597.8193417312489" y="1258" type="curve" smooth="yes"/>
      <point x="772.8968342391485" y="1128"/>
      <point x="939.5783588691169" y="888"/>
      <point x="874.1610490262764" y="517" type="curve" smooth="yes"/>
      <point x="808.7437391834359" y="146"/>
      <point x="558.1305717362382" y="-90"/>
      <point x="337.2080642441377" y="-220" type="curve" smooth="yes"/>
      <point x="313.7394865142192" y="-234"/>
      <point x="313.8627342665891" y="-273"/>
      <point x="326.57292484533514" y="-303" type="curve" smooth="yes"/>
      <point x="339.2831154240812" y="-333"/>
      <point x="365.5802488292034" y="-354"/>
      <point x="397.5778075012473" y="-337" type="curve" smooth="yes"/>
      <point x="645.2056229161816" y="-203"/>
      <point x="947.5747361865957" y="94"/>
      <point x="1022.1610490262764" y="517" type="curve" smooth="yes"/>
      <point x="1096.7473618659571" y="940"/>
      <point x="899.821783059205" y="1241"/>
      <point x="699.4495984741393" y="1375" type="curve" smooth="yes"/>
    </contour>
  </outline>
</glyph>
<glyph name="asterisk" format="2">
  <advance width="1228"/>
  <unicode hex="002A"/>
  <outline>
    <contour>
      <point x="1258.605213476634" y="701"/>
      <point x="1224.3758072675869" y="660"/>
      <point x="1164.0835565183768" y="647" type="curve" smooth="yes"/>
      <point x="658.6271854282388" y="548" type="line"/>
      <point x="647.6174201164145" y="616" type="line"/>
      <point x="1140.293432103775" y="824" type="line" smooth="yes"/>
      <point x="1198.5252796407783" y="848"/>
      <point x="1240.1750670073175" y="829"/>
      <point x="1249.8901402419756" y="765" type="curve" smooth="yes"/>
    </contour>
    <contour>
      <point x="279.49968500665227" y="207"/>
      <point x="283.7870530999501" y="254"/>
      <point x="331.54544025112256" y="298" type="curve" smooth="yes"/>
      <point x="742.5496929203392" y="678" type="line"/>
      <point x="793.7913057691668" y="634" type="line"/>
      <point x="465.2074342574422" y="194" type="line" smooth="yes"/>
      <point x="425.2147582413105" y="143"/>
      <point x="375.56985353068353" y="128"/>
      <point x="327.44660577831365" y="167" type="curve" smooth="yes"/>
    </contour>
    <contour>
      <point x="879.72050725844" y="1127"/>
      <point x="905.0200819915184" y="1089"/>
      <point x="888.616790129719" y="1030" type="curve" smooth="yes"/>
      <point x="743.5112616597372" y="536" type="line"/>
      <point x="672.5112616597372" y="536" type="line"/>
      <point x="702.616790129719" y="1030" type="line" smooth="yes"/>
      <point x="706.0200819915184" y="1089"/>
      <point x="745.72050725844" y="1127"/>
      <point x="812.72050725844" y="1127" type="curve" smooth="yes"/>
    </contour>
    <contour>
      <point x="279.17506700731747" y="829"/>
      <point x="328.5252796407783" y="848"/>
      <point x="378.2934321037751" y="824" type="curve" smooth="yes"/>
      <point x="796.6174201164145" y="616" type="line"/>
      <point x="762.6271854282388" y="548" type="line"/>
      <point x="291.08355651837684" y="647" type="line" smooth="yes"/>
      <point x="235.37580726758688" y="660"/>
      <point x="215.60521347663393" y="701"/>
      <point x="247.8901402419757" y="765" type="curve" smooth="yes"/>
    </contour>
    <contour>
      <point x="897.393526549975" y="127"/>
      <point x="852.2147582413105" y="143"/>
      <point x="831.2074342574422" y="194" type="curve" smooth="yes"/>
      <point x="656.7913057691668" y="634" type="line"/>
      <point x="723.5496929203392" y="678" type="line"/>
      <point x="1000.5454402511226" y="298" type="line" smooth="yes"/>
      <point x="1032.78705309995" y="254"/>
      <point x="1020.3233580259438" y="206"/>
      <point x="959.4466057783136" y="167" type="curve" smooth="yes"/>
    </contour>
  </outline>
</glyph>
<glyph name="plus" format="2">
  <advance width="1228"/>
  <unicode hex="002B"/>
  <outline>
    <contour>
      <point x="348.3178453833361" y="654.0" type="line" smooth="yes"/>
      <point x="303.3178453833361" y="654.0"/>
      <point x="281.7913057691668" y="634.0"/>
      <point x="272.62230277232663" y="582.0" type="curve" smooth="yes"/>
      <point x="263.45329977548647" y="530.0"/>
      <point x="277.92676016131713" y="510.0"/>
      <point x="322.92676016131713" y="510.0" type="curve" smooth="yes"/>
      <point x="631.9267601613171" y="510.0" type="line"/>
      <point x="577.4417231224014" y="201.0" type="line" smooth="yes"/>
      <point x="569.5070089905205" y="156.0"/>
      <point x="586.3331233377681" y="138.0"/>
      <point x="638.3331233377681" y="138.0" type="curve" smooth="yes"/>
      <point x="690.3331233377681" y="138.0"/>
      <point x="713.5070089905205" y="156.0"/>
      <point x="721.4417231224014" y="201.0" type="curve" smooth="yes"/>
      <point x="775.9267601613171" y="510.0" type="line"/>
      <point x="1084.9267601613171" y="510.0" type="line" smooth="yes"/>
      <point x="1129.9267601613171" y="510.0"/>
      <point x="1151.4532997754864" y="530.0"/>
      <point x="1160.6223027723265" y="582.0" type="curve" smooth="yes"/>
      <point x="1169.7913057691667" y="634.0"/>
      <point x="1155.3178453833361" y="654.0"/>
      <point x="1110.3178453833361" y="654.0" type="curve" smooth="yes"/>
      <point x="801.3178453833361" y="654.0" type="line"/>
      <point x="855.8028824222517" y="963.0" type="line" smooth="yes"/>
      <point x="863.7375965541327" y="1008.0"/>
      <point x="846.911482206885" y="1026.0"/>
      <point x="794.911482206885" y="1026.0" type="curve" smooth="yes"/>
      <point x="742.911482206885" y="1026.0"/>
      <point x="719.7375965541327" y="1008.0"/>
      <point x="711.8028824222517" y="963.0" type="curve" smooth="yes"/>
      <point x="657.3178453833361" y="654.0" type="line"/>
    </contour>
  </outline>
</glyph>
<glyph name="comma" format="2">
  <advance width="1228"/>
  <unicode hex="002C"/>
  <outline>
    <contour>
      <point x="571.8401323282887" y="294" type="line" smooth="yes"/>
      <point x="543.8401323282887" y="294"/>
      <point x="522.3715545983702" y="280"/>
      <point x="512.7870530999501" y="254" type="curve" smooth="yes"/>
      <point x="333.79744839847" y="-228" type="line" smooth="yes"/>
      <point x="318.39171520871446" y="-270"/>
      <point x="336.1598676717113" y="-294"/>
      <point x="392.1598676717113" y="-294" type="curve" smooth="yes"/>
      <point x="438.1598676717113" y="-294"/>
      <point x="468.45211842092135" y="-281"/>
      <point x="485.38927388075837" y="-253" type="curve" smooth="yes"/>
      <point x="782.7315325436554" y="231" type="line" smooth="yes"/>
      <point x="803.9029768684517" y="266"/>
      <point x="798.8401323282887" y="294"/>
      <point x="765.8401323282887" y="294" type="curve" smooth="yes"/>
    </contour>
  </outline>
</glyph>
<glyph name="period" format="2">
  <advance width="1228"/>
  <unicode hex="002E"/>
  <outline>
    <contour>
      <point x="571.8980942125395" y="300"/>
      <point x="528.7242085597871" y="282"/>
      <point x="520.7894944279062" y="237" type="curve" smooth="yes"/>
      <point x="488.34532997754866" y="53" type="line" smooth="yes"/>
      <point x="480.41061584566773" y="8"/>
      <point x="517.2367301929154" y="-10"/>
      <point x="612.2367301929154" y="-10" type="curve" smooth="yes"/>
      <point x="707.2367301929154" y="-10"/>
      <point x="750.4106158456677" y="8"/>
      <point x="758.3453299775487" y="53" type="curve" smooth="yes"/>
      <point x="790.7894944279062" y="237" type="line" smooth="yes"/>
      <point x="798.7242085597871" y="282"/>
      <point x="761.8980942125395" y="300"/>
      <point x="666.8980942125395" y="300" type="curve" smooth="yes"/>
    </contour>
  </outline>
</glyph>
<glyph name="slash" format="2">
  <advance width="1228"/>
  <unicode hex="002F"/>
  <outline>
    <contour>
      <point x="1112.4520398020954" y="1358.0" type="curve" smooth="yes"/>
      <point x="150.74681049808748" y="-285.0" type="line" smooth="yes"/>
      <point x="127.69373126974888" y="-325.0"/>
      <point x="164.40392184849492" y="-355.0"/>
      <point x="227.40392184849492" y="-355.0" type="curve" smooth="yes"/>
      <point x="259.4039218484949" y="-355.0"/>
      <point x="286.0488265591219" y="-340.0"/>
      <point x="298.75169315399967" y="-319.0" type="curve" smooth="yes"/>
      <point x="1260.4569224580077" y="1324.0" type="line" smooth="yes"/>
      <point x="1283.5100016863462" y="1364.0"/>
      <point x="1246.7998111076001" y="1394.0"/>
      <point x="1183.7998111076001" y="1394.0" type="curve" smooth="yes"/>
      <point x="1151.7998111076001" y="1394.0"/>
      <point x="1125.1549063969733" y="1379.0"/>
    </contour>
  </outline>
</glyph>
<glyph name="zero" format="2">
  <advance width="1228"/>
  <unicode hex="0030"/>
  <outline>
    <contour>
      <point x="567.1793196765342" y="1209"/>
      <point x="359.80288242225174" y="963"/>
      <point x="294.56189956011974" y="593" type="curve" smooth="yes"/>
      <point x="229.32091669798768" y="223"/>
      <point x="350.1208064244138" y="-22"/>
      <point x="610.1208064244138" y="-22" type="curve" smooth="yes"/>
      <point x="870.1208064244138" y="-22"/>
      <point x="1077.3209166979877" y="223"/>
      <point x="1142.5618995601196" y="593" type="curve" smooth="yes"/>
      <point x="1207.8028824222517" y="963"/>
      <point x="1087.179319676534" y="1209"/>
      <point x="827.1793196765342" y="1209" type="curve" smooth="yes"/>
    </contour>
    <contour>
      <point x="364.5381162672543" y="349" type="line"/>
      <point x="411.6156087751538" y="219" type="line"/>
      <point x="1064.1750670073175" y="829" type="line"/>
      <point x="1030.2134982679195" y="971" type="line"/>
    </contour>
    <contour>
      <point x="958.0829265316813" y="1061"/>
      <point x="1041.1073398112424" y="891"/>
      <point x="988.5618995601197" y="593" type="curve" smooth="yes"/>
      <point x="936.0164593089971" y="295"/>
      <point x="793.2171995692665" y="126"/>
      <point x="636.2171995692665" y="126" type="curve" smooth="yes"/>
      <point x="479.2171995692666" y="126"/>
      <point x="396.0164593089972" y="295"/>
      <point x="448.56189956011974" y="593" type="curve" smooth="yes"/>
      <point x="501.1073398112423" y="891"/>
      <point x="644.0829265316813" y="1061"/>
      <point x="801.0829265316813" y="1061" type="curve" smooth="yes"/>
    </contour>
  </outline>
</glyph>
<glyph name="one" format="2">
  <advance width="1228"/>
  <unicode hex="0031"/>
  <outline>
    <contour>
      <point x="421.6845173257941" y="968" type="line" smooth="yes"/>
      <point x="388.51063167304176" y="950"/>
      <point x="369.33918734824545" y="915"/>
      <point x="387.4044732163645" y="870" type="curve" smooth="yes"/>
      <point x="406.11710512306666" y="823"/>
      <point x="439.11710512306666" y="823"/>
      <point x="467.9383368144021" y="839" type="curve" smooth="yes"/>
      <point x="744.2690188242142" y="994" type="line"/>
      <point x="588.0433139165142" y="108" type="line"/>
      <point x="738.0433139165142" y="108" type="line"/>
      <point x="923.0103166796939" y="1157" type="line" smooth="yes"/>
      <point x="932.5319736379511" y="1211"/>
      <point x="883.8242243871612" y="1224"/>
      <point x="839.592376850158" y="1200" type="curve" smooth="yes"/>
    </contour>
    <contour>
      <point x="325.39108522201894" y="144" type="line" smooth="yes"/>
      <point x="280.39108522201894" y="144"/>
      <point x="258.86454560784966" y="124"/>
      <point x="249.69554261100947" y="72" type="curve" smooth="yes"/>
      <point x="240.5265396141693" y="20"/>
      <point x="255.0" y="0"/>
      <point x="300.0" y="0" type="curve" smooth="yes"/>
      <point x="974.0" y="0" type="line" smooth="yes"/>
      <point x="1019.0" y="0"/>
      <point x="1040.5265396141692" y="20"/>
      <point x="1049.6955426110094" y="72" type="curve" smooth="yes"/>
      <point x="1058.8645456078495" y="124"/>
      <point x="1044.391085222019" y="144"/>
      <point x="999.391085222019" y="144" type="curve" smooth="yes"/>
    </contour>
  </outline>
</glyph>
<glyph name="two" format="2">
  <advance width="1228"/>
  <unicode hex="0032"/>
  <outline>
    <contour>
      <point x="684.1793196765342" y="1209"/>
      <point x="547.5972595060701" y="1166"/>
      <point x="434.07804387576914" y="1095" type="curve" smooth="yes"/>
      <point x="398.02252331947443" y="1072"/>
      <point x="383.7327138982205" y="1042"/>
      <point x="403.6216727856311" y="996" type="curve" smooth="yes"/>
      <point x="424.51063167304176" y="950"/>
      <point x="457.8053237502079" y="946"/>
      <point x="490.5081903450856" y="967" type="curve" smooth="yes"/>
      <point x="583.911482206885" y="1026"/>
      <point x="689.0829265316813" y="1061"/>
      <point x="778.0829265316813" y="1061" type="curve" smooth="yes"/>
      <point x="926.0829265316813" y="1061"/>
      <point x="991.9767680750042" y="981"/>
      <point x="970.4648764285714" y="859" type="curve" smooth="yes"/>
      <point x="953.0085053384335" y="760"/>
      <point x="890.1366357467155" y="687"/>
      <point x="752.1537250424082" y="568" type="curve" smooth="yes"/>
      <point x="233.51189164643273" y="122" type="line" smooth="yes"/>
      <point x="221.57229485863962" y="111"/>
      <point x="213.57473618659571" y="94"/>
      <point x="208.99023468817563" y="68" type="curve" smooth="yes"/>
      <point x="200.17388565275238" y="18"/>
      <point x="215.0" y="0"/>
      <point x="260.0" y="0" type="curve" smooth="yes"/>
      <point x="433.0" y="0" type="line"/>
      <point x="456.98046937635127" y="136" type="line"/>
      <point x="853.1079697979378" y="477" type="line" smooth="yes"/>
      <point x="1005.2068042707467" y="608"/>
      <point x="1098.897464225844" y="714"/>
      <point x="1124.4648764285714" y="859" type="curve" smooth="yes"/>
      <point x="1163.4331391651422" y="1080"/>
      <point x="1036.179319676534" y="1209"/>
      <point x="803.1793196765342" y="1209" type="curve" smooth="yes"/>
    </contour>
    <contour>
      <point x="374.39108522201894" y="144" type="line"/>
      <point x="349.0" y="0" type="line"/>
      <point x="954.0" y="0" type="line" smooth="yes"/>
      <point x="999.0" y="0"/>
      <point x="1020.5265396141693" y="20"/>
      <point x="1029.6955426110094" y="72" type="curve" smooth="yes"/>
      <point x="1038.8645456078495" y="124"/>
      <point x="1024.391085222019" y="144"/>
      <point x="979.391085222019" y="144" type="curve" smooth="yes"/>
    </contour>
  </outline>
</glyph>
<glyph name="three" format="2">
  <advance width="1228"/>
  <unicode hex="0033"/>
  <outline>
    <contour>
      <point x="443.2519295285215" y="1113.0" type="curve" smooth="yes"/>
      <point x="406.7253899143522" y="1093.0"/>
      <point x="390.43558049309826" y="1063.0"/>
      <point x="407.7955584383835" y="1014.0" type="curve" smooth="yes"/>
      <point x="425.5081903450856" y="967.0"/>
      <point x="456.80288242225174" y="963.0"/>
      <point x="489.97676807500414" y="981.0" type="curve" smooth="yes"/>
      <point x="588.4984250332612" y="1035.0"/>
      <point x="681.0829265316813" y="1061.0"/>
      <point x="768.0829265316813" y="1061.0" type="curve" smooth="yes"/>
      <point x="913.0829265316813" y="1061.0"/>
      <point x="981.7400378820888" y="991.0"/>
      <point x="961.9914160427408" y="879.0" type="curve" smooth="yes"/>
      <point x="940.479524396308" y="757.0"/>
      <point x="849.8419436695493" y="691.0"/>
      <point x="696.8419436695493" y="691.0" type="curve" smooth="yes"/>
      <point x="641.8419436695493" y="691.0" type="line" smooth="yes"/>
      <point x="596.8419436695493" y="691.0"/>
      <point x="575.668058016797" y="673.0"/>
      <point x="566.8517089813737" y="623.0" type="curve" smooth="yes"/>
      <point x="558.0353599459504" y="573.0"/>
      <point x="572.8614742931981" y="555.0"/>
      <point x="617.8614742931981" y="555.0" type="curve" smooth="yes"/>
      <point x="690.8614742931981" y="555.0" type="line" smooth="yes"/>
      <point x="845.8614742931981" y="555.0"/>
      <point x="929.342258662897" y="484.0"/>
      <point x="904.8328083444204" y="345.0" type="curve" smooth="yes"/>
      <point x="881.557646890903" y="213.0"/>
      <point x="779.2171995692665" y="126.0"/>
      <point x="610.2171995692665" y="126.0" type="curve" smooth="yes"/>
      <point x="504.2171995692666" y="126.0"/>
      <point x="404.6229327590221" y="168.0"/>
      <point x="330.90785952436386" y="232.0" type="curve" smooth="yes"/>
      <point x="305.7870530999501" y="254.0"/>
      <point x="270.90541819640777" y="249.0"/>
      <point x="233.7943770838184" y="203.0" type="curve" smooth="yes"/>
      <point x="197.683335971229" y="157.0"/>
      <point x="201.39352654997506" y="127.0"/>
      <point x="229.33800599368035" y="104.0" type="curve" smooth="yes"/>
      <point x="319.937155459837" y="28.0"/>
      <point x="451.1208064244138" y="-22.0"/>
      <point x="584.1208064244138" y="-22.0" type="curve" smooth="yes"/>
      <point x="846.1208064244138" y="-22.0"/>
      <point x="1020.5698535306835" y="128.0"/>
      <point x="1058.8328083444203" y="345.0" type="curve" smooth="yes"/>
      <point x="1083.3422586628972" y="484.0"/>
      <point x="1028.6223027723265" y="582.0"/>
      <point x="919.2623248270414" y="631.0" type="curve"/>
      <point x="1020.7260199010477" y="679.0"/>
      <point x="1095.0085053384335" y="760.0"/>
      <point x="1115.9914160427406" y="879.0" type="curve" smooth="yes"/>
      <point x="1151.4331391651422" y="1080.0"/>
      <point x="1024.179319676534" y="1209.0"/>
      <point x="793.1793196765342" y="1209.0" type="curve" smooth="yes"/>
      <point x="679.1793196765342" y="1209.0"/>
      <point x="561.3605293131548" y="1176.0"/>
    </contour>
  </outline>
</glyph>
<glyph name="four" format="2">
  <advance width="1228"/>
  <unicode hex="0034"/>
  <outline>
    <contour>
      <point x="912.1793196765342" y="1209"/>
      <point x="877.6527800623649" y="1189"/>
      <point x="843.4233738533178" y="1148" type="curve" smooth="yes"/>
      <point x="231.93896680109762" y="425" type="line" smooth="yes"/>
      <point x="223.17569699401298" y="415"/>
      <point x="215.00181134126058" y="397"/>
      <point x="211.29894474638283" y="376" type="curve" smooth="yes"/>
      <point x="202.48259571095957" y="326"/>
      <point x="218.25074817395642" y="302"/>
      <point x="263.2507481739564" y="302" type="curve"/>
      <point x="1053.2507481739565" y="302" type="line"/>
      <point x="1098.2507481739565" y="302"/>
      <point x="1119.7772877881257" y="322"/>
      <point x="1128.9462907849659" y="374" type="curve" smooth="yes"/>
      <point x="1138.115293781806" y="426"/>
      <point x="1123.6418333959755" y="446"/>
      <point x="1078.6418333959755" y="446" type="curve"/>
      <point x="420.64183339597537" y="446" type="line"/>
      <point x="870.9163648627973" y="992" type="line"/>
      <point x="763.8206017046399" y="430" type="line"/>
      <point x="697.6979839389655" y="55" type="line" smooth="yes"/>
      <point x="689.5869428263762" y="9"/>
      <point x="704.2367301929154" y="-10"/>
      <point x="760.2367301929154" y="-10" type="curve" smooth="yes"/>
      <point x="762.2367301929154" y="-10" type="line" smooth="yes"/>
      <point x="818.2367301929154" y="-10"/>
      <point x="839.5869428263762" y="9"/>
      <point x="847.6979839389655" y="55" type="curve" smooth="yes"/>
      <point x="1037.425815181274" y="1131" type="line" smooth="yes"/>
      <point x="1045.7131832745717" y="1178"/>
      <point x="1026.179319676534" y="1209"/>
      <point x="964.1793196765342" y="1209" type="curve" smooth="yes"/>
    </contour>
  </outline>
</glyph>
<glyph name="five" format="2">
  <advance width="1228"/>
  <unicode hex="0035"/>
  <outline>
    <contour>
      <point x="560.3001261009479" y="1187" type="line" smooth="yes"/>
      <point x="504.3001261009479" y="1187"/>
      <point x="483.9499134674871" y="1168"/>
      <point x="473.8388723548977" y="1122" type="curve" smooth="yes"/>
      <point x="365.6753820006652" y="622" type="line" smooth="yes"/>
      <point x="355.56434088807583" y="576"/>
      <point x="373.214128254615" y="557"/>
      <point x="429.214128254615" y="557" type="curve" smooth="yes"/>
      <point x="452.214128254615" y="557"/>
      <point x="468.7431091967404" y="560"/>
      <point x="480.97739806169966" y="567" type="curve" smooth="yes"/>
      <point x="553.9121121935806" y="612"/>
      <point x="625.4966136920007" y="638"/>
      <point x="720.4966136920007" y="638" type="curve" smooth="yes"/>
      <point x="871.4966136920007" y="638"/>
      <point x="948.1586076983203" y="534"/>
      <point x="922.0622145534675" y="386" type="curve" smooth="yes"/>
      <point x="894.555205562947" y="230"/>
      <point x="775.2171995692665" y="126"/>
      <point x="610.2171995692665" y="126" type="curve" smooth="yes"/>
      <point x="507.2171995692666" y="126"/>
      <point x="409.2702787976052" y="166"/>
      <point x="335.8498976401131" y="226" type="curve" smooth="yes"/>
      <point x="310.7290912156993" y="248"/>
      <point x="275.84745631215696" y="243"/>
      <point x="238.7364151995676" y="197" type="curve" smooth="yes"/>
      <point x="202.6253740869782" y="151"/>
      <point x="208.1592376850158" y="120"/>
      <point x="236.1037171287211" y="97" type="curve"/>
      <point x="326.40817451771164" y="25"/>
      <point x="454.1208064244138" y="-22"/>
      <point x="584.1208064244138" y="-22" type="curve" smooth="yes"/>
      <point x="842.1208064244138" y="-22"/>
      <point x="1034.8017010676867" y="152"/>
      <point x="1076.0622145534676" y="386" type="curve" smooth="yes"/>
      <point x="1117.1464010585398" y="619"/>
      <point x="1003.5930068368534" y="786"/>
      <point x="759.5930068368534" y="786" type="curve" smooth="yes"/>
      <point x="680.5930068368534" y="786"/>
      <point x="605.0664672226842" y="766"/>
      <point x="534.7186959171795" y="730" type="curve"/>
      <point x="604.3196567245967" y="1051" type="line"/>
      <point x="694.3001261009479" y="1187" type="line"/>
    </contour>
    <contour>
      <point x="593.3001261009479" y="1187" type="line"/>
      <point x="567.909040878929" y="1043" type="line"/>
      <point x="1068.9090408789289" y="1043" type="line" smooth="yes"/>
      <point x="1113.9090408789289" y="1043"/>
      <point x="1135.4355804930983" y="1063"/>
      <point x="1144.6045834899385" y="1115" type="curve" smooth="yes"/>
      <point x="1153.7735864867786" y="1167"/>
      <point x="1139.3001261009479" y="1187"/>
      <point x="1094.3001261009479" y="1187" type="curve" smooth="yes"/>
    </contour>
  </outline>
</glyph>
<glyph name="six" format="2">
  <advance width="1228"/>
  <unicode hex="0036"/>
  <outline>
    <contour>
      <point x="293.27941412273407" y="512.0" type="curve" smooth="yes"/>
      <point x="267.8883289007151" y="368.0"/>
      <point x="274.66868800349243" y="259.0"/>
      <point x="309.50456766256445" y="173.0" type="curve" smooth="yes"/>
      <point x="362.582060170464" y="43.0"/>
      <point x="480.1208064244138" y="-22.0"/>
      <point x="622.1208064244138" y="-22.0" type="curve" smooth="yes"/>
      <point x="869.1208064244138" y="-22.0"/>
      <point x="1057.9804693763513" y="136.0"/>
      <point x="1096.243424190088" y="353.0" type="curve" smooth="yes"/>
      <point x="1136.4459757916181" y="581.0"/>
      <point x="997.8950228978879" y="731.0"/>
      <point x="776.8950228978879" y="731.0" type="curve" smooth="yes"/>
      <point x="662.8950228978879" y="731.0"/>
      <point x="548.0786738624647" y="681.0"/>
      <point x="461.8565916372859" y="589.0" type="curve"/>
      <point x="545.8175303899884" y="861.0"/>
      <point x="754.909040878929" y="1043.0"/>
      <point x="1125.2592535123897" y="1062.0" type="curve" smooth="yes"/>
      <point x="1151.4355804930983" y="1063.0"/>
      <point x="1169.9621201072675" y="1083.0"/>
      <point x="1175.365411969067" y="1142.0" type="curve" smooth="yes"/>
      <point x="1180.0633959080326" y="1197.0"/>
      <point x="1159.3556466572427" y="1210.0"/>
      <point x="1130.179319676534" y="1209.0" type="curve" smooth="yes"/>
      <point x="601.947472139531" y="1185.0"/>
      <point x="350.05670191085983" y="834.0"/>
    </contour>
    <contour>
      <point x="942.2434241900881" y="353.0" type="curve" smooth="yes"/>
      <point x="918.0866278330284" y="216.0"/>
      <point x="801.2171995692665" y="126.0"/>
      <point x="648.2171995692665" y="126.0" type="curve" smooth="yes"/>
      <point x="494.2171995692666" y="126.0"/>
      <point x="412.02622462082155" y="227.0"/>
      <point x="436.8883289007151" y="368.0" type="curve" smooth="yes"/>
      <point x="459.28185545069016" y="495.0"/>
      <point x="580.7986297530351" y="583.0"/>
      <point x="728.7986297530351" y="583.0" type="curve" smooth="yes"/>
      <point x="885.7986297530351" y="583.0"/>
      <point x="966.7528745085648" y="492.0"/>
    </contour>
  </outline>
</glyph>
<glyph name="seven" format="2">
  <advance width="1228"/>
  <unicode hex="0037"/>
  <outline>
    <contour>
      <point x="1062.3001261009479" y="1187" type="line"/>
      <point x="1038.3196567245966" y="1051" type="line"/>
      <point x="455.87431091967403" y="56" type="line" smooth="yes"/>
      <point x="432.644904710627" y="15"/>
      <point x="451.8840762314984" y="-12"/>
      <point x="495.4734603858307" y="-20" type="curve" smooth="yes"/>
      <point x="540.0628445401629" y="-28"/>
      <point x="579.7077492507899" y="-13"/>
      <point x="601.2318475370032" y="24" type="curve" smooth="yes"/>
      <point x="1213.2568121844338" y="1079" type="line" smooth="yes"/>
      <point x="1217.6674280301015" y="1087"/>
      <point x="1223.3123327407284" y="1102"/>
      <point x="1226.3098914127722" y="1119" type="curve" smooth="yes"/>
      <point x="1235.1262404481956" y="1169"/>
      <point x="1220.3001261009479" y="1187"/>
      <point x="1175.3001261009479" y="1187" type="curve" smooth="yes"/>
    </contour>
    <contour>
      <point x="471.3001261009479" y="1187" type="line" smooth="yes"/>
      <point x="426.3001261009479" y="1187"/>
      <point x="404.77358648677864" y="1167"/>
      <point x="395.6045834899385" y="1115" type="curve" smooth="yes"/>
      <point x="386.43558049309826" y="1063"/>
      <point x="400.909040878929" y="1043"/>
      <point x="445.909040878929" y="1043" type="curve" smooth="yes"/>
      <point x="1093.9090408789289" y="1043" type="line"/>
      <point x="1119.3001261009479" y="1187" type="line"/>
    </contour>
  </outline>
</glyph>
<glyph name="eight" format="2">
  <advance width="1228"/>
  <unicode hex="0038"/>
  <outline>
    <contour>
      <point x="401.99141604274075" y="879.0" type="curve" smooth="yes"/>
      <point x="382.0664672226842" y="766.0"/>
      <point x="436.9023468817562" y="680.0"/>
      <point x="521.0859978463329" y="630.0" type="curve"/>
      <point x="394.74066786878427" y="577.0"/>
      <point x="293.9316428172293" y="476.0"/>
      <point x="269.9511734408781" y="340.0" type="curve" smooth="yes"/>
      <point x="233.0988344728089" y="131.0"/>
      <point x="376.1208064244138" y="-22.0"/>
      <point x="610.1208064244138" y="-22.0" type="curve" smooth="yes"/>
      <point x="844.1208064244138" y="-22.0"/>
      <point x="1041.098834472809" y="131.0"/>
      <point x="1077.9511734408782" y="340.0" type="curve" smooth="yes"/>
      <point x="1101.9316428172294" y="476.0"/>
      <point x="1036.7406678687844" y="577.0"/>
      <point x="928.0859978463329" y="630.0" type="curve"/>
      <point x="1029.902346881756" y="680.0"/>
      <point x="1116.0664672226842" y="766.0"/>
      <point x="1135.9914160427406" y="879.0" type="curve" smooth="yes"/>
      <point x="1168.6119074738067" y="1064.0"/>
      <point x="1039.179319676534" y="1209.0"/>
      <point x="827.1793196765342" y="1209.0" type="curve" smooth="yes"/>
      <point x="615.1793196765342" y="1209.0"/>
      <point x="434.6119074738067" y="1064.0"/>
    </contour>
    <contour>
      <point x="924.1275004215865" y="341.0" type="curve" smooth="yes"/>
      <point x="901.91030085232" y="215.0"/>
      <point x="783.2171995692665" y="126.0"/>
      <point x="636.2171995692665" y="126.0" type="curve" smooth="yes"/>
      <point x="489.2171995692666" y="126.0"/>
      <point x="401.91030085231995" y="215.0"/>
      <point x="424.12750042158655" y="341.0" type="curve" smooth="yes"/>
      <point x="446.34469999085314" y="467.0"/>
      <point x="564.6851473124896" y="554.0"/>
      <point x="711.6851473124896" y="554.0" type="curve" smooth="yes"/>
      <point x="858.6851473124896" y="554.0"/>
      <point x="946.3446999908531" y="467.0"/>
    </contour>
    <contour>
      <point x="983.4624351006153" y="876.0" type="curve" smooth="yes"/>
      <point x="965.3007560876434" y="773.0"/>
      <point x="859.1945976309662" y="693.0"/>
      <point x="736.1945976309662" y="693.0" type="curve" smooth="yes"/>
      <point x="613.1945976309662" y="693.0"/>
      <point x="535.3007560876434" y="773.0"/>
      <point x="553.4624351006153" y="876.0" type="curve" smooth="yes"/>
      <point x="573.5637109013803" y="990.0"/>
      <point x="678.0829265316813" y="1061.0"/>
      <point x="801.0829265316813" y="1061.0" type="curve" smooth="yes"/>
      <point x="924.0829265316813" y="1061.0"/>
      <point x="1003.5637109013803" y="990.0"/>
    </contour>
  </outline>
</glyph>
<glyph name="nine" format="2">
  <advance width="1228"/>
  <unicode hex="0039"/>
  <outline>
    <contour>
      <point x="341.05670191085983" y="834.0" type="curve" smooth="yes"/>
      <point x="300.8541503093298" y="606.0"/>
      <point x="439.40510320306004" y="456.0"/>
      <point x="660.40510320306" y="456.0" type="curve" smooth="yes"/>
      <point x="774.40510320306" y="456.0"/>
      <point x="889.2214522384833" y="506.0"/>
      <point x="975.4435344636621" y="598.0" type="curve"/>
      <point x="891.4825957109596" y="326.0"/>
      <point x="682.391085222019" y="144.0"/>
      <point x="312.0408725885581" y="125.0" type="curve" smooth="yes"/>
      <point x="285.86454560784966" y="124.0"/>
      <point x="267.3380059936804" y="104.0"/>
      <point x="261.9347141318809" y="45.0" type="curve" smooth="yes"/>
      <point x="257.23673019291533" y="-10.0"/>
      <point x="277.9444794437053" y="-23.0"/>
      <point x="307.1208064244138" y="-22.0" type="curve" smooth="yes"/>
      <point x="835.3526539614169" y="2.0"/>
      <point x="1087.243424190088" y="353.0"/>
      <point x="1144.020711978214" y="675.0" type="curve" smooth="yes"/>
      <point x="1169.4117972002327" y="819.0"/>
      <point x="1162.6314380974554" y="928.0"/>
      <point x="1127.7955584383835" y="1014.0" type="curve" smooth="yes"/>
      <point x="1074.718065930484" y="1144.0"/>
      <point x="957.1793196765342" y="1209.0"/>
      <point x="815.1793196765342" y="1209.0" type="curve" smooth="yes"/>
      <point x="568.1793196765342" y="1209.0"/>
      <point x="379.3196567245967" y="1051.0"/>
    </contour>
    <contour>
      <point x="1000.4117972002329" y="819.0" type="curve" smooth="yes"/>
      <point x="978.0182706502578" y="692.0"/>
      <point x="856.5014963479128" y="604.0"/>
      <point x="708.5014963479128" y="604.0" type="curve" smooth="yes"/>
      <point x="551.5014963479128" y="604.0"/>
      <point x="470.5472515923832" y="695.0"/>
      <point x="495.05670191085983" y="834.0" type="curve" smooth="yes"/>
      <point x="519.2134982679195" y="971.0"/>
      <point x="636.0829265316813" y="1061.0"/>
      <point x="789.0829265316813" y="1061.0" type="curve" smooth="yes"/>
      <point x="943.0829265316813" y="1061.0"/>
      <point x="1025.2739014801264" y="960.0"/>
    </contour>
  </outline>
</glyph>
<glyph name="less" format="2">
  <advance width="1228"/>
  <unicode hex="003C"/>
  <outline>
    <contour>
      <point x="442.7986297530351" y="583.0" type="line"/>
      <point x="1171.5759175411608" y="905.0" type="line" smooth="yes"/>
      <point x="1217.10245715533" y="925.0"/>
      <point x="1232.2159395958756" y="954.0"/>
      <point x="1217.326980708465" y="1000.0" type="curve" smooth="yes"/>
      <point x="1203.0853678596375" y="1044.0"/>
      <point x="1176.553945589556" y="1058.0"/>
      <point x="1132.0274059753867" y="1038.0" type="curve" smooth="yes"/>
      <point x="287.8468263254615" y="657.0" type="line" smooth="yes"/>
      <point x="253.02559463412604" y="641.0"/>
      <point x="234.8517089813737" y="623.0"/>
      <point x="227.79862975303507" y="583.0" type="curve" smooth="yes"/>
      <point x="220.74555052469648" y="543.0"/>
      <point x="232.5716648719441" y="525.0"/>
      <point x="261.75043318060864" y="509.0" type="curve" smooth="yes"/>
      <point x="971.5698535306835" y="128.0" type="line" smooth="yes"/>
      <point x="1009.0433139165142" y="108.0"/>
      <point x="1040.5118916464328" y="122.0"/>
      <point x="1070.2702787976052" y="166.0" type="curve" smooth="yes"/>
      <point x="1101.3813199101946" y="212.0"/>
      <point x="1096.49480235074" y="241.0"/>
      <point x="1058.0213419649094" y="261.0" type="curve" smooth="yes"/>
    </contour>
  </outline>
</glyph>
<glyph name="greater" format="2">
  <advance width="1228"/>
  <unicode hex="003E"/>
  <outline>
    <contour>
      <point x="990.7986297530351" y="583.0" type="line"/>
      <point x="262.02134196490937" y="261.0" type="line" smooth="yes"/>
      <point x="216.49480235074006" y="241.0"/>
      <point x="201.38131991019458" y="212.0"/>
      <point x="216.2702787976052" y="166.0" type="curve" smooth="yes"/>
      <point x="230.51189164643273" y="122.0"/>
      <point x="257.0433139165142" y="108.0"/>
      <point x="301.56985353068353" y="128.0" type="curve" smooth="yes"/>
      <point x="1145.7504331806088" y="509.0" type="line" smooth="yes"/>
      <point x="1180.571664871944" y="525.0"/>
      <point x="1198.7455505246965" y="543.0"/>
      <point x="1205.7986297530351" y="583.0" type="curve" smooth="yes"/>
      <point x="1212.8517089813736" y="623.0"/>
      <point x="1201.025594634126" y="641.0"/>
      <point x="1171.8468263254615" y="657.0" type="curve" smooth="yes"/>
      <point x="462.0274059753866" y="1038.0" type="line" smooth="yes"/>
      <point x="424.55394558955595" y="1058.0"/>
      <point x="393.0853678596375" y="1044.0"/>
      <point x="363.326980708465" y="1000.0" type="curve" smooth="yes"/>
      <point x="332.2159395958756" y="954.0"/>
      <point x="337.1024571553301" y="925.0"/>
      <point x="375.57591754116083" y="905.0" type="curve" smooth="yes"/>
    </contour>
  </outline>
</glyph>
<glyph name="question" format="2">
  <advance width="1228"/>
  <unicode hex="003F"/>
  <outline>
    <contour>
      <point x="510.0054340237818" y="1191.0" type="curve" smooth="yes"/>
      <point x="469.4788944096125" y="1171.0"/>
      <point x="451.71806593048393" y="1144.0"/>
      <point x="466.3727359529353" y="1091.0" type="curve" smooth="yes"/>
      <point x="480.2037329560951" y="1039.0"/>
      <point x="511.0274059753866" y="1038.0"/>
      <point x="543.8486376667221" y="1054.0" type="curve" smooth="yes"/>
      <point x="635.6070248178945" y="1098.0"/>
      <point x="725.6625453741892" y="1121.0"/>
      <point x="816.6625453741892" y="1121.0" type="curve" smooth="yes"/>
      <point x="941.6625453741892" y="1121.0"/>
      <point x="997.6723106860136" y="1053.0"/>
      <point x="980.5685935572925" y="956.0" type="curve" smooth="yes"/>
      <point x="962.935895486446" y="856.0"/>
      <point x="888.1195464510228" y="806.0"/>
      <point x="725.187273647098" y="744.0" type="curve" smooth="yes"/>
      <point x="651.2501181872609" y="716.0" type="line" smooth="yes"/>
      <point x="626.6631753608847" y="707.0"/>
      <point x="615.8419436695493" y="691.0"/>
      <point x="612.2574421711292" y="665.0" type="curve" smooth="yes"/>
      <point x="582.5838715117246" y="440.0" type="line" smooth="yes"/>
      <point x="579.1177351097622" y="409.0"/>
      <point x="600.5911954955928" y="389.0"/>
      <point x="642.5911954955928" y="389.0" type="curve" smooth="yes"/>
      <point x="684.5911954955928" y="389.0"/>
      <point x="713.1177351097622" y="409.0"/>
      <point x="720.5838715117246" y="440.0" type="curve" smooth="yes"/>
      <point x="760.7357852128721" y="611.0" type="line"/>
      <point x="981.5472515923832" y="695.0"/>
      <point x="1103.5350449526027" y="780.0"/>
      <point x="1134.5685935572926" y="956.0" type="curve" smooth="yes"/>
      <point x="1167.1890849883584" y="1141.0"/>
      <point x="1061.758938519042" y="1269.0"/>
      <point x="841.7589385190421" y="1269.0" type="curve" smooth="yes"/>
      <point x="726.7589385190421" y="1269.0"/>
      <point x="617.3507640013304" y="1244.0"/>
    </contour>
    <contour>
      <point x="488.44660577831365" y="167.0" type="curve" smooth="yes"/>
      <point x="468.34532997754866" y="53.0" type="line" smooth="yes"/>
      <point x="460.41061584566773" y="8.0"/>
      <point x="491.23673019291533" y="-10.0"/>
      <point x="572.2367301929154" y="-10.0" type="curve" smooth="yes"/>
      <point x="653.2367301929154" y="-10.0"/>
      <point x="690.4106158456677" y="8.0"/>
      <point x="698.3453299775487" y="53.0" type="curve" smooth="yes"/>
      <point x="718.4466057783136" y="167.0" type="line" smooth="yes"/>
      <point x="726.3813199101946" y="212.0"/>
      <point x="695.555205562947" y="230.0"/>
      <point x="614.555205562947" y="230.0" type="curve" smooth="yes"/>
      <point x="533.555205562947" y="230.0"/>
      <point x="496.3813199101946" y="212.0"/>
    </contour>
  </outline>
</glyph>
<glyph name="at" format="2">
  <advance width="1228"/>
  <unicode hex="0040"/>
  <outline>
    <contour>
      <point x="118.59119549559287" y="389.0" type="curve" smooth="yes"/>
      <point x="59.52165695825711" y="54.0"/>
      <point x="215.02197195160485" y="-153.0"/>
      <point x="535.0219719516049" y="-153.0" type="curve" smooth="yes"/>
      <point x="645.0219719516049" y="-153.0"/>
      <point x="754.7248385464826" y="-132.0"/>
      <point x="830.190974948445" y="-101.0" type="curve" smooth="yes"/>
      <point x="852.7779177748213" y="-92.0"/>
      <point x="865.3044573889905" y="-72.0"/>
      <point x="860.6522286944953" y="-36.0" type="curve" smooth="yes"/>
      <point x="856.0" y="0.0"/>
      <point x="840.4685777299185" y="14.0"/>
      <point x="816.2342888649592" y="7.0" type="curve" smooth="yes"/>
      <point x="745.5314222700815" y="-14.0"/>
      <point x="650.710190578746" y="-30.0"/>
      <point x="554.710190578746" y="-30.0" type="curve" smooth="yes"/>
      <point x="305.71019057874605" y="-30.0"/>
      <point x="196.45148843422584" y="133.0"/>
      <point x="241.59119549559287" y="389.0" type="curve" smooth="yes"/>
      <point x="298.19215630301017" y="710.0"/>
      <point x="546.392266576584" y="955.0"/>
      <point x="823.392266576584" y="955.0" type="curve" smooth="yes"/>
      <point x="1066.392266576584" y="955.0"/>
      <point x="1188.6509687211042" y="792.0"/>
      <point x="1142.629626756195" y="531.0" type="curve" smooth="yes"/>
      <point x="1114.5936368235489" y="372.0"/>
      <point x="1035.3739959263262" y="263.0"/>
      <point x="934.3739959263263" y="263.0" type="curve" smooth="yes"/>
      <point x="874.3739959263263" y="263.0"/>
      <point x="854.0719798652918" y="318.0"/>
      <point x="891.2361002062198" y="404.0" type="curve" smooth="yes"/>
      <point x="1021.4868483801763" y="706.0" type="line" smooth="yes"/>
      <point x="1030.0133879943455" y="726.0"/>
      <point x="1013.0109466663895" y="743.0"/>
      <point x="990.5978894927657" y="752.0" type="curve" smooth="yes"/>
      <point x="968.1848323191418" y="761.0"/>
      <point x="940.3611592998503" y="762.0"/>
      <point x="930.8925815699317" y="748.0" type="curve" smooth="yes"/>
      <point x="888.7839817852985" y="685.0" type="line"/>
      <point x="874.187273647098" y="744.0"/>
      <point x="842.416679856145" y="785.0"/>
      <point x="778.416679856145" y="785.0" type="curve" smooth="yes"/>
      <point x="598.416679856145" y="785.0"/>
      <point x="417.5112616597372" y="536.0"/>
      <point x="385.948732112922" y="357.0" type="curve" smooth="yes"/>
      <point x="360.7339738716115" y="214.0"/>
      <point x="424.2751614535174" y="132.0"/>
      <point x="522.2751614535174" y="132.0" type="curve" smooth="yes"/>
      <point x="612.2751614535174" y="132.0"/>
      <point x="679.9731453924829" y="187.0"/>
      <point x="754.9029768684517" y="266.0" type="curve"/>
      <point x="771.0915104889407" y="182.0"/>
      <point x="826.1567963570596" y="137.0"/>
      <point x="913.1567963570596" y="137.0" type="curve" smooth="yes"/>
      <point x="1081.1567963570596" y="137.0"/>
      <point x="1222.1927862897057" y="296.0"/>
      <point x="1263.629626756195" y="531.0" type="curve" smooth="yes"/>
      <point x="1320.230587563612" y="852.0"/>
      <point x="1160.0804852037252" y="1078.0"/>
      <point x="850.0804852037252" y="1078.0" type="curve" smooth="yes"/>
      <point x="499.08048520372523" y="1078.0"/>
      <point x="187.71137193331114" y="781.0"/>
    </contour>
    <contour>
      <point x="810.9194361774488" y="561.0" type="curve" smooth="yes"/>
      <point x="787.8206017046399" y="430.0"/>
      <point x="673.9029768684517" y="266.0"/>
      <point x="570.9029768684517" y="266.0" type="curve" smooth="yes"/>
      <point x="532.9029768684517" y="266.0"/>
      <point x="509.8401323282887" y="294.0"/>
      <point x="521.3013860743389" y="359.0" type="curve" smooth="yes"/>
      <point x="547.5741061999003" y="508.0"/>
      <point x="679.02315330617" y="658.0"/>
      <point x="752.02315330617" y="658.0" type="curve" smooth="yes"/>
      <point x="799.02315330617" y="658.0"/>
      <point x="821.8517089813737" y="623.0"/>
    </contour>
  </outline>
</glyph>
<glyph name="A" format="2">
  <advance width="1228"/>
  <unicode hex="0041"/>
  <outline>
    <contour>
      <point x="762.1793196765342" y="1209"/>
      <point x="727.0054340237818" y="1191"/>
      <point x="701.7180659304839" y="1144" type="curve" smooth="yes"/>
      <point x="120.81146637951106" y="84" type="line" smooth="yes"/>
      <point x="97.0530792283386" y="40"/>
      <point x="105.82123169133544" y="16"/>
      <point x="156.64734603858307" y="-2" type="curve" smooth="yes"/>
      <point x="206.4734603858307" y="-20"/>
      <point x="233.5893841543323" y="-8"/>
      <point x="257.34777130550475" y="36" type="curve" smooth="yes"/>
      <point x="471.2916207625145" y="427" type="line"/>
      <point x="486.40510320306004" y="456" type="line"/>
      <point x="793.909040878929" y="1043" type="line"/>
      <point x="797.909040878929" y="1043" type="line"/>
      <point x="898.2287762223516" y="455" type="line"/>
      <point x="903.2916207625145" y="427" type="line"/>
      <point x="979.3477713055047" y="36" type="line" smooth="yes"/>
      <point x="987.5893841543323" y="-8"/>
      <point x="1010.4734603858307" y="-20"/>
      <point x="1066.647346038583" y="-2" type="curve" smooth="yes"/>
      <point x="1123.8212316913355" y="16"/>
      <point x="1141.0530792283387" y="40"/>
      <point x="1132.811466379511" y="84" type="curve" smooth="yes"/>
      <point x="925.7180659304839" y="1144" type="line" smooth="yes"/>
      <point x="917.0054340237818" y="1191"/>
      <point x="888.1793196765342" y="1209"/>
      <point x="825.1793196765342" y="1209" type="curve" smooth="yes"/>
    </contour>
    <contour>
      <point x="418.5789888558124" y="474" type="line"/>
      <point x="393.18790363379344" y="330" type="line"/>
      <point x="951.1879036337934" y="330" type="line"/>
      <point x="976.5789888558124" y="474" type="line"/>
    </contour>
  </outline>
</glyph>
<glyph name="B" format="2">
  <advance width="1228"/>
  <unicode hex="0042"/>
  <outline>
    <contour>
      <point x="477.3001261009479" y="1187" type="line" smooth="yes"/>
      <point x="432.3001261009479" y="1187"/>
      <point x="411.1262404481955" y="1169"/>
      <point x="402.30989141277234" y="1119" type="curve" smooth="yes"/>
      <point x="216.99023468817563" y="68" type="line" smooth="yes"/>
      <point x="208.17388565275238" y="18"/>
      <point x="223.0" y="0"/>
      <point x="268.0" y="0" type="curve" smooth="yes"/>
      <point x="690.0" y="0" type="line" smooth="yes"/>
      <point x="936.0" y="0"/>
      <point x="1096.2171995692665" y="126"/>
      <point x="1133.2458655180442" y="336" type="curve" smooth="yes"/>
      <point x="1158.6369507400632" y="480"/>
      <point x="1101.5643408880758" y="576"/>
      <point x="983.8517089813737" y="623" type="curve"/>
      <point x="1075.31540405538" y="671"/>
      <point x="1140.2452355313487" y="750"/>
      <point x="1159.288549447863" y="858" type="curve" smooth="yes"/>
      <point x="1193.3196567245966" y="1051"/>
      <point x="1092.3001261009479" y="1187"/>
      <point x="853.3001261009479" y="1187" type="curve" smooth="yes"/>
    </contour>
    <contour>
      <point x="925.6296267561949" y="531"/>
      <point x="1002.3446999908531" y="467"/>
      <point x="979.2458655180442" y="336" type="curve" smooth="yes"/>
      <point x="956.4996850066523" y="207"/>
      <point x="850.391085222019" y="144"/>
      <point x="695.391085222019" y="144" type="curve" smooth="yes"/>
      <point x="380.39108522201894" y="144" type="line"/>
      <point x="448.6296267561949" y="531" type="line"/>
      <point x="758.6296267561949" y="531" type="line" smooth="yes"/>
    </contour>
    <contour>
      <point x="962.909040878929" y="1043"/>
      <point x="1026.6241141135872" y="979"/>
      <point x="1005.2885494478629" y="858" type="curve" smooth="yes"/>
      <point x="984.834619685681" y="742"/>
      <point x="897.0207119782139" y="675"/>
      <point x="741.0207119782139" y="675" type="curve" smooth="yes"/>
      <point x="474.02071197821385" y="675" type="line"/>
      <point x="538.909040878929" y="1043" type="line"/>
      <point x="805.909040878929" y="1043" type="line" smooth="yes"/>
    </contour>
  </outline>
</glyph>
<glyph name="C" format="2">
  <advance width="1228"/>
  <unicode hex="0043"/>
  <outline>
    <contour>
      <point x="568.1793196765342" y="1209"/>
      <point x="319.97920940296024" y="964"/>
      <point x="254.73822654082818" y="594" type="curve" smooth="yes"/>
      <point x="189.49724367869615" y="224"/>
      <point x="351.1208064244138" y="-22"/>
      <point x="660.1208064244138" y="-22" type="curve" smooth="yes"/>
      <point x="793.1208064244138" y="-22"/>
      <point x="917.7632698070846" y="10"/>
      <point x="1050.9298314759687" y="79" type="curve" smooth="yes"/>
      <point x="1092.809025051555" y="101"/>
      <point x="1107.451488434226" y="133"/>
      <point x="1093.267837469649" y="183" type="curve" smooth="yes"/>
      <point x="1078.4368404664892" y="235"/>
      <point x="1044.0841865050722" y="233"/>
      <point x="1012.0866278330284" y="216" type="curve" smooth="yes"/>
      <point x="904.8596629519375" y="158"/>
      <point x="797.2171995692665" y="126"/>
      <point x="686.2171995692665" y="126" type="curve" smooth="yes"/>
      <point x="469.2171995692666" y="126"/>
      <point x="357.9560560967903" y="306"/>
      <point x="408.7382265408282" y="594" type="curve" smooth="yes"/>
      <point x="459.5203969848661" y="882"/>
      <point x="634.0829265316813" y="1061"/>
      <point x="851.0829265316813" y="1061" type="curve" smooth="yes"/>
      <point x="962.0829265316813" y="1061"/>
      <point x="1058.4404631490104" y="1029"/>
      <point x="1145.2134982679195" y="971" type="curve" smooth="yes"/>
      <point x="1171.2159395958756" y="954"/>
      <point x="1204.8632856344586" y="952"/>
      <point x="1238.0322886312988" y="1004" type="curve" smooth="yes"/>
      <point x="1269.848637666722" y="1054"/>
      <point x="1266.491101049393" y="1086"/>
      <point x="1232.3702946249791" y="1108" type="curve" smooth="yes"/>
      <point x="1123.5368562938634" y="1177"/>
      <point x="1010.1793196765342" y="1209"/>
      <point x="877.1793196765342" y="1209" type="curve" smooth="yes"/>
    </contour>
  </outline>
</glyph>
<glyph name="D" format="2">
  <advance width="1228"/>
  <unicode hex="0044"/>
  <outline>
    <contour>
      <point x="447.3001261009479" y="1187.0" type="line" smooth="yes"/>
      <point x="402.3001261009479" y="1187.0"/>
      <point x="381.1262404481955" y="1169.0"/>
      <point x="372.30989141277234" y="1119.0" type="curve" smooth="yes"/>
      <point x="186.99023468817563" y="68.0" type="line" smooth="yes"/>
      <point x="178.17388565275238" y="18.0"/>
      <point x="193.0" y="0.0"/>
      <point x="238.0" y="0.0" type="curve" smooth="yes"/>
      <point x="574.0" y="0.0" type="line" smooth="yes"/>
      <point x="889.0" y="0.0"/>
      <point x="1139.3209166979877" y="223.0"/>
      <point x="1204.5618995601196" y="593.0" type="curve" smooth="yes"/>
      <point x="1269.8028824222517" y="963.0"/>
      <point x="1098.3001261009479" y="1187.0"/>
      <point x="783.3001261009479" y="1187.0" type="curve" smooth="yes"/>
    </contour>
    <contour>
      <point x="1050.5618995601196" y="593.0" type="curve" smooth="yes"/>
      <point x="998.0164593089971" y="295.0"/>
      <point x="817.391085222019" y="144.0"/>
      <point x="580.391085222019" y="144.0" type="curve" smooth="yes"/>
      <point x="350.39108522201894" y="144.0" type="line"/>
      <point x="508.909040878929" y="1043.0" type="line"/>
      <point x="738.909040878929" y="1043.0" type="line" smooth="yes"/>
      <point x="975.909040878929" y="1043.0"/>
      <point x="1103.1073398112424" y="891.0"/>
    </contour>
  </outline>
</glyph>
<glyph name="E" format="2">
  <advance width="1228"/>
  <unicode hex="0045"/>
  <outline>
    <contour>
      <point x="497.3001261009479" y="1187.0" type="line" smooth="yes"/>
      <point x="452.3001261009479" y="1187.0"/>
      <point x="431.1262404481955" y="1169.0"/>
      <point x="422.30989141277234" y="1119.0" type="curve" smooth="yes"/>
      <point x="236.99023468817563" y="68.0" type="line" smooth="yes"/>
      <point x="228.17388565275238" y="18.0"/>
      <point x="243.0" y="0.0"/>
      <point x="288.0" y="0.0" type="curve" smooth="yes"/>
      <point x="977.0" y="0.0" type="line" smooth="yes"/>
      <point x="1022.0" y="0.0"/>
      <point x="1043.5265396141692" y="20.0"/>
      <point x="1052.6955426110094" y="72.0" type="curve" smooth="yes"/>
      <point x="1061.8645456078495" y="124.0"/>
      <point x="1047.391085222019" y="144.0"/>
      <point x="1002.391085222019" y="144.0" type="curve" smooth="yes"/>
      <point x="400.39108522201894" y="144.0" type="line"/>
      <point x="470.2165695825711" y="540.0" type="line"/>
      <point x="927.2165695825711" y="540.0" type="line" smooth="yes"/>
      <point x="972.2165695825711" y="540.0"/>
      <point x="993.7431091967404" y="560.0"/>
      <point x="1002.9121121935806" y="612.0" type="curve" smooth="yes"/>
      <point x="1012.0811151904207" y="664.0"/>
      <point x="997.6076548045901" y="684.0"/>
      <point x="952.6076548045901" y="684.0" type="curve" smooth="yes"/>
      <point x="495.60765480459" y="684.0" type="line"/>
      <point x="558.909040878929" y="1043.0" type="line"/>
      <point x="1140.9090408789289" y="1043.0" type="line" smooth="yes"/>
      <point x="1185.9090408789289" y="1043.0"/>
      <point x="1207.4355804930983" y="1063.0"/>
      <point x="1216.6045834899385" y="1115.0" type="curve" smooth="yes"/>
      <point x="1225.7735864867786" y="1167.0"/>
      <point x="1211.3001261009479" y="1187.0"/>
      <point x="1166.3001261009479" y="1187.0" type="curve" smooth="yes"/>
    </contour>
  </outline>
</glyph>
<glyph name="F" format="2">
  <advance width="1228"/>
  <unicode hex="0046"/>
  <outline>
    <contour>
      <point x="517.3001261009479" y="1187.0" type="line" smooth="yes"/>
      <point x="475.3001261009479" y="1187.0"/>
      <point x="451.1262404481955" y="1169.0"/>
      <point x="442.30989141277234" y="1119.0" type="curve" smooth="yes"/>
      <point x="254.69798393896556" y="55.0" type="line" smooth="yes"/>
      <point x="246.58694282637617" y="9.0"/>
      <point x="261.23673019291533" y="-10.0"/>
      <point x="317.23673019291533" y="-10.0" type="curve" smooth="yes"/>
      <point x="319.23673019291533" y="-10.0" type="line" smooth="yes"/>
      <point x="375.23673019291533" y="-10.0"/>
      <point x="396.5869428263762" y="9.0"/>
      <point x="404.6979839389656" y="55.0" type="curve" smooth="yes"/>
      <point x="483.1634903542325" y="500.0" type="line"/>
      <point x="950.1634903542325" y="500.0" type="line" smooth="yes"/>
      <point x="995.1634903542325" y="500.0"/>
      <point x="1016.6900299684017" y="520.0"/>
      <point x="1025.859032965242" y="572.0" type="curve" smooth="yes"/>
      <point x="1035.0280359620822" y="624.0"/>
      <point x="1020.5545755762514" y="644.0"/>
      <point x="975.5545755762514" y="644.0" type="curve" smooth="yes"/>
      <point x="508.5545755762514" y="644.0" type="line"/>
      <point x="578.909040878929" y="1043.0" type="line"/>
      <point x="1160.9090408789289" y="1043.0" type="line" smooth="yes"/>
      <point x="1205.9090408789289" y="1043.0"/>
      <point x="1227.4355804930983" y="1063.0"/>
      <point x="1236.6045834899385" y="1115.0" type="curve" smooth="yes"/>
      <point x="1245.7735864867786" y="1167.0"/>
      <point x="1231.3001261009479" y="1187.0"/>
      <point x="1186.3001261009479" y="1187.0" type="curve" smooth="yes"/>
    </contour>
  </outline>
</glyph>
<glyph name="G" format="2">
  <advance width="1228"/>
  <unicode hex="0047"/>
  <outline>
    <contour>
      <point x="548.1793196765342" y="1209"/>
      <point x="279.97920940296024" y="964"/>
      <point x="214.73822654082818" y="594" type="curve" smooth="yes"/>
      <point x="149.49724367869615" y="224"/>
      <point x="315.1208064244138" y="-22"/>
      <point x="630.1208064244138" y="-22" type="curve" smooth="yes"/>
      <point x="784.1208064244138" y="-22"/>
      <point x="938.9395967877931" y="11"/>
      <point x="1060.0481965724264" y="74" type="curve" smooth="yes"/>
      <point x="1085.3404473216365" y="87"/>
      <point x="1102.5722948586397" y="111"/>
      <point x="1108.2147582413104" y="143" type="curve"/>
      <point x="992.3837612381507" y="195" type="line"/>
      <point x="890.7437391834359" y="146"/>
      <point x="780.2171995692665" y="126"/>
      <point x="656.2171995692665" y="126" type="curve" smooth="yes"/>
      <point x="434.2171995692666" y="126"/>
      <point x="317.9560560967903" y="306"/>
      <point x="368.7382265408282" y="594" type="curve" smooth="yes"/>
      <point x="419.5203969848661" y="882"/>
      <point x="614.0829265316813" y="1061"/>
      <point x="831.0829265316813" y="1061" type="curve" smooth="yes"/>
      <point x="942.0829265316813" y="1061"/>
      <point x="1039.6747520139697" y="1036"/>
      <point x="1127.8004410942956" y="980" type="curve" smooth="yes"/>
      <point x="1154.8028824222517" y="963"/>
      <point x="1188.6265554415434" y="962"/>
      <point x="1220.971885419092" y="1015" type="curve" smooth="yes"/>
      <point x="1250.788234454515" y="1065"/>
      <point x="1247.430697837186" y="1097"/>
      <point x="1212.1335644320638" y="1118" type="curve" smooth="yes"/>
      <point x="1101.7711451588225" y="1184"/>
      <point x="990.1793196765342" y="1209"/>
      <point x="857.1793196765342" y="1209" type="curve" smooth="yes"/>
    </contour>
    <contour>
      <point x="770.7382265408282" y="594" type="line" smooth="yes"/>
      <point x="725.7382265408282" y="594"/>
      <point x="704.2116869266589" y="574"/>
      <point x="695.0426839298187" y="522" type="curve" smooth="yes"/>
      <point x="685.8736809329786" y="470"/>
      <point x="700.3471413188092" y="450"/>
      <point x="745.3471413188092" y="450" type="curve" smooth="yes"/>
      <point x="1071.3471413188092" y="450" type="line"/>
      <point x="1096.7382265408282" y="594" type="line"/>
    </contour>
    <contour>
      <point x="1037.7382265408282" y="594" type="line"/>
      <point x="958.2147582413105" y="143" type="line"/>
      <point x="1108.2147582413104" y="143" type="line"/>
      <point x="1175.7479918526526" y="526" type="line"/>
      <point x="1184.5643408880758" y="576"/>
      <point x="1169.7382265408282" y="594"/>
      <point x="1124.7382265408282" y="594" type="curve" smooth="yes"/>
    </contour>
  </outline>
</glyph>
<glyph name="H" format="2">
  <advance width="1228"/>
  <unicode hex="0048"/>
  <outline>
    <contour>
      <point x="1188.0633959080326" y="1197" type="line"/>
      <point x="1132.0633959080326" y="1197"/>
      <point x="1110.7131832745717" y="1178"/>
      <point x="1102.6021421619823" y="1132" type="curve" smooth="yes"/>
      <point x="912.6979839389655" y="55" type="line" smooth="yes"/>
      <point x="904.5869428263762" y="9"/>
      <point x="919.2367301929154" y="-10"/>
      <point x="975.2367301929154" y="-10" type="curve"/>
      <point x="977.2367301929154" y="-10" type="line"/>
      <point x="1033.2367301929153" y="-10"/>
      <point x="1054.5869428263761" y="9"/>
      <point x="1062.6979839389655" y="55" type="curve" smooth="yes"/>
      <point x="1252.6021421619823" y="1132" type="line" smooth="yes"/>
      <point x="1260.7131832745717" y="1178"/>
      <point x="1246.0633959080326" y="1197"/>
      <point x="1190.0633959080326" y="1197" type="curve"/>
    </contour>
    <contour>
      <point x="460.0633959080326" y="1197" type="line"/>
      <point x="404.0633959080326" y="1197"/>
      <point x="382.71318327457175" y="1178"/>
      <point x="374.60214216198233" y="1132" type="curve" smooth="yes"/>
      <point x="184.69798393896556" y="55" type="line" smooth="yes"/>
      <point x="176.58694282637617" y="9"/>
      <point x="191.23673019291536" y="-10"/>
      <point x="247.23673019291536" y="-10" type="curve"/>
      <point x="249.23673019291536" y="-10" type="line"/>
      <point x="305.23673019291533" y="-10"/>
      <point x="326.5869428263762" y="9"/>
      <point x="334.6979839389656" y="55" type="curve" smooth="yes"/>
      <point x="524.6021421619823" y="1132" type="line" smooth="yes"/>
      <point x="532.7131832745717" y="1178"/>
      <point x="518.0633959080326" y="1197"/>
      <point x="462.0633959080326" y="1197" type="curve"/>
    </contour>
    <contour>
      <point x="379.60765480459" y="684" type="line"/>
      <point x="354.2165695825711" y="540" type="line"/>
      <point x="1064.216569582571" y="540" type="line"/>
      <point x="1089.60765480459" y="684" type="line"/>
    </contour>
  </outline>
</glyph>
<glyph name="J" format="2">
  <advance width="1228"/>
  <unicode hex="004A"/>
  <outline>
    <contour>
      <point x="652.3001261009479" y="1187.0" type="line" smooth="yes"/>
      <point x="607.3001261009479" y="1187.0"/>
      <point x="585.7735864867786" y="1167.0"/>
      <point x="576.6045834899385" y="1115.0" type="curve" smooth="yes"/>
      <point x="567.4355804930983" y="1063.0"/>
      <point x="581.909040878929" y="1043.0"/>
      <point x="626.909040878929" y="1043.0" type="curve" smooth="yes"/>
      <point x="987.909040878929" y="1043.0" type="line"/>
      <point x="868.0066939971728" y="363.0" type="line" smooth="yes"/>
      <point x="841.0286659487776" y="210.0"/>
      <point x="756.2171995692665" y="126.0"/>
      <point x="604.2171995692665" y="126.0" type="curve" smooth="yes"/>
      <point x="500.2171995692666" y="126.0"/>
      <point x="405.2123169133544" y="160.0"/>
      <point x="333.14458971727925" y="222.0" type="curve" smooth="yes"/>
      <point x="310.6711293314485" y="242.0"/>
      <point x="277.3764372542824" y="246.0"/>
      <point x="236.7364151995676" y="197.0" type="curve" smooth="yes"/>
      <point x="199.6253740869782" y="151.0"/>
      <point x="199.80658372359886" y="118.0"/>
      <point x="230.22208222517878" y="92.0" type="curve" smooth="yes"/>
      <point x="317.9975586720439" y="17.0"/>
      <point x="445.1208064244138" y="-22.0"/>
      <point x="577.1208064244138" y="-22.0" type="curve" smooth="yes"/>
      <point x="813.1208064244138" y="-22.0"/>
      <point x="972.3380059936803" y="104.0"/>
      <point x="1012.7168845759188" y="333.0" type="curve" smooth="yes"/>
      <point x="1151.3098914127722" y="1119.0" type="line" smooth="yes"/>
      <point x="1160.1262404481956" y="1169.0"/>
      <point x="1142.3001261009479" y="1187.0"/>
      <point x="1100.3001261009479" y="1187.0" type="curve" smooth="yes"/>
    </contour>
  </outline>
</glyph>
<glyph name="K" format="2">
  <advance width="1228"/>
  <unicode hex="004B"/>
  <outline>
    <contour>
      <point x="319.52346829951773" y="451" type="line"/>
      <point x="417.5960781515051" y="355" type="line"/>
      <point x="1245.9017168950606" y="1094" type="line" smooth="yes"/>
      <point x="1283.72050725844" y="1127"/>
      <point x="1286.8339896989855" y="1156"/>
      <point x="1245.3001261009479" y="1187" type="curve" smooth="yes"/>
      <point x="1209.884627599368" y="1213"/>
      <point x="1173.4136085414934" y="1216"/>
      <point x="1146.0054340237818" y="1191" type="curve" smooth="yes"/>
    </contour>
    <contour>
      <point x="500.0633959080326" y="1197" type="line"/>
      <point x="444.0633959080326" y="1197"/>
      <point x="422.71318327457175" y="1178"/>
      <point x="414.60214216198233" y="1132" type="curve" smooth="yes"/>
      <point x="224.69798393896556" y="55" type="line" smooth="yes"/>
      <point x="216.58694282637617" y="9"/>
      <point x="231.23673019291536" y="-10"/>
      <point x="287.23673019291533" y="-10" type="curve"/>
      <point x="289.23673019291533" y="-10" type="line"/>
      <point x="345.23673019291533" y="-10"/>
      <point x="366.5869428263762" y="9"/>
      <point x="374.6979839389656" y="55" type="curve" smooth="yes"/>
      <point x="564.6021421619823" y="1132" type="line" smooth="yes"/>
      <point x="572.7131832745717" y="1178"/>
      <point x="558.0633959080326" y="1197"/>
      <point x="502.0633959080326" y="1197" type="curve"/>
    </contour>
    <contour>
      <point x="595.9700740778313" y="618" type="line"/>
      <point x="954.0579618842507" y="6" type="line" smooth="yes"/>
      <point x="973.2391715208714" y="-27"/>
      <point x="1003.5918254822884" y="-25"/>
      <point x="1052.0" y="0" type="curve" smooth="yes"/>
      <point x="1105.937155459837" y="28"/>
      <point x="1115.6979839389655" y="55"/>
      <point x="1094.2220822251788" y="92" type="curve" smooth="yes"/>
      <point x="740.5472515923832" y="695" type="line"/>
    </contour>
  </outline>
</glyph>
<glyph name="L" format="2">
  <advance width="1228"/>
  <unicode hex="004C"/>
  <outline>
    <contour>
      <point x="530.0633959080326" y="1197.0" type="line" smooth="yes"/>
      <point x="474.0633959080326" y="1197.0"/>
      <point x="452.71318327457175" y="1178.0"/>
      <point x="444.60214216198233" y="1132.0" type="curve" smooth="yes"/>
      <point x="256.99023468817563" y="68.0" type="line" smooth="yes"/>
      <point x="248.17388565275238" y="18.0"/>
      <point x="262.0" y="0.0"/>
      <point x="308.0" y="0.0" type="curve" smooth="yes"/>
      <point x="977.0" y="0.0" type="line" smooth="yes"/>
      <point x="1022.0" y="0.0"/>
      <point x="1043.5265396141692" y="20.0"/>
      <point x="1052.6955426110094" y="72.0" type="curve" smooth="yes"/>
      <point x="1061.8645456078495" y="124.0"/>
      <point x="1047.391085222019" y="144.0"/>
      <point x="1002.391085222019" y="144.0" type="curve" smooth="yes"/>
      <point x="420.39108522201894" y="144.0" type="line"/>
      <point x="594.6021421619823" y="1132.0" type="line" smooth="yes"/>
      <point x="602.7131832745717" y="1178.0"/>
      <point x="588.0633959080326" y="1197.0"/>
      <point x="532.0633959080326" y="1197.0" type="curve" smooth="yes"/>
    </contour>
  </outline>
</glyph>
<glyph name="M" format="2">
  <advance width="1228"/>
  <unicode hex="004D"/>
  <outline>
    <contour>
      <point x="1187.0633959080326" y="1197.0" type="line" smooth="yes"/>
      <point x="1140.0633959080326" y="1197.0"/>
      <point x="1107.5368562938634" y="1177.0"/>
      <point x="1078.6021421619823" y="1132.0" type="curve" smooth="yes"/>
      <point x="713.0957631581573" y="562.0" type="line"/>
      <point x="548.6021421619823" y="1132.0" type="line" smooth="yes"/>
      <point x="535.5368562938633" y="1177.0"/>
      <point x="511.0633959080326" y="1197.0"/>
      <point x="464.0633959080326" y="1197.0" type="curve" smooth="yes"/>
      <point x="462.0633959080326" y="1197.0" type="line" smooth="yes"/>
      <point x="415.0633959080326" y="1197.0"/>
      <point x="384.4184911974056" y="1182.0"/>
      <point x="374.60214216198233" y="1132.0" type="curve" smooth="yes"/>
      <point x="154.69798393896556" y="55.0" type="line" smooth="yes"/>
      <point x="145.58694282637617" y="9.0"/>
      <point x="160.23673019291536" y="-10.0"/>
      <point x="216.23673019291536" y="-10.0" type="curve" smooth="yes"/>
      <point x="218.23673019291536" y="-10.0" type="line" smooth="yes"/>
      <point x="274.23673019291533" y="-10.0"/>
      <point x="294.5869428263762" y="9.0"/>
      <point x="303.6979839389656" y="55.0" type="curve" smooth="yes"/>
      <point x="468.0518192549476" y="868.0" type="line"/>
      <point x="596.4099858589723" y="422.0" type="line" smooth="yes"/>
      <point x="610.1226177656744" y="375.0"/>
      <point x="632.1250590936305" y="358.0"/>
      <point x="677.1250590936305" y="358.0" type="curve" smooth="yes"/>
      <point x="722.1250590936305" y="358.0"/>
      <point x="750.1226177656744" y="375.0"/>
      <point x="780.4099858589723" y="422.0" type="curve" smooth="yes"/>
      <point x="1066.0518192549475" y="868.0" type="line"/>
      <point x="943.6979839389655" y="55.0" type="line" smooth="yes"/>
      <point x="936.5869428263762" y="9.0"/>
      <point x="950.2367301929154" y="-10.0"/>
      <point x="1006.2367301929154" y="-10.0" type="curve" smooth="yes"/>
      <point x="1008.2367301929154" y="-10.0" type="line" smooth="yes"/>
      <point x="1064.2367301929153" y="-10.0"/>
      <point x="1085.5869428263761" y="9.0"/>
      <point x="1092.6979839389655" y="55.0" type="curve" smooth="yes"/>
      <point x="1252.6021421619823" y="1132.0" type="line" smooth="yes"/>
      <point x="1260.4184911974057" y="1182.0"/>
      <point x="1236.0633959080326" y="1197.0"/>
      <point x="1189.0633959080326" y="1197.0" type="curve" smooth="yes"/>
    </contour>
  </outline>
</glyph>
<glyph name="N" format="2">
  <advance width="1228"/>
  <unicode hex="004E"/>
  <outline>
    <contour>
      <point x="1190.0633959080326" y="1197.0" type="line" smooth="yes"/>
      <point x="1136.0633959080326" y="1197.0"/>
      <point x="1114.7131832745717" y="1178.0"/>
      <point x="1106.6021421619823" y="1132.0" type="curve" smooth="yes"/>
      <point x="957.6058434633294" y="287.0" type="line"/>
      <point x="953.6058434633294" y="287.0" type="line"/>
      <point x="545.1262404481955" y="1169.0" type="line" smooth="yes"/>
      <point x="536.3001261009479" y="1187.0"/>
      <point x="517.0633959080326" y="1197.0"/>
      <point x="488.0633959080326" y="1197.0" type="curve" smooth="yes"/>
      <point x="461.0633959080326" y="1197.0" type="line" smooth="yes"/>
      <point x="405.0633959080326" y="1197.0"/>
      <point x="382.71318327457175" y="1178.0"/>
      <point x="374.60214216198233" y="1132.0" type="curve" smooth="yes"/>
      <point x="184.69798393896556" y="55.0" type="line" smooth="yes"/>
      <point x="176.58694282637617" y="9.0"/>
      <point x="191.23673019291536" y="-10.0"/>
      <point x="245.23673019291536" y="-10.0" type="curve" smooth="yes"/>
      <point x="247.23673019291536" y="-10.0" type="line" smooth="yes"/>
      <point x="301.23673019291533" y="-10.0"/>
      <point x="322.5869428263762" y="9.0"/>
      <point x="330.6979839389656" y="55.0" type="curve" smooth="yes"/>
      <point x="483.39714923249625" y="921.0" type="line"/>
      <point x="487.39714923249625" y="921.0" type="line"/>
      <point x="899.8187903633793" y="33.0" type="line" smooth="yes"/>
      <point x="915.8236730192915" y="-1.0"/>
      <point x="936.1208064244138" y="-22.0"/>
      <point x="974.1208064244138" y="-22.0" type="curve" smooth="yes"/>
      <point x="1026.1208064244138" y="-22.0"/>
      <point x="1053.352653961417" y="2.0"/>
      <point x="1059.5240982862133" y="37.0" type="curve" smooth="yes"/>
      <point x="1252.6021421619823" y="1132.0" type="line" smooth="yes"/>
      <point x="1260.7131832745717" y="1178.0"/>
      <point x="1246.0633959080326" y="1197.0"/>
      <point x="1192.0633959080326" y="1197.0" type="curve" smooth="yes"/>
    </contour>
  </outline>
</glyph>
<glyph name="O" format="2">
  <advance width="1228"/>
  <unicode hex="004F"/>
  <outline>
    <contour>
      <point x="194.56189956011974" y="593.0" type="curve" smooth="yes"/>
      <point x="129.32091669798768" y="223.0"/>
      <point x="295.1208064244138" y="-22.0"/>
      <point x="610.1208064244138" y="-22.0" type="curve" smooth="yes"/>
      <point x="925.1208064244138" y="-22.0"/>
      <point x="1177.3209166979877" y="223.0"/>
      <point x="1242.5618995601196" y="593.0" type="curve" smooth="yes"/>
      <point x="1307.8028824222517" y="963.0"/>
      <point x="1142.179319676534" y="1209.0"/>
      <point x="827.1793196765342" y="1209.0" type="curve" smooth="yes"/>
      <point x="512.1793196765342" y="1209.0"/>
      <point x="259.80288242225174" y="963.0"/>
    </contour>
    <contour>
      <point x="1088.5618995601196" y="593.0" type="curve" smooth="yes"/>
      <point x="1037.4270751546649" y="303.0"/>
      <point x="860.2171995692665" y="126.0"/>
      <point x="636.2171995692665" y="126.0" type="curve" smooth="yes"/>
      <point x="412.2171995692666" y="126.0"/>
      <point x="297.42707515466486" y="303.0"/>
      <point x="348.56189956011974" y="593.0" type="curve" smooth="yes"/>
      <point x="399.69672396557456" y="883.0"/>
      <point x="577.0829265316813" y="1061.0"/>
      <point x="801.0829265316813" y="1061.0" type="curve" smooth="yes"/>
      <point x="1025.0829265316813" y="1061.0"/>
      <point x="1139.6967239655746" y="883.0"/>
    </contour>
  </outline>
</glyph>
<glyph name="P" format="2">
  <advance width="1228"/>
  <unicode hex="0050"/>
  <outline>
    <contour>
      <point x="547.3001261009479" y="1187" type="line"/>
      <point x="521.909040878929" y="1043" type="line"/>
      <point x="802.909040878929" y="1043" type="line" smooth="yes"/>
      <point x="999.909040878929" y="1043"/>
      <point x="1085.3343046923333" y="949"/>
      <point x="1056.9456607982704" y="788" type="curve" smooth="yes"/>
      <point x="1028.9096708656245" y="629"/>
      <point x="910.6875886404457" y="537"/>
      <point x="713.6875886404457" y="537" type="curve" smooth="yes"/>
      <point x="432.6875886404457" y="537" type="line"/>
      <point x="407.2965034184267" y="393" type="line"/>
      <point x="709.2965034184267" y="393" type="line" smooth="yes"/>
      <point x="989.2965034184267" y="393"/>
      <point x="1169.5088203317812" y="553"/>
      <point x="1210.9456607982704" y="788" type="curve" smooth="yes"/>
      <point x="1252.5588282454682" y="1024"/>
      <point x="1129.3001261009479" y="1187"/>
      <point x="849.3001261009479" y="1187" type="curve" smooth="yes"/>
    </contour>
    <contour>
      <point x="507.3001261009479" y="1187" type="line" smooth="yes"/>
      <point x="462.3001261009479" y="1187"/>
      <point x="441.1262404481955" y="1169"/>
      <point x="432.30989141277234" y="1119" type="curve" smooth="yes"/>
      <point x="244.69798393896556" y="55" type="line" smooth="yes"/>
      <point x="236.58694282637617" y="9"/>
      <point x="251.23673019291536" y="-10"/>
      <point x="307.23673019291533" y="-10" type="curve" smooth="yes"/>
      <point x="309.23673019291533" y="-10" type="line" smooth="yes"/>
      <point x="365.23673019291533" y="-10"/>
      <point x="386.5869428263762" y="9"/>
      <point x="394.6979839389656" y="55" type="curve"/>
      <point x="594.3001261009479" y="1187" type="line"/>
    </contour>
  </outline>
</glyph>
<glyph name="Q" format="2">
  <advance width="1228"/>
  <unicode hex="0051"/>
  <outline>
    <contour>
      <point x="642.3593479585898" y="365"/>
      <point x="631.7748464601697" y="339"/>
      <point x="649.8980942125395" y="300" type="curve" smooth="yes"/>
      <point x="744.7510631673042" y="95" type="line"/>
      <point x="763.5216569582572" y="54" type="line"/>
      <point x="852.1958576043572" y="-135" type="line" smooth="yes"/>
      <point x="870.4954323374355" y="-173"/>
      <point x="895.4374704531848" y="-179"/>
      <point x="947.7272798744388" y="-149" type="curve" smooth="yes"/>
      <point x="1001.0170892956927" y="-119"/>
      <point x="1010.7779177748213" y="-92"/>
      <point x="992.4783430417428" y="-54" type="curve" smooth="yes"/>
      <point x="790.1805796499251" y="381" type="line" smooth="yes"/>
      <point x="772.0573318975553" y="420"/>
      <point x="747.115293781806" y="426"/>
      <point x="694.8254843605521" y="396" type="curve" smooth="yes"/>
    </contour>
    <component base="O"/>
  </outline>
</glyph>
<glyph name="S" format="2">
  <advance width="1228"/>
  <unicode hex="0053"/>
  <outline>
    <contour>
      <point x="551.1793196765342" y="1209"/>
      <point x="362.43313916514217" y="1080"/>
      <point x="324.1701843514053" y="863" type="curve" smooth="yes"/>
      <point x="299.66073403292864" y="724"/>
      <point x="355.7888644412107" y="651"/>
      <point x="443.2068042707467" y="608" type="curve" smooth="yes"/>
      <point x="569.2745314668218" y="546"/>
      <point x="759.921877505405" y="544"/>
      <point x="873.7528745085648" y="492" type="curve" smooth="yes"/>
      <point x="940.2867381066023" y="461"/>
      <point x="980.9993700133045" y="414"/>
      <point x="965.6589226916681" y="327" type="curve" smooth="yes"/>
      <point x="944.8523389680691" y="209"/>
      <point x="839.2171995692665" y="126"/>
      <point x="644.2171995692665" y="126" type="curve" smooth="yes"/>
      <point x="513.2171995692665" y="126"/>
      <point x="395.1519137011475" y="171"/>
      <point x="310.90785952436386" y="232" type="curve" smooth="yes"/>
      <point x="286.08174517711626" y="250"/>
      <point x="252.2580721578247" y="251"/>
      <point x="216.08906916098454" y="199" type="curve" smooth="yes"/>
      <point x="182.6253740869782" y="151"/>
      <point x="184.6302567428904" y="117"/>
      <point x="217.57473618659571" y="94" type="curve" smooth="yes"/>
      <point x="322.7028665948778" y="21"/>
      <point x="465.1208064244138" y="-22"/>
      <point x="618.1208064244138" y="-22" type="curve" smooth="yes"/>
      <point x="912.1208064244138" y="-22"/>
      <point x="1083.3355646657242" y="121"/>
      <point x="1119.658922691668" y="327" type="curve" smooth="yes"/>
      <point x="1150.6924712963578" y="503"/>
      <point x="1076.5039376758689" y="587"/>
      <point x="967.7913057691668" y="634" type="curve" smooth="yes"/>
      <point x="827.5472515923832" y="695"/>
      <point x="631.3709246116747" y="694"/>
      <point x="534.8925815699317" y="748" type="curve" smooth="yes"/>
      <point x="491.12442910693494" y="772"/>
      <point x="468.29587343173125" y="807"/>
      <point x="478.1701843514053" y="863" type="curve" smooth="yes"/>
      <point x="499.682075997838" y="985"/>
      <point x="605.0829265316813" y="1061"/>
      <point x="765.0829265316813" y="1061" type="curve" smooth="yes"/>
      <point x="896.0829265316813" y="1061"/>
      <point x="1007.0878091875935" y="1027"/>
      <point x="1093.8608443065025" y="969" type="curve" smooth="yes"/>
      <point x="1119.8632856344586" y="952"/>
      <point x="1154.8632856344586" y="952"/>
      <point x="1188.0322886312988" y="1004" type="curve" smooth="yes"/>
      <point x="1219.848637666722" y="1054"/>
      <point x="1217.6674280301015" y="1087"/>
      <point x="1183.5466216056877" y="1109" type="curve" smooth="yes"/>
      <point x="1074.7131832745717" y="1178"/>
      <point x="944.1793196765342" y="1209"/>
      <point x="791.1793196765342" y="1209" type="curve" smooth="yes"/>
    </contour>
  </outline>
</glyph>
<glyph name="T" format="2">
  <advance width="1228"/>
  <unicode hex="0054"/>
  <outline>
    <contour>
      <point x="394.3001261009479" y="1187.0" type="line" smooth="yes"/>
      <point x="349.3001261009479" y="1187.0"/>
      <point x="327.77358648677864" y="1167.0"/>
      <point x="318.6045834899385" y="1115.0" type="curve" smooth="yes"/>
      <point x="309.43558049309826" y="1063.0"/>
      <point x="323.909040878929" y="1043.0"/>
      <point x="368.909040878929" y="1043.0" type="curve" smooth="yes"/>
      <point x="722.909040878929" y="1043.0" type="line"/>
      <point x="548.6979839389655" y="55.0" type="line" smooth="yes"/>
      <point x="540.5869428263762" y="9.0"/>
      <point x="555.2367301929154" y="-10.0"/>
      <point x="611.2367301929154" y="-10.0" type="curve" smooth="yes"/>
      <point x="613.2367301929154" y="-10.0" type="line" smooth="yes"/>
      <point x="669.2367301929154" y="-10.0"/>
      <point x="690.5869428263762" y="9.0"/>
      <point x="698.6979839389655" y="55.0" type="curve" smooth="yes"/>
      <point x="872.909040878929" y="1043.0" type="line"/>
      <point x="1226.9090408789289" y="1043.0" type="line" smooth="yes"/>
      <point x="1271.9090408789289" y="1043.0"/>
      <point x="1293.4355804930983" y="1063.0"/>
      <point x="1302.6045834899385" y="1115.0" type="curve" smooth="yes"/>
      <point x="1311.7735864867786" y="1167.0"/>
      <point x="1297.3001261009479" y="1187.0"/>
      <point x="1252.3001261009479" y="1187.0" type="curve" smooth="yes"/>
    </contour>
  </outline>
</glyph>
<glyph name="U" format="2">
  <advance width="1228"/>
  <unicode hex="0055"/>
  <outline>
    <contour>
      <point x="1188.0633959080326" y="1197.0" type="line" smooth="yes"/>
      <point x="1132.0633959080326" y="1197.0"/>
      <point x="1110.7131832745717" y="1178.0"/>
      <point x="1102.6021421619823" y="1132.0" type="curve" smooth="yes"/>
      <point x="979.3495826467654" y="433.0" type="line" smooth="yes"/>
      <point x="942.6735706594046" y="225.0"/>
      <point x="818.2171995692665" y="126.0"/>
      <point x="636.2171995692665" y="126.0" type="curve" smooth="yes"/>
      <point x="454.2171995692666" y="126.0"/>
      <point x="364.6735706594046" y="225.0"/>
      <point x="401.3495826467653" y="433.0" type="curve" smooth="yes"/>
      <point x="524.6021421619823" y="1132.0" type="line" smooth="yes"/>
      <point x="532.7131832745717" y="1178.0"/>
      <point x="518.0633959080326" y="1197.0"/>
      <point x="462.0633959080326" y="1197.0" type="curve" smooth="yes"/>
      <point x="460.0633959080326" y="1197.0" type="line" smooth="yes"/>
      <point x="404.0633959080326" y="1197.0"/>
      <point x="382.71318327457175" y="1178.0"/>
      <point x="374.60214216198233" y="1132.0" type="curve" smooth="yes"/>
      <point x="247.82304303259605" y="413.0" type="line" smooth="yes"/>
      <point x="197.56985353068353" y="128.0"/>
      <point x="350.1208064244138" y="-22.0"/>
      <point x="610.1208064244138" y="-22.0" type="curve" smooth="yes"/>
      <point x="870.1208064244138" y="-22.0"/>
      <point x="1075.5698535306835" y="128.0"/>
      <point x="1125.823043032596" y="413.0" type="curve" smooth="yes"/>
      <point x="1252.6021421619823" y="1132.0" type="line" smooth="yes"/>
      <point x="1260.7131832745717" y="1178.0"/>
      <point x="1246.0633959080326" y="1197.0"/>
      <point x="1190.0633959080326" y="1197.0" type="curve" smooth="yes"/>
    </contour>
  </outline>
</glyph>
<glyph name="V" format="2">
  <advance width="1228"/>
  <unicode hex="0056"/>
  <outline>
    <contour>
      <point x="1175.9523547954432" y="1151.0" type="curve" smooth="yes"/>
      <point x="644.0915104889407" y="182.0" type="line"/>
      <point x="453.95235479544317" y="1151.0" type="line" smooth="yes"/>
      <point x="445.71074194661566" y="1195.0"/>
      <point x="422.8266657151172" y="1207.0"/>
      <point x="366.65278006236485" y="1189.0" type="curve" smooth="yes"/>
      <point x="309.4788944096125" y="1171.0"/>
      <point x="291.2470468726093" y="1147.0"/>
      <point x="300.4886597214369" y="1103.0" type="curve" smooth="yes"/>
      <point x="512.582060170464" y="43.0" type="line" smooth="yes"/>
      <point x="522.2946920771661" y="-4.0"/>
      <point x="551.1208064244138" y="-22.0"/>
      <point x="608.1208064244138" y="-22.0" type="curve" smooth="yes"/>
      <point x="665.1208064244138" y="-22.0"/>
      <point x="700.2946920771661" y="-4.0"/>
      <point x="726.582060170464" y="43.0" type="curve" smooth="yes"/>
      <point x="1312.4886597214368" y="1103.0" type="line" smooth="yes"/>
      <point x="1337.2470468726094" y="1147.0"/>
      <point x="1327.4788944096124" y="1171.0"/>
      <point x="1276.6527800623649" y="1189.0" type="curve" smooth="yes"/>
      <point x="1226.8266657151173" y="1207.0"/>
      <point x="1199.7107419466156" y="1195.0"/>
    </contour>
  </outline>
</glyph>
<glyph name="W" format="2">
  <advance width="1228"/>
  <unicode hex="0057"/>
  <outline>
    <contour>
      <point x="1203.8364310269417" y="1139.0" type="curve" smooth="yes"/>
      <point x="936.4923610227839" y="258.0" type="line"/>
      <point x="832.9962986986529" y="845.0" type="line" smooth="yes"/>
      <point x="828.580800197073" y="871.0"/>
      <point x="810.0493779269915" y="885.0"/>
      <point x="766.0493779269915" y="885.0" type="curve" smooth="yes"/>
      <point x="722.0493779269915" y="885.0"/>
      <point x="698.580800197073" y="871.0"/>
      <point x="684.9962986986529" y="845.0" type="curve" smooth="yes"/>
      <point x="374.49236102278394" y="258.0" type="line"/>
      <point x="417.83643102694157" y="1139.0" type="line" smooth="yes"/>
      <point x="420.1237991202395" y="1186.0"/>
      <point x="402.9450308115749" y="1202.0"/>
      <point x="345.8870689273241" y="1196.0" type="curve" smooth="yes"/>
      <point x="288.65278006236485" y="1189.0"/>
      <point x="267.1262404481955" y="1169.0"/>
      <point x="265.8388723548977" y="1122.0" type="curve" smooth="yes"/>
      <point x="224.582060170464" y="43.0" type="line" smooth="yes"/>
      <point x="222.9420381157492" y="-6.0"/>
      <point x="248.12080642441376" y="-22.0"/>
      <point x="299.1208064244138" y="-22.0" type="curve" smooth="yes"/>
      <point x="350.1208064244138" y="-22.0"/>
      <point x="386.64734603858307" y="-2.0"/>
      <point x="410.582060170464" y="43.0" type="curve" smooth="yes"/>
      <point x="720.9096708656244" y="629.0" type="line"/>
      <point x="824.582060170464" y="43.0" type="line" smooth="yes"/>
      <point x="832.6473460385831" y="-2.0"/>
      <point x="862.1208064244138" y="-22.0"/>
      <point x="913.1208064244138" y="-22.0" type="curve" smooth="yes"/>
      <point x="964.1208064244138" y="-22.0"/>
      <point x="994.9420381157493" y="-6.0"/>
      <point x="1010.582060170464" y="43.0" type="curve" smooth="yes"/>
      <point x="1349.8388723548976" y="1122.0" type="line" smooth="yes"/>
      <point x="1365.1262404481956" y="1169.0"/>
      <point x="1350.6527800623649" y="1189.0"/>
      <point x="1295.8870689273242" y="1196.0" type="curve" smooth="yes"/>
      <point x="1240.945030811575" y="1202.0"/>
      <point x="1218.1237991202395" y="1186.0"/>
    </contour>
  </outline>
</glyph>
<glyph name="X" format="2">
  <advance width="1228"/>
  <unicode hex="0058"/>
  <outline>
    <contour>
      <point x="1185.3556466572427" y="1210"/>
      <point x="1156.531973637951" y="1211"/>
      <point x="1122.655221390321" y="1172" type="curve" smooth="yes"/>
      <point x="691.8468263254615" y="657" type="line"/>
      <point x="648.8517089813737" y="623" type="line"/>
      <point x="179.69310128305338" y="89" type="line" smooth="yes"/>
      <point x="145.6400220547148" y="49"/>
      <point x="151.70286659487778" y="21"/>
      <point x="194.0" y="0" type="curve" smooth="yes"/>
      <point x="240.94447944370532" y="-23"/>
      <point x="269.59182548228836" y="-25"/>
      <point x="303.644904710627" y="15" type="curve" smooth="yes"/>
      <point x="728.9847220455679" y="516" type="line"/>
      <point x="774.3324933510727" y="552" type="line"/>
      <point x="1246.6070248178946" y="1098" type="line" smooth="yes"/>
      <point x="1281.660104046233" y="1138"/>
      <point x="1274.5972595060703" y="1166"/>
      <point x="1232.3001261009479" y="1187" type="curve" smooth="yes"/>
    </contour>
    <contour>
      <point x="376.59725950607015" y="1166"/>
      <point x="359.66010404623313" y="1138"/>
      <point x="380.6070248178945" y="1098" type="curve" smooth="yes"/>
      <point x="651.9773980616997" y="567" type="line"/>
      <point x="678.6875886404457" y="537" type="line"/>
      <point x="941.644904710627" y="15" type="line" smooth="yes"/>
      <point x="960.5918254822884" y="-25"/>
      <point x="990.9444794437053" y="-23"/>
      <point x="1046.0" y="0" type="curve" smooth="yes"/>
      <point x="1095.7028665948778" y="21"/>
      <point x="1112.8163490354232" y="50"/>
      <point x="1091.6931012830535" y="89" type="curve" smooth="yes"/>
      <point x="806.733343884916" y="628" type="line"/>
      <point x="782.4941723640445" y="655" type="line"/>
      <point x="530.655221390321" y="1172" type="line" smooth="yes"/>
      <point x="510.53197363795107" y="1211"/>
      <point x="481.35564665724263" y="1210"/>
      <point x="426.3001261009479" y="1187" type="curve" smooth="yes"/>
    </contour>
  </outline>
</glyph>
<glyph name="Y" format="2">
  <advance width="1228"/>
  <unicode hex="0059"/>
  <outline>
    <contour>
      <point x="636.3324933510727" y="552" type="line"/>
      <point x="548.6979839389655" y="55" type="line" smooth="yes"/>
      <point x="540.5869428263762" y="9"/>
      <point x="555.2367301929154" y="-10"/>
      <point x="611.2367301929154" y="-10" type="curve" smooth="yes"/>
      <point x="613.2367301929154" y="-10" type="line" smooth="yes"/>
      <point x="669.2367301929154" y="-10"/>
      <point x="690.5869428263762" y="9"/>
      <point x="698.6979839389655" y="55" type="curve" smooth="yes"/>
      <point x="786.3324933510727" y="552" type="line"/>
    </contour>
    <contour>
      <point x="1218.3556466572427" y="1210"/>
      <point x="1189.4740117537003" y="1205"/>
      <point x="1161.655221390321" y="1172" type="curve" smooth="yes"/>
      <point x="662.9773980616997" y="567" type="line"/>
      <point x="752.1104111258938" y="460" type="line"/>
      <point x="1281.2543708564776" y="1096" type="line" smooth="yes"/>
      <point x="1314.3074500848163" y="1136"/>
      <point x="1312.0682785639447" y="1163"/>
      <point x="1264.3001261009479" y="1187" type="curve" smooth="yes"/>
    </contour>
    <contour>
      <point x="326.0682785639448" y="1163"/>
      <point x="314.3074500848162" y="1136"/>
      <point x="333.25437085647764" y="1096" type="curve" smooth="yes"/>
      <point x="631.402661875104" y="473" type="line"/>
      <point x="768.7431091967404" y="560" type="line"/>
      <point x="479.65522139032095" y="1172" type="line" smooth="yes"/>
      <point x="464.4740117537003" y="1205"/>
      <point x="436.35564665724263" y="1210"/>
      <point x="382.3001261009479" y="1187" type="curve" smooth="yes"/>
    </contour>
  </outline>
</glyph>
<glyph name="Z" format="2">
  <advance width="1228"/>
  <unicode hex="005A"/>
  <outline>
    <contour>
      <point x="1036.3001261009479" y="1187" type="line"/>
      <point x="1012.3196567245967" y="1051" type="line"/>
      <point x="200.57229485863962" y="111" type="line" smooth="yes"/>
      <point x="190.45637109013802" y="99"/>
      <point x="182.16412034092798" y="86"/>
      <point x="178.99023468817563" y="68" type="curve" smooth="yes"/>
      <point x="170.17388565275238" y="18"/>
      <point x="185.0" y="0"/>
      <point x="230.0" y="0" type="curve" smooth="yes"/>
      <point x="383.0" y="0" type="line"/>
      <point x="405.98046937635127" y="136" type="line"/>
      <point x="1221.4331391651422" y="1080" type="line" smooth="yes"/>
      <point x="1230.196408972227" y="1090"/>
      <point x="1235.4886597214368" y="1103"/>
      <point x="1238.3098914127722" y="1119" type="curve" smooth="yes"/>
      <point x="1247.1262404481956" y="1169"/>
      <point x="1232.3001261009479" y="1187"/>
      <point x="1187.3001261009479" y="1187" type="curve" smooth="yes"/>
    </contour>
    <contour>
      <point x="335.39108522201894" y="144" type="line"/>
      <point x="310.0" y="0" type="line"/>
      <point x="996.0" y="0" type="line" smooth="yes"/>
      <point x="1041.0" y="0"/>
      <point x="1062.5265396141692" y="20"/>
      <point x="1071.6955426110094" y="72" type="curve" smooth="yes"/>
      <point x="1080.8645456078495" y="124"/>
      <point x="1066.391085222019" y="144"/>
      <point x="1021.391085222019" y="144" type="curve" smooth="yes"/>
    </contour>
    <contour>
      <point x="465.3001261009479" y="1187" type="line" smooth="yes"/>
      <point x="420.3001261009479" y="1187"/>
      <point x="398.77358648677864" y="1167"/>
      <point x="389.6045834899385" y="1115" type="curve" smooth="yes"/>
      <point x="380.43558049309826" y="1063"/>
      <point x="394.909040878929" y="1043"/>
      <point x="439.909040878929" y="1043" type="curve" smooth="yes"/>
      <point x="1074.9090408789289" y="1043" type="line"/>
      <point x="1100.3001261009479" y="1187" type="line"/>
    </contour>
  </outline>
</glyph>
<glyph name="bracketleft" format="2">
  <advance width="1228"/>
  <unicode hex="005B"/>
  <outline>
    <contour>
      <point x="634.9206175320139" y="1372" type="line" smooth="yes"/>
      <point x="589.9206175320139" y="1372"/>
      <point x="568.7467318792616" y="1354"/>
      <point x="559.9303828438383" y="1304" type="curve" smooth="yes"/>
      <point x="283.27335011225676" y="-265" type="line" smooth="yes"/>
      <point x="274.45700107683354" y="-315"/>
      <point x="289.2831154240812" y="-333"/>
      <point x="334.2831154240812" y="-333" type="curve" smooth="yes"/>
      <point x="421.2831154240812" y="-333" type="line"/>
      <point x="721.9206175320139" y="1372" type="line"/>
    </contour>
    <contour>
      <point x="421.67420064610013" y="-189" type="line"/>
      <point x="396.2831154240812" y="-333" type="line"/>
      <point x="748.2831154240812" y="-333" type="line" smooth="yes"/>
      <point x="793.2831154240812" y="-333"/>
      <point x="814.8096550382504" y="-313"/>
      <point x="823.9786580350907" y="-261" type="curve" smooth="yes"/>
      <point x="833.1476610319309" y="-209"/>
      <point x="818.6742006461001" y="-189"/>
      <point x="773.6742006461001" y="-189" type="curve" smooth="yes"/>
    </contour>
    <contour>
      <point x="696.9206175320139" y="1372" type="line"/>
      <point x="671.5295323099949" y="1228" type="line"/>
      <point x="1023.5295323099949" y="1228" type="line" smooth="yes"/>
      <point x="1068.529532309995" y="1228"/>
      <point x="1090.0560719241644" y="1248"/>
      <point x="1099.2250749210045" y="1300" type="curve" smooth="yes"/>
      <point x="1108.3940779178447" y="1352"/>
      <point x="1093.920617532014" y="1372"/>
      <point x="1048.920617532014" y="1372" type="curve" smooth="yes"/>
    </contour>
  </outline>
</glyph>
<glyph name="backslash" format="2">
  <advance width="1228"/>
  <unicode hex="005C"/>
  <outline>
    <contour>
      <point x="472.79981110760014" y="1394"/>
      <point x="425.5100016863462" y="1364"/>
      <point x="434.4569224580076" y="1324" type="curve" smooth="yes"/>
      <point x="816.7516931539997" y="-319" type="line" smooth="yes"/>
      <point x="822.048826559122" y="-340"/>
      <point x="843.403921848495" y="-355"/>
      <point x="875.403921848495" y="-355" type="curve" smooth="yes"/>
      <point x="938.403921848495" y="-355"/>
      <point x="985.6937312697489" y="-325"/>
      <point x="976.7468104980875" y="-285" type="curve" smooth="yes"/>
      <point x="594.4520398020954" y="1358" type="line" smooth="yes"/>
      <point x="589.1549063969732" y="1379"/>
      <point x="567.7998111076001" y="1394"/>
      <point x="535.7998111076001" y="1394" type="curve" smooth="yes"/>
    </contour>
  </outline>
</glyph>
<glyph name="bracketright" format="2">
  <advance width="1228"/>
  <unicode hex="005D"/>
  <outline>
    <contour>
      <point x="387.67420064610013" y="-189.0" type="line" smooth="yes"/>
      <point x="342.67420064610013" y="-189.0"/>
      <point x="321.14766103193085" y="-209.0"/>
      <point x="311.97865803509063" y="-261.0" type="curve" smooth="yes"/>
      <point x="302.80965503825047" y="-313.0"/>
      <point x="317.2831154240812" y="-333.0"/>
      <point x="362.2831154240812" y="-333.0" type="curve" smooth="yes"/>
      <point x="776.2831154240812" y="-333.0" type="line" smooth="yes"/>
      <point x="821.2831154240812" y="-333.0"/>
      <point x="842.4570010768335" y="-315.0"/>
      <point x="851.2733501122568" y="-265.0" type="curve" smooth="yes"/>
      <point x="1127.9303828438383" y="1304.0" type="line" smooth="yes"/>
      <point x="1136.7467318792615" y="1354.0"/>
      <point x="1121.920617532014" y="1372.0"/>
      <point x="1076.920617532014" y="1372.0" type="curve" smooth="yes"/>
      <point x="662.9206175320139" y="1372.0" type="line" smooth="yes"/>
      <point x="617.9206175320139" y="1372.0"/>
      <point x="596.3940779178447" y="1352.0"/>
      <point x="587.2250749210045" y="1300.0" type="curve" smooth="yes"/>
      <point x="578.0560719241643" y="1248.0"/>
      <point x="592.5295323099949" y="1228.0"/>
      <point x="637.5295323099949" y="1228.0" type="curve" smooth="yes"/>
      <point x="964.5295323099949" y="1228.0" type="line"/>
      <point x="714.6742006461001" y="-189.0" type="line"/>
    </contour>
  </outline>
</glyph>
<glyph name="asciicircum" format="2">
  <advance width="1228"/>
  <unicode hex="005E"/>
  <outline>
    <contour>
      <point x="788.1793196765342" y="1209"/>
      <point x="769.8870689273241" y="1196"/>
      <point x="752.655221390321" y="1172" type="curve" smooth="yes"/>
      <point x="340.44597579161814" y="581" type="line" smooth="yes"/>
      <point x="316.4508584475303" y="547"/>
      <point x="338.6900299684018" y="520"/>
      <point x="372.75043318060864" y="509" type="curve" smooth="yes"/>
      <point x="406.6345094121071" y="497"/>
      <point x="451.1634903542325" y="500"/>
      <point x="469.92431883336104" y="527" type="curve" smooth="yes"/>
      <point x="791.5612695734242" y="1007" type="line"/>
      <point x="943.924318833361" y="527" type="line" smooth="yes"/>
      <point x="952.987163373524" y="499"/>
      <point x="999.4581824313987" y="496"/>
      <point x="1038.9267601613171" y="510" type="curve" smooth="yes"/>
      <point x="1074.0426839298186" y="522"/>
      <point x="1103.6271854282388" y="548"/>
      <point x="1092.4459757916181" y="581" type="curve" smooth="yes"/>
      <point x="888.655221390321" y="1172" type="line" smooth="yes"/>
      <point x="879.8870689273241" y="1196"/>
      <point x="866.1793196765342" y="1209"/>
      <point x="827.1793196765342" y="1209" type="curve" smooth="yes"/>
    </contour>
  </outline>
</glyph>
<glyph name="underscore" format="2">
  <advance width="1228"/>
  <unicode hex="005F"/>
  <outline>
    <contour>
      <point x="89.09458180359222" y="-249.0" type="line" smooth="yes"/>
      <point x="44.09458180359222" y="-249.0"/>
      <point x="22.56804218942292" y="-269.0"/>
      <point x="13.399039192582741" y="-321.0" type="curve" smooth="yes"/>
      <point x="4.230036195742571" y="-373.0"/>
      <point x="18.703496581573262" y="-393.0"/>
      <point x="63.70349658157326" y="-393.0" type="curve" smooth="yes"/>
      <point x="1025.7034965815733" y="-393.0" type="line" smooth="yes"/>
      <point x="1070.7034965815733" y="-393.0"/>
      <point x="1092.2300361957425" y="-373.0"/>
      <point x="1101.3990391925827" y="-321.0" type="curve" smooth="yes"/>
      <point x="1110.5680421894228" y="-269.0"/>
      <point x="1096.0945818035923" y="-249.0"/>
      <point x="1051.0945818035923" y="-249.0" type="curve" smooth="yes"/>
    </contour>
  </outline>
</glyph>
<glyph name="b" format="2">
  <advance width="1228"/>
  <unicode hex="0062"/>
  <outline>
    <contour>
      <point x="499.1042684965907" y="1322" type="line" smooth="yes"/>
      <point x="443.1042684965907" y="1322"/>
      <point x="421.75405586312985" y="1303"/>
      <point x="413.6430147505405" y="1257" type="curve" smooth="yes"/>
      <point x="201.69798393896556" y="55" type="line" smooth="yes"/>
      <point x="193.58694282637617" y="9"/>
      <point x="206.23673019291536" y="-10"/>
      <point x="259.23673019291533" y="-10" type="curve" smooth="yes"/>
      <point x="261.23673019291533" y="-10" type="line" smooth="yes"/>
      <point x="314.23673019291533" y="-10"/>
      <point x="333.5869428263762" y="9"/>
      <point x="341.6979839389656" y="55" type="curve" smooth="yes"/>
      <point x="358.0963931448528" y="148" type="line"/>
      <point x="421.22940620904706" y="41"/>
      <point x="522.1208064244138" y="-22"/>
      <point x="655.1208064244138" y="-22" type="curve" smooth="yes"/>
      <point x="902.1208064244138" y="-22"/>
      <point x="1117.2123169133545" y="160"/>
      <point x="1170.4630650873107" y="462" type="curve" smooth="yes"/>
      <point x="1223.7138132612672" y="764"/>
      <point x="1072.805323750208" y="946"/>
      <point x="825.8053237502079" y="946" type="curve" smooth="yes"/>
      <point x="692.8053237502079" y="946"/>
      <point x="577.6967239655746" y="883"/>
      <point x="479.71137193331117" y="781" type="curve"/>
      <point x="563.6430147505405" y="1257" type="line" smooth="yes"/>
      <point x="571.7540558631299" y="1303"/>
      <point x="557.1042684965907" y="1322"/>
      <point x="501.1042684965907" y="1322" type="curve" smooth="yes"/>
    </contour>
    <contour>
      <point x="970.708930605355" y="798"/>
      <point x="1051.02315330617" y="658"/>
      <point x="1016.4630650873108" y="462" type="curve" smooth="yes"/>
      <point x="981.9029768684517" y="266"/>
      <point x="852.2171995692665" y="126"/>
      <point x="671.2171995692665" y="126" type="curve" smooth="yes"/>
      <point x="494.2171995692666" y="126"/>
      <point x="386.08174517711626" y="250"/>
      <point x="423.46306508731084" y="462" type="curve" smooth="yes"/>
      <point x="460.84438499750536" y="674"/>
      <point x="612.708930605355" y="798"/>
      <point x="789.708930605355" y="798" type="curve" smooth="yes"/>
    </contour>
  </outline>
</glyph>
<glyph name="c" format="2">
  <advance width="1228"/>
  <unicode hex="0063"/>
  <outline>
    <contour>
      <point x="503.8053237502079" y="946"/>
      <point x="277.3056387435556" y="739"/>
      <point x="228.46306508731084" y="462" type="curve" smooth="yes"/>
      <point x="179.62049143106603" y="185"/>
      <point x="333.1208064244138" y="-22"/>
      <point x="625.1208064244138" y="-22" type="curve" smooth="yes"/>
      <point x="777.1208064244138" y="-22"/>
      <point x="937.7608284791286" y="27"/>
      <point x="1059.6906599550973" y="106" type="curve" smooth="yes"/>
      <point x="1099.098834472809" y="131"/>
      <point x="1113.4466057783136" y="167"/>
      <point x="1093.7339738716114" y="214" type="curve" smooth="yes"/>
      <point x="1073.3739959263262" y="263"/>
      <point x="1037.492361022784" y="258"/>
      <point x="1006.7894944279062" y="237" type="curve" smooth="yes"/>
      <point x="898.9176248361882" y="164"/>
      <point x="773.2171995692665" y="126"/>
      <point x="651.2171995692665" y="126" type="curve" smooth="yes"/>
      <point x="456.2171995692666" y="126"/>
      <point x="352.07930384916017" y="267"/>
      <point x="386.46306508731084" y="462" type="curve" smooth="yes"/>
      <point x="420.8468263254615" y="657"/>
      <point x="574.708930605355" y="798"/>
      <point x="769.708930605355" y="798" type="curve" smooth="yes"/>
      <point x="881.708930605355" y="798"/>
      <point x="984.5954481648096" y="769"/>
      <point x="1071.605213476634" y="701" type="curve" smooth="yes"/>
      <point x="1096.0786738624647" y="681"/>
      <point x="1130.5496929203393" y="678"/>
      <point x="1165.542368936471" y="729" type="curve" smooth="yes"/>
      <point x="1200.0060640104773" y="777"/>
      <point x="1196.353835315982" y="813"/>
      <point x="1164.4093558722766" y="836" type="curve" smooth="yes"/>
      <point x="1065.2812254639946" y="909"/>
      <point x="937.8053237502079" y="946"/>
      <point x="795.8053237502079" y="946" type="curve" smooth="yes"/>
    </contour>
  </outline>
</glyph>
<glyph name="d" format="2">
  <advance width="1228"/>
  <unicode hex="0064"/>
  <outline>
    <contour>
      <point x="1193.1042684965907" y="1322.0" type="line" smooth="yes"/>
      <point x="1137.1042684965907" y="1322.0"/>
      <point x="1115.75405586313" y="1303.0"/>
      <point x="1107.6430147505405" y="1257.0" type="curve" smooth="yes"/>
      <point x="1023.7113719333112" y="781.0" type="line"/>
      <point x="961.6967239655746" y="883.0"/>
      <point x="868.8053237502079" y="946.0"/>
      <point x="735.8053237502079" y="946.0" type="curve" smooth="yes"/>
      <point x="488.8053237502079" y="946.0"/>
      <point x="273.7138132612672" y="764.0"/>
      <point x="220.46306508731084" y="462.0" type="curve" smooth="yes"/>
      <point x="167.21231691335439" y="160.0"/>
      <point x="318.1208064244138" y="-22.0"/>
      <point x="565.1208064244138" y="-22.0" type="curve" smooth="yes"/>
      <point x="698.1208064244138" y="-22.0"/>
      <point x="821.229406209047" y="41.0"/>
      <point x="922.0963931448529" y="148.0" type="curve"/>
      <point x="905.6979839389655" y="55.0" type="line" smooth="yes"/>
      <point x="897.5869428263762" y="9.0"/>
      <point x="910.2367301929154" y="-10.0"/>
      <point x="963.2367301929154" y="-10.0" type="curve" smooth="yes"/>
      <point x="965.2367301929154" y="-10.0" type="line" smooth="yes"/>
      <point x="1018.2367301929154" y="-10.0"/>
      <point x="1037.5869428263761" y="9.0"/>
      <point x="1045.6979839389655" y="55.0" type="curve" smooth="yes"/>
      <point x="1257.6430147505405" y="1257.0" type="line" smooth="yes"/>
      <point x="1265.75405586313" y="1303.0"/>
      <point x="1251.1042684965907" y="1322.0"/>
      <point x="1195.1042684965907" y="1322.0" type="curve" smooth="yes"/>
    </contour>
    <contour>
      <point x="967.4630650873108" y="462.0" type="curve" smooth="yes"/>
      <point x="930.0817451771162" y="250.0"/>
      <point x="778.2171995692665" y="126.0"/>
      <point x="601.2171995692665" y="126.0" type="curve" smooth="yes"/>
      <point x="420.2171995692666" y="126.0"/>
      <point x="339.9029768684517" y="266.0"/>
      <point x="374.46306508731084" y="462.0" type="curve" smooth="yes"/>
      <point x="409.02315330616995" y="658.0"/>
      <point x="538.708930605355" y="798.0"/>
      <point x="719.708930605355" y="798.0" type="curve" smooth="yes"/>
      <point x="896.708930605355" y="798.0"/>
      <point x="1004.8443849975054" y="674.0"/>
    </contour>
  </outline>
</glyph>
<glyph name="f" format="2">
  <advance width="1228"/>
  <unicode hex="0066"/>
  <outline>
    <contour>
      <point x="618.5081903450856" y="967.0" type="curve" smooth="yes"/>
      <point x="596.8199717179444" y="844.0" type="line"/>
      <point x="398.81997171794444" y="844.0" type="line" smooth="yes"/>
      <point x="353.81997171794444" y="844.0"/>
      <point x="332.2934321037751" y="824.0"/>
      <point x="323.12442910693494" y="772.0" type="curve" smooth="yes"/>
      <point x="313.9554261100948" y="720.0"/>
      <point x="328.4288864959255" y="700.0"/>
      <point x="373.4288864959255" y="700.0" type="curve" smooth="yes"/>
      <point x="571.4288864959254" y="700.0" type="line"/>
      <point x="457.6979839389656" y="55.0" type="line" smooth="yes"/>
      <point x="449.5869428263762" y="9.0"/>
      <point x="464.23673019291533" y="-10.0"/>
      <point x="520.2367301929154" y="-10.0" type="curve" smooth="yes"/>
      <point x="522.2367301929154" y="-10.0" type="line" smooth="yes"/>
      <point x="578.2367301929154" y="-10.0"/>
      <point x="599.5869428263762" y="9.0"/>
      <point x="607.6979839389655" y="55.0" type="curve" smooth="yes"/>
      <point x="721.4288864959254" y="700.0" type="line"/>
      <point x="1067.4288864959256" y="700.0" type="line" smooth="yes"/>
      <point x="1112.4288864959256" y="700.0"/>
      <point x="1133.9554261100948" y="720.0"/>
      <point x="1143.124429106935" y="772.0" type="curve" smooth="yes"/>
      <point x="1152.293432103775" y="824.0"/>
      <point x="1137.8199717179446" y="844.0"/>
      <point x="1092.8199717179446" y="844.0" type="curve" smooth="yes"/>
      <point x="746.8199717179444" y="844.0" type="line"/>
      <point x="766.2159395958756" y="954.0" type="line" smooth="yes"/>
      <point x="790.3727359529353" y="1091.0"/>
      <point x="865.4788944096125" y="1171.0"/>
      <point x="1006.4788944096125" y="1171.0" type="curve" smooth="yes"/>
      <point x="1085.4788944096124" y="1171.0"/>
      <point x="1162.1286817761516" y="1152.0"/>
      <point x="1234.8388723548976" y="1122.0" type="curve" smooth="yes"/>
      <point x="1268.3702946249791" y="1108.0"/>
      <point x="1298.5441802777316" y="1126.0"/>
      <point x="1317.8315483710294" y="1173.0" type="curve" smooth="yes"/>
      <point x="1336.9425894836188" y="1219.0"/>
      <point x="1328.4087258855811" y="1250.0"/>
      <point x="1289.2299575769166" y="1266.0" type="curve" smooth="yes"/>
      <point x="1214.6960939788792" y="1297.0"/>
      <point x="1126.2226335930484" y="1317.0"/>
      <point x="1032.2226335930484" y="1317.0" type="curve" smooth="yes"/>
      <point x="808.2226335930484" y="1317.0"/>
      <point x="657.1237991202395" y="1186.0"/>
    </contour>
  </outline>
</glyph>
<glyph name="h" format="2">
  <advance width="1228"/>
  <unicode hex="0068"/>
  <outline>
    <contour>
      <point x="509.1042684965907" y="1322.0" type="line" smooth="yes"/>
      <point x="453.1042684965907" y="1322.0"/>
      <point x="431.75405586312985" y="1303.0"/>
      <point x="423.6430147505405" y="1257.0" type="curve" smooth="yes"/>
      <point x="211.69798393896556" y="55.0" type="line" smooth="yes"/>
      <point x="203.58694282637617" y="9.0"/>
      <point x="218.23673019291536" y="-10.0"/>
      <point x="274.23673019291533" y="-10.0" type="curve" smooth="yes"/>
      <point x="276.23673019291533" y="-10.0" type="line" smooth="yes"/>
      <point x="332.23673019291533" y="-10.0"/>
      <point x="353.5869428263762" y="9.0"/>
      <point x="361.6979839389656" y="55.0" type="curve" smooth="yes"/>
      <point x="421.12017643771827" y="392.0" type="line" smooth="yes"/>
      <point x="461.3227280392483" y="620.0"/>
      <point x="681.708930605355" y="798.0"/>
      <point x="852.708930605355" y="798.0" type="curve" smooth="yes"/>
      <point x="981.708930605355" y="798.0"/>
      <point x="1020.9554261100948" y="720.0"/>
      <point x="1000.6778233286213" y="605.0" type="curve" smooth="yes"/>
      <point x="903.6979839389655" y="55.0" type="line" smooth="yes"/>
      <point x="895.5869428263762" y="9.0"/>
      <point x="910.2367301929154" y="-10.0"/>
      <point x="966.2367301929154" y="-10.0" type="curve" smooth="yes"/>
      <point x="968.2367301929154" y="-10.0" type="line" smooth="yes"/>
      <point x="1024.2367301929153" y="-10.0"/>
      <point x="1045.5869428263761" y="9.0"/>
      <point x="1053.6979839389655" y="55.0" type="curve" smooth="yes"/>
      <point x="1153.3227280392482" y="620.0" type="line" smooth="yes"/>
      <point x="1188.5881241809413" y="820.0"/>
      <point x="1097.805323750208" y="946.0"/>
      <point x="893.8053237502079" y="946.0" type="curve" smooth="yes"/>
      <point x="758.8053237502079" y="946.0"/>
      <point x="594.7595685057375" y="855.0"/>
      <point x="478.9554261100948" y="720.0" type="curve"/>
      <point x="573.6430147505405" y="1257.0" type="line" smooth="yes"/>
      <point x="581.7540558631299" y="1303.0"/>
      <point x="567.1042684965907" y="1322.0"/>
      <point x="511.1042684965907" y="1322.0" type="curve" smooth="yes"/>
    </contour>
  </outline>
</glyph>
<glyph name="k" format="2">
  <advance width="1228"/>
  <unicode hex="006B"/>
  <outline>
    <contour>
      <point x="1139.3343046923333" y="949"/>
      <point x="1102.805323750208" y="946"/>
      <point x="1073.9261301746217" y="924" type="curve" smooth="yes"/>
      <point x="351.8883289007151" y="368" type="line"/>
      <point x="413.7290912156993" y="248" type="line"/>
      <point x="1181.8803749301514" y="833" type="line" smooth="yes"/>
      <point x="1222.1701843514052" y="863"/>
      <point x="1218.9889747147845" y="896"/>
      <point x="1176.9261301746217" y="924" type="curve" smooth="yes"/>
    </contour>
    <contour>
      <point x="539.1042684965907" y="1322" type="line" smooth="yes"/>
      <point x="483.1042684965907" y="1322"/>
      <point x="461.75405586312985" y="1303"/>
      <point x="453.6430147505405" y="1257" type="curve" smooth="yes"/>
      <point x="241.69798393896556" y="55" type="line" smooth="yes"/>
      <point x="233.58694282637617" y="9"/>
      <point x="248.23673019291536" y="-10"/>
      <point x="304.23673019291533" y="-10" type="curve" smooth="yes"/>
      <point x="306.23673019291533" y="-10" type="line" smooth="yes"/>
      <point x="362.23673019291533" y="-10"/>
      <point x="383.5869428263762" y="9"/>
      <point x="391.6979839389656" y="55" type="curve" smooth="yes"/>
      <point x="603.6430147505405" y="1257" type="line" smooth="yes"/>
      <point x="611.7540558631299" y="1303"/>
      <point x="597.1042684965907" y="1322"/>
      <point x="541.1042684965907" y="1322" type="curve" smooth="yes"/>
    </contour>
    <contour>
      <point x="578.4581824313987" y="496" type="line"/>
      <point x="938.5289809421254" y="3" type="line" smooth="yes"/>
      <point x="957.7681524629968" y="-24"/>
      <point x="987.1208064244138" y="-22"/>
      <point x="1038.8816349035424" y="5" type="curve" smooth="yes"/>
      <point x="1092.8187903633793" y="33"/>
      <point x="1101.7559458232163" y="61"/>
      <point x="1076.7510631673042" y="95" type="curve" smooth="yes"/>
      <point x="715.9749567337435" y="584" type="line"/>
    </contour>
  </outline>
</glyph>
<glyph name="l" format="2">
  <advance width="1228"/>
  <unicode hex="006C"/>
  <outline>
    <contour>
      <point x="784.340998689506" y="1312" type="line"/>
      <point x="571.6906599550973" y="106" type="line"/>
      <point x="721.6906599550973" y="106" type="line"/>
      <point x="922.3507640013304" y="1244" type="line" smooth="yes"/>
      <point x="931.1671130367537" y="1294"/>
      <point x="916.340998689506" y="1312"/>
      <point x="871.340998689506" y="1312" type="curve" smooth="yes"/>
    </contour>
    <contour>
      <point x="265.39108522201894" y="144" type="line" smooth="yes"/>
      <point x="220.39108522201894" y="144"/>
      <point x="198.86454560784966" y="124"/>
      <point x="189.69554261100947" y="72" type="curve" smooth="yes"/>
      <point x="180.5265396141693" y="20"/>
      <point x="195.0" y="0"/>
      <point x="240.0" y="0" type="curve" smooth="yes"/>
      <point x="1024.0" y="0" type="line" smooth="yes"/>
      <point x="1069.0" y="0"/>
      <point x="1090.5265396141692" y="20"/>
      <point x="1099.6955426110094" y="72" type="curve" smooth="yes"/>
      <point x="1108.8645456078495" y="124"/>
      <point x="1094.391085222019" y="144"/>
      <point x="1049.391085222019" y="144" type="curve" smooth="yes"/>
    </contour>
    <contour>
      <point x="511.340998689506" y="1312" type="line" smooth="yes"/>
      <point x="466.340998689506" y="1312"/>
      <point x="444.81445907533674" y="1292"/>
      <point x="435.6454560784966" y="1240" type="curve" smooth="yes"/>
      <point x="426.47645308165636" y="1188"/>
      <point x="440.9499134674871" y="1168"/>
      <point x="485.9499134674871" y="1168" type="curve" smooth="yes"/>
      <point x="819.949913467487" y="1168" type="line"/>
      <point x="845.340998689506" y="1312" type="line"/>
    </contour>
  </outline>
</glyph>
<glyph name="m" format="2">
  <advance width="1228"/>
  <unicode hex="006D"/>
  <outline>
    <contour>
      <point x="806.8901402419757" y="765.0" type="curve"/>
      <point x="803.5783588691169" y="888.0"/>
      <point x="737.8053237502079" y="946.0"/>
      <point x="650.8053237502079" y="946.0" type="curve" smooth="yes"/>
      <point x="559.8053237502079" y="946.0"/>
      <point x="465.0493779269915" y="885.0"/>
      <point x="384.47952439630797" y="757.0" type="curve"/>
      <point x="404.228146235656" y="869.0" type="line" smooth="yes"/>
      <point x="412.33918734824545" y="915.0"/>
      <point x="401.6893999817063" y="934.0"/>
      <point x="351.6893999817063" y="934.0" type="curve" smooth="yes"/>
      <point x="349.6893999817063" y="934.0" type="line" smooth="yes"/>
      <point x="299.6893999817063" y="934.0"/>
      <point x="282.33918734824545" y="915.0"/>
      <point x="274.228146235656" y="869.0" type="curve" smooth="yes"/>
      <point x="130.69798393896556" y="55.0" type="line" smooth="yes"/>
      <point x="122.58694282637619" y="9.0"/>
      <point x="137.23673019291536" y="-10.0"/>
      <point x="193.23673019291536" y="-10.0" type="curve" smooth="yes"/>
      <point x="195.23673019291536" y="-10.0" type="line" smooth="yes"/>
      <point x="251.23673019291536" y="-10.0"/>
      <point x="272.5869428263762" y="9.0"/>
      <point x="280.6979839389656" y="55.0" type="curve" smooth="yes"/>
      <point x="351.5814301837685" y="457.0" type="line" smooth="yes"/>
      <point x="387.1994802868784" y="659.0"/>
      <point x="490.708930605355" y="798.0"/>
      <point x="585.708930605355" y="798.0" type="curve" smooth="yes"/>
      <point x="653.708930605355" y="798.0"/>
      <point x="672.0689085506402" y="749.0"/>
      <point x="656.3758072675869" y="660.0" type="curve" smooth="yes"/>
      <point x="549.6979839389655" y="55.0" type="line" smooth="yes"/>
      <point x="541.5869428263762" y="9.0"/>
      <point x="556.2367301929154" y="-10.0"/>
      <point x="612.2367301929154" y="-10.0" type="curve" smooth="yes"/>
      <point x="614.2367301929154" y="-10.0" type="line" smooth="yes"/>
      <point x="670.2367301929154" y="-10.0"/>
      <point x="691.5869428263762" y="9.0"/>
      <point x="699.6979839389655" y="55.0" type="curve" smooth="yes"/>
      <point x="770.5814301837685" y="457.0" type="line" smooth="yes"/>
      <point x="806.1994802868784" y="659.0"/>
      <point x="909.708930605355" y="798.0"/>
      <point x="1004.708930605355" y="798.0" type="curve" smooth="yes"/>
      <point x="1072.7089306053551" y="798.0"/>
      <point x="1091.0689085506403" y="749.0"/>
      <point x="1075.3758072675869" y="660.0" type="curve" smooth="yes"/>
      <point x="968.6979839389655" y="55.0" type="line" smooth="yes"/>
      <point x="960.5869428263762" y="9.0"/>
      <point x="975.2367301929154" y="-10.0"/>
      <point x="1031.2367301929153" y="-10.0" type="curve" smooth="yes"/>
      <point x="1033.2367301929153" y="-10.0" type="line" smooth="yes"/>
      <point x="1089.2367301929153" y="-10.0"/>
      <point x="1110.5869428263761" y="9.0"/>
      <point x="1118.6979839389655" y="55.0" type="curve" smooth="yes"/>
      <point x="1228.5496929203393" y="678.0" type="line" smooth="yes"/>
      <point x="1260.8175303899884" y="861.0"/>
      <point x="1182.805323750208" y="946.0"/>
      <point x="1068.805323750208" y="946.0" type="curve" smooth="yes"/>
      <point x="976.8053237502079" y="946.0"/>
      <point x="888.4020318884084" y="887.0"/>
    </contour>
  </outline>
</glyph>
<glyph name="o" format="2">
  <advance width="1228"/>
  <unicode hex="006F"/>
  <outline>
    <contour>
      <point x="504.8053237502079" y="946"/>
      <point x="265.187273647098" y="744"/>
      <point x="215.46306508731084" y="462" type="curve" smooth="yes"/>
      <point x="165.7388565275237" y="180"/>
      <point x="334.1208064244138" y="-22"/>
      <point x="610.1208064244138" y="-22" type="curve" smooth="yes"/>
      <point x="886.1208064244138" y="-22"/>
      <point x="1125.7388565275237" y="180"/>
      <point x="1175.4630650873107" y="462" type="curve" smooth="yes"/>
      <point x="1225.187273647098" y="744"/>
      <point x="1056.805323750208" y="946"/>
      <point x="780.8053237502079" y="946" type="curve" smooth="yes"/>
    </contour>
    <contour>
      <point x="950.708930605355" y="798"/>
      <point x="1056.1994802868785" y="659"/>
      <point x="1021.4630650873108" y="462" type="curve" smooth="yes"/>
      <point x="986.7266498877432" y="265"/>
      <point x="832.2171995692665" y="126"/>
      <point x="636.2171995692665" y="126" type="curve" smooth="yes"/>
      <point x="440.2171995692666" y="126"/>
      <point x="334.72664988774324" y="265"/>
      <point x="369.46306508731084" y="462" type="curve" smooth="yes"/>
      <point x="404.1994802868784" y="659"/>
      <point x="558.708930605355" y="798"/>
      <point x="754.708930605355" y="798" type="curve" smooth="yes"/>
    </contour>
  </outline>
</glyph>
<glyph name="p" format="2">
  <advance width="1228"/>
  <unicode hex="0070"/>
  <outline>
    <contour>
      <point x="692.8053237502079" y="946"/>
      <point x="569.6967239655746" y="883"/>
      <point x="468.8297370297688" y="776" type="curve"/>
      <point x="485.228146235656" y="869" type="line" smooth="yes"/>
      <point x="493.33918734824545" y="915"/>
      <point x="480.6893999817063" y="934"/>
      <point x="427.6893999817063" y="934" type="curve" smooth="yes"/>
      <point x="425.6893999817063" y="934" type="line" smooth="yes"/>
      <point x="372.6893999817063" y="934"/>
      <point x="353.33918734824545" y="915"/>
      <point x="345.228146235656" y="869" type="curve" smooth="yes"/>
      <point x="133.28311542408116" y="-333" type="line" smooth="yes"/>
      <point x="125.17207431149177" y="-379"/>
      <point x="139.82186167803093" y="-398"/>
      <point x="195.82186167803093" y="-398" type="curve" smooth="yes"/>
      <point x="197.82186167803093" y="-398" type="line" smooth="yes"/>
      <point x="253.82186167803093" y="-398"/>
      <point x="275.17207431149177" y="-379"/>
      <point x="283.2831154240812" y="-333" type="curve" smooth="yes"/>
      <point x="367.2147582413105" y="143" type="line"/>
      <point x="429.22940620904706" y="41"/>
      <point x="522.1208064244138" y="-22"/>
      <point x="655.1208064244138" y="-22" type="curve" smooth="yes"/>
      <point x="902.1208064244138" y="-22"/>
      <point x="1117.2123169133545" y="160"/>
      <point x="1170.4630650873107" y="462" type="curve" smooth="yes"/>
      <point x="1223.7138132612672" y="764"/>
      <point x="1072.805323750208" y="946"/>
      <point x="825.8053237502079" y="946" type="curve" smooth="yes"/>
    </contour>
    <contour>
      <point x="970.708930605355" y="798"/>
      <point x="1051.02315330617" y="658"/>
      <point x="1016.4630650873108" y="462" type="curve" smooth="yes"/>
      <point x="981.9029768684517" y="266"/>
      <point x="852.2171995692665" y="126"/>
      <point x="671.2171995692665" y="126" type="curve" smooth="yes"/>
      <point x="494.2171995692666" y="126"/>
      <point x="386.08174517711626" y="250"/>
      <point x="423.46306508731084" y="462" type="curve" smooth="yes"/>
      <point x="460.84438499750536" y="674"/>
      <point x="612.708930605355" y="798"/>
      <point x="789.708930605355" y="798" type="curve" smooth="yes"/>
    </contour>
  </outline>
</glyph>
<glyph name="q" format="2">
  <advance width="1228"/>
  <unicode hex="0071"/>
  <outline>
    <contour>
      <point x="488.8053237502079" y="946"/>
      <point x="273.7138132612672" y="764"/>
      <point x="220.46306508731084" y="462" type="curve" smooth="yes"/>
      <point x="167.21231691335439" y="160"/>
      <point x="318.1208064244138" y="-22"/>
      <point x="565.1208064244138" y="-22" type="curve" smooth="yes"/>
      <point x="698.1208064244138" y="-22"/>
      <point x="813.229406209047" y="41"/>
      <point x="911.2147582413105" y="143" type="curve"/>
      <point x="827.2831154240812" y="-333" type="line" smooth="yes"/>
      <point x="819.1720743114918" y="-379"/>
      <point x="833.8218616780309" y="-398"/>
      <point x="889.8218616780309" y="-398" type="curve" smooth="yes"/>
      <point x="891.8218616780309" y="-398" type="line" smooth="yes"/>
      <point x="947.8218616780309" y="-398"/>
      <point x="969.1720743114918" y="-379"/>
      <point x="977.2831154240812" y="-333" type="curve" smooth="yes"/>
      <point x="1189.2281462356561" y="869" type="line" smooth="yes"/>
      <point x="1197.3391873482456" y="915"/>
      <point x="1184.6893999817062" y="934"/>
      <point x="1131.6893999817062" y="934" type="curve" smooth="yes"/>
      <point x="1129.6893999817062" y="934" type="line" smooth="yes"/>
      <point x="1076.6893999817062" y="934"/>
      <point x="1057.3391873482456" y="915"/>
      <point x="1049.2281462356561" y="869" type="curve" smooth="yes"/>
      <point x="1032.8297370297687" y="776" type="line"/>
      <point x="969.6967239655746" y="883"/>
      <point x="868.8053237502079" y="946"/>
      <point x="735.8053237502079" y="946" type="curve" smooth="yes"/>
    </contour>
    <contour>
      <point x="896.708930605355" y="798"/>
      <point x="1004.8443849975054" y="674"/>
      <point x="967.4630650873108" y="462" type="curve" smooth="yes"/>
      <point x="930.0817451771162" y="250"/>
      <point x="778.2171995692665" y="126"/>
      <point x="601.2171995692665" y="126" type="curve" smooth="yes"/>
      <point x="420.2171995692666" y="126"/>
      <point x="339.9029768684517" y="266"/>
      <point x="374.46306508731084" y="462" type="curve" smooth="yes"/>
      <point x="409.02315330616995" y="658"/>
      <point x="538.708930605355" y="798"/>
      <point x="719.708930605355" y="798" type="curve" smooth="yes"/>
    </contour>
  </outline>
</glyph>
<glyph name="r" format="2">
  <advance width="1228"/>
  <unicode hex="0072"/>
  <outline>
    <contour>
      <point x="558.7913057691668" y="634.0" type="curve"/>
      <point x="600.228146235656" y="869.0" type="line" smooth="yes"/>
      <point x="608.3391873482454" y="915.0"/>
      <point x="595.6893999817063" y="934.0"/>
      <point x="542.6893999817063" y="934.0" type="curve" smooth="yes"/>
      <point x="540.6893999817063" y="934.0" type="line" smooth="yes"/>
      <point x="487.6893999817063" y="934.0"/>
      <point x="468.33918734824545" y="915.0"/>
      <point x="460.228146235656" y="869.0" type="curve" smooth="yes"/>
      <point x="316.6979839389656" y="55.0" type="line" smooth="yes"/>
      <point x="308.5869428263762" y="9.0"/>
      <point x="323.23673019291533" y="-10.0"/>
      <point x="379.23673019291533" y="-10.0" type="curve" smooth="yes"/>
      <point x="381.23673019291533" y="-10.0" type="line" smooth="yes"/>
      <point x="437.23673019291533" y="-10.0"/>
      <point x="458.5869428263762" y="9.0"/>
      <point x="466.6979839389656" y="55.0" type="curve" smooth="yes"/>
      <point x="504.60828479128554" y="270.0" type="line" smooth="yes"/>
      <point x="554.6851473124896" y="554.0"/>
      <point x="801.5930068368534" y="786.0"/>
      <point x="1034.5930068368534" y="786.0" type="curve" smooth="yes"/>
      <point x="1070.5930068368534" y="786.0"/>
      <point x="1106.5350449526027" y="780.0"/>
      <point x="1141.4191211841012" y="768.0" type="curve" smooth="yes"/>
      <point x="1180.9505434541825" y="754.0"/>
      <point x="1205.1823909911857" y="778.0"/>
      <point x="1227.3513939880258" y="830.0" type="curve" smooth="yes"/>
      <point x="1248.1677430234492" y="880.0"/>
      <point x="1239.6338794254116" y="911.0"/>
      <point x="1199.10245715533" y="925.0" type="curve" smooth="yes"/>
      <point x="1157.5710348852485" y="939.0"/>
      <point x="1114.805323750208" y="946.0"/>
      <point x="1071.805323750208" y="946.0" type="curve" smooth="yes"/>
      <point x="892.8053237502079" y="946.0"/>
      <point x="706.998740026609" y="828.0"/>
    </contour>
  </outline>
</glyph>
<glyph name="s" format="2">
  <advance width="1228"/>
  <unicode hex="0073"/>
  <outline>
    <contour>
      <point x="909.1208064244138" y="-22"/>
      <point x="1065.2800441094296" y="98"/>
      <point x="1096.842573656245" y="277" type="curve" smooth="yes"/>
      <point x="1119.0597732255114" y="403"/>
      <point x="1061.344699990853" y="467"/>
      <point x="972.5161443156494" y="502" type="curve" smooth="yes"/>
      <point x="836.0378012739066" y="556"/>
      <point x="627.5692235439881" y="542"/>
      <point x="522.9169948494928" y="578" type="curve" smooth="yes"/>
      <point x="478.56189956011974" y="593"/>
      <point x="452.7937470971229" y="617"/>
      <point x="460.3758072675869" y="660" type="curve" smooth="yes"/>
      <point x="476.7742164734741" y="753"/>
      <point x="572.2379115474805" y="801"/>
      <point x="711.2379115474805" y="801" type="curve" smooth="yes"/>
      <point x="830.2379115474805" y="801"/>
      <point x="942.1244291069349" y="772"/>
      <point x="1038.6027721486778" y="718" type="curve" smooth="yes"/>
      <point x="1068.605213476634" y="701"/>
      <point x="1097.6631753608847" y="707"/>
      <point x="1129.8321783577248" y="759" type="curve" smooth="yes"/>
      <point x="1160.6485273931482" y="809"/>
      <point x="1152.1146637951106" y="840"/>
      <point x="1117.4648764285714" y="859" type="curve" smooth="yes"/>
      <point x="1007.2208222517878" y="920"/>
      <point x="872.8053237502079" y="946"/>
      <point x="730.8053237502079" y="946" type="curve" smooth="yes"/>
      <point x="518.8053237502079" y="946"/>
      <point x="339.7016066214868" y="849"/>
      <point x="306.3758072675869" y="660" type="curve" smooth="yes"/>
      <point x="285.92187750540495" y="544"/>
      <point x="337.16593168218856" y="483"/>
      <point x="418.9944873573923" y="448" type="curve" smooth="yes"/>
      <point x="553.9438494570098" y="391"/>
      <point x="769.5887541676368" y="406"/>
      <point x="877.7120019200066" y="367" type="curve" smooth="yes"/>
      <point x="924.7144432479628" y="350"/>
      <point x="951.1299417495427" y="324"/>
      <point x="942.8425736562448" y="277" type="curve" smooth="yes"/>
      <point x="926.7968184117744" y="186"/>
      <point x="834.6882186271412" y="123"/>
      <point x="665.6882186271412" y="123" type="curve" smooth="yes"/>
      <point x="533.6882186271412" y="123"/>
      <point x="411.50700899052055" y="156"/>
      <point x="313.2629548137369" y="217" type="curve" smooth="yes"/>
      <point x="284.4368404664893" y="235"/>
      <point x="255.55520556294695" y="230"/>
      <point x="221.56252954681523" y="179" type="curve" smooth="yes"/>
      <point x="188.92250749210044" y="130"/>
      <point x="196.45637109013802" y="99"/>
      <point x="230.75350449526027" y="78" type="curve" smooth="yes"/>
      <point x="346.41061584566773" y="8"/>
      <point x="488.1208064244138" y="-22"/>
      <point x="650.1208064244138" y="-22" type="curve" smooth="yes"/>
    </contour>
  </outline>
</glyph>
<glyph name="v" format="2">
  <advance width="1228"/>
  <unicode hex="0076"/>
  <outline>
    <contour>
      <point x="1165.805323750208" y="946"/>
      <point x="1139.3947079045402" y="938"/>
      <point x="1111.6363207533677" y="894" type="curve" smooth="yes"/>
      <point x="639.2147582413105" y="143" type="line"/>
      <point x="431.6363207533677" y="894" type="line" smooth="yes"/>
      <point x="419.39470790454016" y="938"/>
      <point x="395.8053237502079" y="946"/>
      <point x="339.9261301746217" y="924" type="curve" smooth="yes"/>
      <point x="284.0469365990354" y="902"/>
      <point x="267.63876208132376" y="877"/>
      <point x="279.88037493015133" y="833" type="curve" smooth="yes"/>
      <point x="503.0530792283386" y="40" type="line" smooth="yes"/>
      <point x="515.4710190578746" y="-3"/>
      <point x="544.1208064244138" y="-22"/>
      <point x="610.1208064244138" y="-22" type="curve"/>
      <point x="676.1208064244138" y="-22"/>
      <point x="711.4710190578746" y="-3"/>
      <point x="739.0530792283386" y="40" type="curve" smooth="yes"/>
      <point x="1241.8803749301514" y="833" type="line" smooth="yes"/>
      <point x="1269.6387620813239" y="877"/>
      <point x="1262.0469365990355" y="902"/>
      <point x="1213.9261301746217" y="924" type="curve" smooth="yes"/>
    </contour>
  </outline>
</glyph>
<glyph name="w" format="2">
  <advance width="1228"/>
  <unicode hex="0077"/>
  <outline>
    <contour>
      <point x="1178.6967239655746" y="883.0" type="curve" smooth="yes"/>
      <point x="901.0286659487776" y="210.0" type="line"/>
      <point x="820.0109466663895" y="743.0" type="line" smooth="yes"/>
      <point x="815.5954481648096" y="769.0"/>
      <point x="797.2983147596874" y="790.0"/>
      <point x="753.2983147596874" y="790.0" type="curve" smooth="yes"/>
      <point x="709.2983147596874" y="790.0"/>
      <point x="683.5954481648096" y="769.0"/>
      <point x="670.0109466663895" y="743.0" type="curve" smooth="yes"/>
      <point x="401.02866594877764" y="210.0" type="line"/>
      <point x="360.69672396557456" y="883.0" type="line" smooth="yes"/>
      <point x="357.9840920588724" y="930.0"/>
      <point x="338.9236888466655" y="941.0"/>
      <point x="281.9840920588724" y="930.0" type="curve" smooth="yes"/>
      <point x="224.0444952710793" y="919.0"/>
      <point x="207.9889747147846" y="896.0"/>
      <point x="211.70160662148677" y="849.0" type="curve" smooth="yes"/>
      <point x="268.582060170464" y="43.0" type="line" smooth="yes"/>
      <point x="272.29469207716613" y="-4.0"/>
      <point x="288.1208064244138" y="-22.0"/>
      <point x="339.1208064244138" y="-22.0" type="curve" smooth="yes"/>
      <point x="396.1208064244138" y="-22.0"/>
      <point x="429.4710190578746" y="-3.0"/>
      <point x="452.582060170464" y="43.0" type="curve" smooth="yes"/>
      <point x="711.8614742931981" y="555.0" type="line"/>
      <point x="790.582060170464" y="43.0" type="line" smooth="yes"/>
      <point x="797.4710190578746" y="-3.0"/>
      <point x="824.1208064244138" y="-22.0"/>
      <point x="881.1208064244138" y="-22.0" type="curve" smooth="yes"/>
      <point x="932.1208064244138" y="-22.0"/>
      <point x="954.2946920771661" y="-4.0"/>
      <point x="974.582060170464" y="43.0" type="curve" smooth="yes"/>
      <point x="1315.7016066214867" y="849.0" type="line" smooth="yes"/>
      <point x="1335.9889747147845" y="896.0"/>
      <point x="1328.0444952710793" y="919.0"/>
      <point x="1273.9840920588724" y="930.0" type="curve" smooth="yes"/>
      <point x="1220.9236888466655" y="941.0"/>
      <point x="1197.9840920588724" y="930.0"/>
    </contour>
  </outline>
</glyph>
<glyph name="x" format="2">
  <advance width="1228"/>
  <unicode hex="0078"/>
  <outline>
    <contour>
      <point x="1131.9816507309163" y="947"/>
      <point x="1103.6289967694993" y="945"/>
      <point x="1066.2812254639946" y="909" type="curve" smooth="yes"/>
      <point x="693.9798393896557" y="550" type="line"/>
      <point x="643.3373760069849" y="518" type="line"/>
      <point x="199.69310128305338" y="89" type="line" smooth="yes"/>
      <point x="162.1690029968402" y="52"/>
      <point x="168.70286659487778" y="21"/>
      <point x="211.0" y="0" type="curve" smooth="yes"/>
      <point x="257.9444794437053" y="-23"/>
      <point x="286.2971334051222" y="-21"/>
      <point x="323.644904710627" y="15" type="curve" smooth="yes"/>
      <point x="718.530792283386" y="400" type="line"/>
      <point x="773.7022366081823" y="435" type="line"/>
      <point x="1190.2330288915682" y="835" type="line" smooth="yes"/>
      <point x="1228.7571271777815" y="872"/>
      <point x="1221.2232635797438" y="903"/>
      <point x="1178.9261301746217" y="924" type="curve" smooth="yes"/>
    </contour>
    <contour>
      <point x="337.22326357974384" y="903"/>
      <point x="318.75712717778146" y="872"/>
      <point x="344.23302889156827" y="835" type="curve" smooth="yes"/>
      <point x="619.7022366081823" y="435" type="line"/>
      <point x="662.530792283386" y="400" type="line"/>
      <point x="921.644904710627" y="15" type="line" smooth="yes"/>
      <point x="946.2971334051223" y="-21"/>
      <point x="973.9444794437053" y="-23"/>
      <point x="1029.0" y="0" type="curve" smooth="yes"/>
      <point x="1078.7028665948778" y="21"/>
      <point x="1096.1690029968402" y="52"/>
      <point x="1071.6931012830535" y="89" type="curve" smooth="yes"/>
      <point x="779.3373760069849" y="518" type="line"/>
      <point x="739.9798393896557" y="550" type="line"/>
      <point x="494.2812254639947" y="909" type="line" smooth="yes"/>
      <point x="469.6289967694994" y="945"/>
      <point x="441.98165073091633" y="947"/>
      <point x="386.9261301746217" y="924" type="curve" smooth="yes"/>
    </contour>
  </outline>
</glyph>
<glyph name="y" format="2">
  <advance width="1228"/>
  <unicode hex="0079"/>
  <outline>
    <contour>
      <point x="1111.6363207533677" y="894.0" type="curve" smooth="yes"/>
      <point x="652.2049929294861" y="211.0" type="line"/>
      <point x="431.6363207533677" y="894.0" type="line" smooth="yes"/>
      <point x="417.21838092383166" y="937.0"/>
      <point x="395.8053237502079" y="946.0"/>
      <point x="339.9261301746217" y="924.0" type="curve" smooth="yes"/>
      <point x="284.0469365990354" y="902.0"/>
      <point x="265.4624351006153" y="876.0"/>
      <point x="279.88037493015133" y="833.0" type="curve" smooth="yes"/>
      <point x="537.4266277185538" y="43.0572509765625" type="line"/>
      <point x="306.6308867295859" y="-297.0" type="line" smooth="yes"/>
      <point x="277.0488265591219" y="-340.0"/>
      <point x="284.4643250607018" y="-366.0"/>
      <point x="332.5851314851156" y="-388.0" type="curve" smooth="yes"/>
      <point x="380.7059379095293" y="-410.0"/>
      <point x="404.29288073590556" y="-401.0"/>
      <point x="433.87494090636955" y="-358.0" type="curve" smooth="yes"/>
      <point x="1240.8803749301514" y="833.0" type="line" smooth="yes"/>
      <point x="1270.4624351006153" y="876.0"/>
      <point x="1262.0469365990355" y="902.0"/>
      <point x="1213.9261301746217" y="924.0" type="curve" smooth="yes"/>
      <point x="1165.805323750208" y="946.0"/>
      <point x="1140.2183809238318" y="937.0"/>
    </contour>
  </outline>
</glyph>
<glyph name="z" format="2">
  <advance width="1228"/>
  <unicode hex="007A"/>
  <outline>
    <contour>
      <point x="965.9261301746217" y="924" type="line"/>
      <point x="941.9456607982704" y="788" type="line"/>
      <point x="211.92494882005656" y="113" type="line" smooth="yes"/>
      <point x="199.98535203226342" y="102"/>
      <point x="193.34044732163645" y="87"/>
      <point x="189.99023468817563" y="68" type="curve" smooth="yes"/>
      <point x="181.17388565275238" y="18"/>
      <point x="196.0" y="0"/>
      <point x="241.0" y="0" type="curve" smooth="yes"/>
      <point x="415.0" y="0" type="line"/>
      <point x="438.98046937635127" y="136" type="line"/>
      <point x="1167.8248543738566" y="810" type="line" smooth="yes"/>
      <point x="1178.5881241809413" y="820"/>
      <point x="1187.2330288915682" y="835"/>
      <point x="1190.935895486446" y="856" type="curve" smooth="yes"/>
      <point x="1199.7522445218692" y="906"/>
      <point x="1184.9261301746217" y="924"/>
      <point x="1139.9261301746217" y="924" type="curve" smooth="yes"/>
    </contour>
    <contour>
      <point x="356.39108522201894" y="144" type="line"/>
      <point x="331.0" y="0" type="line"/>
      <point x="987.0" y="0" type="line" smooth="yes"/>
      <point x="1032.0" y="0"/>
      <point x="1053.5265396141692" y="20"/>
      <point x="1062.6955426110094" y="72" type="curve" smooth="yes"/>
      <point x="1071.8645456078495" y="124"/>
      <point x="1057.391085222019" y="144"/>
      <point x="1012.391085222019" y="144" type="curve" smooth="yes"/>
    </contour>
    <contour>
      <point x="423.9261301746217" y="924" type="line" smooth="yes"/>
      <point x="378.9261301746217" y="924"/>
      <point x="357.39959056045234" y="904"/>
      <point x="348.2305875636122" y="852" type="curve" smooth="yes"/>
      <point x="339.061584566772" y="800"/>
      <point x="353.5350449526027" y="780"/>
      <point x="398.5350449526027" y="780" type="curve" smooth="yes"/>
      <point x="1026.5350449526027" y="780" type="line"/>
      <point x="1051.9261301746217" y="924" type="line"/>
    </contour>
  </outline>
</glyph>
<glyph name="braceleft" format="2">
  <advance width="1228"/>
  <unicode hex="007B"/>
  <outline>
    <contour>
      <point x="674.0975744994179" y="959.0" type="curve" smooth="yes"/>
      <point x="666.0493779269915" y="885.0" type="line" smooth="yes"/>
      <point x="647.4264451679694" y="717.0"/>
      <point x="551.0884391742891" y="613.0"/>
      <point x="348.088439174289" y="613.0" type="curve" smooth="yes"/>
      <point x="303.088439174289" y="613.0"/>
      <point x="281.56189956011974" y="593.0"/>
      <point x="272.3928965632796" y="541.0" type="curve" smooth="yes"/>
      <point x="263.22389356643936" y="489.0"/>
      <point x="277.6973539522701" y="469.0"/>
      <point x="322.6973539522701" y="469.0" type="curve" smooth="yes"/>
      <point x="535.6973539522701" y="469.0"/>
      <point x="597.2989447463829" y="376.0"/>
      <point x="551.7943770838184" y="203.0" type="curve" smooth="yes"/>
      <point x="519.1061584566772" y="80.0" type="line" smooth="yes"/>
      <point x="444.55827687759853" y="-201.0"/>
      <point x="589.2831154240812" y="-333.0"/>
      <point x="868.2831154240812" y="-333.0" type="curve" smooth="yes"/>
      <point x="913.2831154240812" y="-333.0"/>
      <point x="934.8096550382504" y="-313.0"/>
      <point x="943.9786580350907" y="-261.0" type="curve" smooth="yes"/>
      <point x="953.1476610319309" y="-209.0"/>
      <point x="938.6742006461001" y="-189.0"/>
      <point x="893.6742006461001" y="-189.0" type="curve" smooth="yes"/>
      <point x="691.6742006461001" y="-189.0"/>
      <point x="623.4856670256112" y="-105.0"/>
      <point x="671.2220822251787" y="92.0" type="curve" smooth="yes"/>
      <point x="700.557646890903" y="213.0" type="line" smooth="yes"/>
      <point x="739.9462907849659" y="374.0"/>
      <point x="693.8132777207717" y="481.0"/>
      <point x="519.5112616597372" y="536.0" type="curve"/>
      <point x="521.2745314668218" y="546.0" type="line"/>
      <point x="703.441093135706" y="615.0"/>
      <point x="791.0737912065524" y="715.0"/>
      <point x="812.2861081199069" y="875.0" type="curve" smooth="yes"/>
      <point x="821.9816507309163" y="947.0" type="line" smooth="yes"/>
      <point x="848.5417389497754" y="1143.0"/>
      <point x="931.5295323099949" y="1228.0"/>
      <point x="1143.529532309995" y="1228.0" type="curve" smooth="yes"/>
      <point x="1188.529532309995" y="1228.0"/>
      <point x="1210.0560719241644" y="1248.0"/>
      <point x="1219.2250749210045" y="1300.0" type="curve" smooth="yes"/>
      <point x="1228.3940779178447" y="1352.0"/>
      <point x="1213.920617532014" y="1372.0"/>
      <point x="1168.920617532014" y="1372.0" type="curve" smooth="yes"/>
      <point x="889.9206175320139" y="1372.0"/>
      <point x="704.6454560784966" y="1240.0"/>
    </contour>
  </outline>
</glyph>
<glyph name="bar" format="2">
  <advance width="1228"/>
  <unicode hex="007C"/>
  <outline>
    <contour>
      <point x="803.7998111076001" y="1394"/>
      <point x="781.4495984741393" y="1375"/>
      <point x="773.33855736155" y="1329" type="curve" smooth="yes"/>
      <point x="487.8651755945452" y="-290" type="line" smooth="yes"/>
      <point x="479.75413448195576" y="-336"/>
      <point x="495.4039218484949" y="-355"/>
      <point x="551.403921848495" y="-355" type="curve" smooth="yes"/>
      <point x="607.403921848495" y="-355"/>
      <point x="629.7541344819558" y="-336"/>
      <point x="637.8651755945451" y="-290" type="curve" smooth="yes"/>
      <point x="923.33855736155" y="1329" type="line" smooth="yes"/>
      <point x="931.4495984741393" y="1375"/>
      <point x="915.7998111076001" y="1394"/>
      <point x="859.7998111076001" y="1394" type="curve" smooth="yes"/>
    </contour>
  </outline>
</glyph>
<glyph name="asciitilde" format="2">
  <advance width="1228"/>
  <unicode hex="007E"/>
  <outline>
    <contour>
      <point x="440.60033082072175" y="735"/>
      <point x="334.4337691518377" y="666"/>
      <point x="257.1537250424081" y="568" type="curve" smooth="yes"/>
      <point x="237.74555052469648" y="543"/>
      <point x="241.632068084151" y="514"/>
      <point x="268.5765475278563" y="491" type="curve" smooth="yes"/>
      <point x="296.34469999085314" y="467"/>
      <point x="325.6973539522701" y="469"/>
      <point x="349.9292014892732" y="493" type="curve" smooth="yes"/>
      <point x="405.6271854282388" y="548"/>
      <point x="460.74066786878427" y="577"/>
      <point x="519.7406678687843" y="577" type="curve" smooth="yes"/>
      <point x="642.7406678687843" y="577"/>
      <point x="722.6442747239315" y="429"/>
      <point x="885.6442747239315" y="429" type="curve" smooth="yes"/>
      <point x="992.6442747239315" y="429"/>
      <point x="1098.8108363928156" y="498"/>
      <point x="1176.0908805022452" y="596" type="curve" smooth="yes"/>
      <point x="1195.4990550199568" y="621"/>
      <point x="1191.6125374605022" y="650"/>
      <point x="1164.668058016797" y="673" type="curve" smooth="yes"/>
      <point x="1136.8999055538002" y="697"/>
      <point x="1107.5472515923832" y="695"/>
      <point x="1083.31540405538" y="671" type="curve" smooth="yes"/>
      <point x="1027.6174201164145" y="616"/>
      <point x="972.5039376758689" y="587"/>
      <point x="913.5039376758689" y="587" type="curve" smooth="yes"/>
      <point x="789.5039376758689" y="587"/>
      <point x="710.6003308207218" y="735"/>
      <point x="547.6003308207218" y="735" type="curve" smooth="yes"/>
    </contour>
  </outline>
</glyph>
<glyph name="cent" format="2">
  <advance width="1228"/>
  <unicode hex="00A2"/>
  <outline>
    <contour>
      <point x="826.340998689506" y="1312"/>
      <point x="801.9907860560452" y="1293"/>
      <point x="793.8797449434558" y="1247" type="curve" smooth="yes"/>
      <point x="563.4203811574921" y="-60" type="line" smooth="yes"/>
      <point x="555.3093400449027" y="-106"/>
      <point x="572.9591274114418" y="-125"/>
      <point x="621.9591274114418" y="-125" type="curve" smooth="yes"/>
      <point x="670.9591274114418" y="-125"/>
      <point x="695.3093400449027" y="-106"/>
      <point x="703.4203811574921" y="-60" type="curve" smooth="yes"/>
      <point x="933.8797449434558" y="1247" type="line" smooth="yes"/>
      <point x="941.9907860560452" y="1293"/>
      <point x="924.340998689506" y="1312"/>
      <point x="875.340998689506" y="1312" type="curve" smooth="yes"/>
    </contour>
    <component base="c" xOffset="24.685777299185098" yOffset="140"/>
  </outline>
</glyph>
<glyph name="sterling" format="2">
  <advance width="1228"/>
  <unicode hex="00A3"/>
  <outline>
    <contour>
      <point x="636.1793196765342" y="1209"/>
      <point x="478.49354237734906" y="1069"/>
      <point x="445.873050946283" y="884" type="curve" smooth="yes"/>
      <point x="415.54481026442704" y="712"/>
      <point x="535.148842386496" y="602"/>
      <point x="507.46550641526693" y="445" type="curve" smooth="yes"/>
      <point x="489.12750042158655" y="341"/>
      <point x="434.7870530999501" y="254"/>
      <point x="297.33312333776814" y="138" type="curve" smooth="yes"/>
      <point x="280.86454560784966" y="124"/>
      <point x="273.74862183934806" y="112"/>
      <point x="270.75106316730415" y="95" type="curve" smooth="yes"/>
      <point x="263.34532997754866" y="53"/>
      <point x="277.0" y="0"/>
      <point x="308.0" y="0" type="curve" smooth="yes"/>
      <point x="915.0" y="0" type="line" smooth="yes"/>
      <point x="960.0" y="0"/>
      <point x="981.5265396141693" y="20"/>
      <point x="990.6955426110095" y="72" type="curve" smooth="yes"/>
      <point x="999.8645456078497" y="124"/>
      <point x="985.391085222019" y="144"/>
      <point x="940.391085222019" y="144" type="curve" smooth="yes"/>
      <point x="481.39108522201894" y="144" type="line"/>
      <point x="578.6131674471977" y="236"/>
      <point x="640.2458655180442" y="336"/>
      <point x="659.6418333959754" y="446" type="curve" smooth="yes"/>
      <point x="695.2598834990853" y="648"/>
      <point x="575.3636006278064" y="745"/>
      <point x="599.873050946283" y="884" type="curve" smooth="yes"/>
      <point x="617.1530950557126" y="982"/>
      <point x="700.0829265316813" y="1061"/>
      <point x="814.0829265316813" y="1061" type="curve" smooth="yes"/>
      <point x="898.0829265316813" y="1061"/>
      <point x="970.4984250332612" y="1035"/>
      <point x="1030.5637109013803" y="990" type="curve" smooth="yes"/>
      <point x="1056.2134982679195" y="971"/>
      <point x="1087.2134982679195" y="971"/>
      <point x="1123.0298473033426" y="1021" type="curve" smooth="yes"/>
      <point x="1160.0225233194744" y="1072"/>
      <point x="1153.9596787793114" y="1100"/>
      <point x="1122.8388723548976" y="1122" type="curve" smooth="yes"/>
      <point x="1046.3605293131548" y="1176"/>
      <point x="952.1793196765342" y="1209"/>
      <point x="841.1793196765342" y="1209" type="curve" smooth="yes"/>
    </contour>
    <contour>
      <point x="397.2598834990853" y="648" type="line" smooth="yes"/>
      <point x="352.2598834990853" y="648"/>
      <point x="330.733343884916" y="628"/>
      <point x="321.56434088807583" y="576" type="curve" smooth="yes"/>
      <point x="312.3953378912356" y="524"/>
      <point x="326.86879827706633" y="504"/>
      <point x="371.86879827706633" y="504" type="curve" smooth="yes"/>
      <point x="903.8687982770664" y="504" type="line" smooth="yes"/>
      <point x="948.8687982770664" y="504"/>
      <point x="970.3953378912356" y="524"/>
      <point x="979.5643408880758" y="576" type="curve" smooth="yes"/>
      <point x="988.733343884916" y="628"/>
      <point x="974.2598834990853" y="648"/>
      <point x="929.2598834990853" y="648" type="curve" smooth="yes"/>
    </contour>
  </outline>
</glyph>
<glyph name="currency" format="2">
  <advance width="1228"/>
  <unicode hex="00A4"/>
  <outline>
    <contour>
      <point x="557.3849425927158" y="1006"/>
      <point x="351.4093558722767" y="836"/>
      <point x="310.1488423864959" y="602" type="curve" smooth="yes"/>
      <point x="268.8883289007151" y="368"/>
      <point x="414.91274218027604" y="198"/>
      <point x="648.912742180276" y="198" type="curve" smooth="yes"/>
      <point x="882.912742180276" y="198"/>
      <point x="1088.8883289007151" y="368"/>
      <point x="1130.148842386496" y="602" type="curve" smooth="yes"/>
      <point x="1171.4093558722766" y="836"/>
      <point x="1025.3849425927158" y="1006"/>
      <point x="791.3849425927158" y="1006" type="curve" smooth="yes"/>
    </contour>
    <contour>
      <point x="173.49724367869615" y="224" type="line" smooth="yes"/>
      <point x="135.85478029602527" y="192"/>
      <point x="132.09395181689672" y="165"/>
      <point x="162.56985353068353" y="128" type="curve" smooth="yes"/>
      <point x="193.0457552444703" y="91"/>
      <point x="219.86942826376185" y="90"/>
      <point x="257.51189164643273" y="122" type="curve" smooth="yes"/>
      <point x="493.9536147688342" y="323" type="line"/>
      <point x="409.93896680109765" y="425" type="line"/>
    </contour>
    <contour>
      <point x="847.9536147688342" y="323" type="line"/>
      <point x="1013.5118916464327" y="122" type="line" smooth="yes"/>
      <point x="1039.8694282637618" y="90"/>
      <point x="1067.0457552444702" y="91"/>
      <point x="1110.5698535306835" y="128" type="curve" smooth="yes"/>
      <point x="1154.0939518168966" y="165"/>
      <point x="1159.8547802960252" y="192"/>
      <point x="1133.4972436786961" y="224" type="curve" smooth="yes"/>
      <point x="967.9389668010976" y="425" type="line"/>
    </contour>
    <contour>
      <point x="946.3440700041576" y="881" type="line"/>
      <point x="1030.3587179718943" y="779" type="line"/>
      <point x="1266.8004410942956" y="980" type="line" smooth="yes"/>
      <point x="1304.4429044769665" y="1012"/>
      <point x="1308.203732956095" y="1039"/>
      <point x="1277.7278312423084" y="1076" type="curve" smooth="yes"/>
      <point x="1247.2519295285215" y="1113"/>
      <point x="1220.4282565092299" y="1114"/>
      <point x="1182.7857931265592" y="1082" type="curve" smooth="yes"/>
    </contour>
    <contour>
      <point x="400.42825650923" y="1114"/>
      <point x="373.2519295285215" y="1113"/>
      <point x="329.7278312423083" y="1076" type="curve" smooth="yes"/>
      <point x="286.2037329560951" y="1039"/>
      <point x="280.44290447696653" y="1012"/>
      <point x="306.8004410942957" y="980" type="curve" smooth="yes"/>
      <point x="472.3587179718942" y="779" type="line"/>
      <point x="592.3440700041576" y="881" type="line"/>
      <point x="426.7857931265591" y="1082" type="line" smooth="yes"/>
    </contour>
    <contour>
      <point x="923.3465113321138" y="864"/>
      <point x="1008.9505434541826" y="754"/>
      <point x="982.148842386496" y="602" type="curve" smooth="yes"/>
      <point x="955.3471413188092" y="450"/>
      <point x="830.951173440878" y="340"/>
      <point x="673.951173440878" y="340" type="curve" smooth="yes"/>
      <point x="516.951173440878" y="340"/>
      <point x="431.34714131880924" y="450"/>
      <point x="458.1488423864959" y="602" type="curve" smooth="yes"/>
      <point x="484.9505434541826" y="754"/>
      <point x="609.3465113321138" y="864"/>
      <point x="766.3465113321138" y="864" type="curve" smooth="yes"/>
    </contour>
  </outline>
</glyph>
<glyph name="yen" format="2">
  <advance width="1228"/>
  <unicode hex="00A5"/>
  <outline>
    <contour>
      <point x="309.52590962747377" y="434" type="line" smooth="yes"/>
      <point x="264.52590962747377" y="434"/>
      <point x="242.99937001330449" y="414"/>
      <point x="233.83036701646432" y="362" type="curve" smooth="yes"/>
      <point x="224.66136401962416" y="310"/>
      <point x="239.13482440545485" y="290"/>
      <point x="284.1348244054548" y="290" type="curve" smooth="yes"/>
      <point x="1046.1348244054548" y="290" type="line" smooth="yes"/>
      <point x="1091.1348244054548" y="290"/>
      <point x="1112.6613640196242" y="310"/>
      <point x="1121.8303670164644" y="362" type="curve" smooth="yes"/>
      <point x="1130.9993700133045" y="414"/>
      <point x="1116.5259096274738" y="434"/>
      <point x="1071.5259096274738" y="434" type="curve" smooth="yes"/>
    </contour>
    <contour>
      <point x="344.187273647098" y="744" type="line" smooth="yes"/>
      <point x="299.187273647098" y="744"/>
      <point x="277.66073403292864" y="724"/>
      <point x="268.4917310360885" y="672" type="curve" smooth="yes"/>
      <point x="259.3227280392483" y="620"/>
      <point x="273.796188425079" y="600"/>
      <point x="318.796188425079" y="600" type="curve" smooth="yes"/>
      <point x="659.796188425079" y="600" type="line"/>
      <point x="603.187273647098" y="744" type="line"/>
    </contour>
    <contour>
      <point x="899.187273647098" y="744" type="line"/>
      <point x="779.796188425079" y="600" type="line"/>
      <point x="1120.796188425079" y="600" type="line" smooth="yes"/>
      <point x="1165.796188425079" y="600"/>
      <point x="1187.3227280392482" y="620"/>
      <point x="1196.4917310360884" y="672" type="curve" smooth="yes"/>
      <point x="1205.6607340329288" y="724"/>
      <point x="1191.187273647098" y="744"/>
      <point x="1146.187273647098" y="744" type="curve" smooth="yes"/>
    </contour>
    <contour>
      <point x="636.3324933510727" y="552" type="line"/>
      <point x="548.6979839389655" y="55" type="line" smooth="yes"/>
      <point x="540.5869428263762" y="9"/>
      <point x="555.2367301929154" y="-10"/>
      <point x="611.2367301929154" y="-10" type="curve" smooth="yes"/>
      <point x="613.2367301929154" y="-10" type="line" smooth="yes"/>
      <point x="669.2367301929154" y="-10"/>
      <point x="690.5869428263762" y="9"/>
      <point x="698.6979839389655" y="55" type="curve" smooth="yes"/>
      <point x="786.3324933510727" y="552" type="line"/>
    </contour>
    <contour>
      <point x="1218.3556466572427" y="1210"/>
      <point x="1189.4740117537003" y="1205"/>
      <point x="1161.655221390321" y="1172" type="curve" smooth="yes"/>
      <point x="662.9773980616997" y="567" type="line"/>
      <point x="752.1104111258938" y="460" type="line"/>
      <point x="1281.2543708564776" y="1096" type="line" smooth="yes"/>
      <point x="1314.3074500848163" y="1136"/>
      <point x="1312.0682785639447" y="1163"/>
      <point x="1264.3001261009479" y="1187" type="curve" smooth="yes"/>
    </contour>
    <contour>
      <point x="326.0682785639448" y="1163"/>
      <point x="314.3074500848162" y="1136"/>
      <point x="333.25437085647764" y="1096" type="curve" smooth="yes"/>
      <point x="631.402661875104" y="473" type="line"/>
      <point x="768.7431091967404" y="560" type="line"/>
      <point x="479.65522139032095" y="1172" type="line" smooth="yes"/>
      <point x="464.4740117537003" y="1205"/>
      <point x="436.35564665724263" y="1210"/>
      <point x="382.3001261009479" y="1187" type="curve" smooth="yes"/>
    </contour>
  </outline>
</glyph>
<glyph name="brokenbar" format="2">
  <advance width="1228"/>
  <unicode hex="00A6"/>
  <outline>
    <contour>
      <point x="803.7998111076001" y="1394"/>
      <point x="781.4495984741393" y="1375"/>
      <point x="773.33855736155" y="1329" type="curve" smooth="yes"/>
      <point x="667.7186959171795" y="730" type="line" smooth="yes"/>
      <point x="659.6076548045901" y="684"/>
      <point x="675.2574421711292" y="665"/>
      <point x="731.2574421711292" y="665" type="curve" smooth="yes"/>
      <point x="787.2574421711292" y="665"/>
      <point x="809.6076548045901" y="684"/>
      <point x="817.7186959171795" y="730" type="curve" smooth="yes"/>
      <point x="923.33855736155" y="1329" type="line" smooth="yes"/>
      <point x="931.4495984741393" y="1375"/>
      <point x="915.7998111076001" y="1394"/>
      <point x="859.7998111076001" y="1394" type="curve" smooth="yes"/>
    </contour>
    <contour>
      <point x="623.9462907849659" y="374"/>
      <point x="601.596078151505" y="355"/>
      <point x="593.4850370389157" y="309" type="curve" smooth="yes"/>
      <point x="487.8651755945452" y="-290" type="line" smooth="yes"/>
      <point x="479.75413448195576" y="-336"/>
      <point x="495.4039218484949" y="-355"/>
      <point x="551.403921848495" y="-355" type="curve" smooth="yes"/>
      <point x="607.403921848495" y="-355"/>
      <point x="629.7541344819558" y="-336"/>
      <point x="637.8651755945451" y="-290" type="curve" smooth="yes"/>
      <point x="743.4850370389157" y="309" type="line" smooth="yes"/>
      <point x="751.596078151505" y="355"/>
      <point x="735.9462907849659" y="374"/>
      <point x="679.9462907849659" y="374" type="curve" smooth="yes"/>
    </contour>
  </outline>
</glyph>
<glyph name="section" format="2">
  <advance width="1228"/>
  <unicode hex="00A7"/>
  <outline>
    <contour>
      <point x="778.3001261009479" y="1187" type="line" smooth="yes"/>
      <point x="598.3001261009479" y="1187"/>
      <point x="485.6674280301014" y="1087"/>
      <point x="460.98165073091633" y="947" type="curve" smooth="yes"/>
      <point x="438.76445116164973" y="821"/>
      <point x="488.187273647098" y="744"/>
      <point x="569.312962727424" y="688" type="curve" smooth="yes"/>
      <point x="865.9896047014802" y="482" type="line" smooth="yes"/>
      <point x="925.5838715117246" y="440"/>
      <point x="950.2965034184267" y="393"/>
      <point x="939.7168845759188" y="333" type="curve" smooth="yes"/>
      <point x="929.1372657334109" y="273"/>
      <point x="889.3184753700316" y="240"/>
      <point x="829.0286659487776" y="210" type="curve"/>
      <point x="886.3984092058872" y="93" type="line"/>
      <point x="999.683335971229" y="157"/>
      <point x="1074.6735706594045" y="225"/>
      <point x="1093.7168845759188" y="333" type="curve" smooth="yes"/>
      <point x="1114.6997952802262" y="452"/>
      <point x="1077.3349346790287" y="535"/>
      <point x="978.5014963479128" y="604" type="curve" smooth="yes"/>
      <point x="681.8248543738566" y="810" type="line" smooth="yes"/>
      <point x="625.7016066214868" y="849"/>
      <point x="604.0493779269915" y="885"/>
      <point x="614.2763428080825" y="943" type="curve" smooth="yes"/>
      <point x="625.5612695734242" y="1007"/>
      <point x="677.909040878929" y="1043"/>
      <point x="772.909040878929" y="1043" type="curve" smooth="yes"/>
      <point x="1078.9090408789289" y="1043" type="line" smooth="yes"/>
      <point x="1123.9090408789289" y="1043"/>
      <point x="1145.4355804930983" y="1063"/>
      <point x="1154.6045834899385" y="1115" type="curve" smooth="yes"/>
      <point x="1163.7735864867786" y="1167"/>
      <point x="1149.3001261009479" y="1187"/>
      <point x="1104.3001261009479" y="1187" type="curve" smooth="yes"/>
    </contour>
    <contour>
      <point x="397.061584566772" y="800"/>
      <point x="322.0713498785964" y="732"/>
      <point x="303.02803596208213" y="624" type="curve" smooth="yes"/>
      <point x="282.0451252577748" y="505"/>
      <point x="319.4099858589722" y="422"/>
      <point x="418.24342419008815" y="353" type="curve" smooth="yes"/>
      <point x="714.9200661641444" y="147" type="line" smooth="yes"/>
      <point x="771.0433139165142" y="108"/>
      <point x="792.6955426110095" y="72"/>
      <point x="782.4685777299185" y="14" type="curve" smooth="yes"/>
      <point x="771.1836509645767" y="-50"/>
      <point x="718.835879659072" y="-86"/>
      <point x="623.835879659072" y="-86" type="curve" smooth="yes"/>
      <point x="317.835879659072" y="-86" type="line" smooth="yes"/>
      <point x="272.835879659072" y="-86"/>
      <point x="251.3093400449027" y="-106"/>
      <point x="242.14033704806252" y="-158" type="curve" smooth="yes"/>
      <point x="232.97133405122236" y="-210"/>
      <point x="247.44479443705305" y="-230"/>
      <point x="292.4447944370531" y="-230" type="curve" smooth="yes"/>
      <point x="618.444794437053" y="-230" type="line" smooth="yes"/>
      <point x="798.444794437053" y="-230"/>
      <point x="911.0774925078996" y="-130"/>
      <point x="935.7632698070846" y="10" type="curve" smooth="yes"/>
      <point x="957.9804693763513" y="136"/>
      <point x="908.557646890903" y="213"/>
      <point x="827.431957810577" y="269" type="curve" smooth="yes"/>
      <point x="530.7553158365208" y="475" type="line" smooth="yes"/>
      <point x="471.1610490262764" y="517"/>
      <point x="446.44841711957423" y="564"/>
      <point x="457.02803596208213" y="624" type="curve" smooth="yes"/>
      <point x="467.60765480459" y="684"/>
      <point x="507.4264451679694" y="717"/>
      <point x="567.7162545892234" y="747" type="curve"/>
      <point x="510.3465113321138" y="864" type="line"/>
    </contour>
  </outline>
</glyph>
<glyph name="dieresis" format="2">
  <advance width="1228"/>
  <unicode hex="00A8"/>
  <outline>
    <contour>
      <point x="727.8724209595875" y="1298.0" type="line" smooth="yes"/>
      <point x="735.983462072177" y="1344.0"/>
      <point x="720.3336747056378" y="1363.0"/>
      <point x="644.3336747056378" y="1363.0" type="curve" smooth="yes"/>
      <point x="568.3336747056378" y="1363.0"/>
      <point x="545.983462072177" y="1344.0"/>
      <point x="537.8724209595875" y="1298.0" type="curve" smooth="yes"/>
      <point x="514.949913467487" y="1168.0" type="line" smooth="yes"/>
      <point x="506.8388723548977" y="1122.0"/>
      <point x="522.4886597214369" y="1103.0"/>
      <point x="598.4886597214369" y="1103.0" type="curve" smooth="yes"/>
      <point x="674.4886597214369" y="1103.0"/>
      <point x="696.8388723548977" y="1122.0"/>
      <point x="704.949913467487" y="1168.0" type="curve" smooth="yes"/>
    </contour>
    <contour>
      <point x="1147.8724209595875" y="1298.0" type="line" smooth="yes"/>
      <point x="1155.983462072177" y="1344.0"/>
      <point x="1140.3336747056378" y="1363.0"/>
      <point x="1064.3336747056378" y="1363.0" type="curve" smooth="yes"/>
      <point x="988.3336747056378" y="1363.0"/>
      <point x="965.983462072177" y="1344.0"/>
      <point x="957.8724209595875" y="1298.0" type="curve" smooth="yes"/>
      <point x="934.949913467487" y="1168.0" type="line" smooth="yes"/>
      <point x="926.8388723548977" y="1122.0"/>
      <point x="942.4886597214369" y="1103.0"/>
      <point x="1018.4886597214369" y="1103.0" type="curve" smooth="yes"/>
      <point x="1094.4886597214368" y="1103.0"/>
      <point x="1116.8388723548976" y="1122.0"/>
      <point x="1124.949913467487" y="1168.0" type="curve" smooth="yes"/>
    </contour>
  </outline>
</glyph>
<glyph name="copyright" format="2">
  <advance width="1228"/>
  <unicode hex="00A9"/>
  <outline>
    <contour>
      <point x="140.73822654082818" y="594.0" type="curve" smooth="yes"/>
      <point x="80.2580721578247" y="251.0"/>
      <point x="270.1208064244138" y="-22.0"/>
      <point x="610.1208064244138" y="-22.0" type="curve" smooth="yes"/>
      <point x="950.1208064244138" y="-22.0"/>
      <point x="1236.2580721578247" y="251.0"/>
      <point x="1296.7382265408282" y="594.0" type="curve" smooth="yes"/>
      <point x="1357.2183809238318" y="937.0"/>
      <point x="1167.179319676534" y="1209.0"/>
      <point x="827.1793196765342" y="1209.0" type="curve" smooth="yes"/>
      <point x="487.1793196765342" y="1209.0"/>
      <point x="201.2183809238317" y="937.0"/>
    </contour>
    <contour>
      <point x="1174.7382265408282" y="594.0" type="curve" smooth="yes"/>
      <point x="1124.3087100582072" y="308.0"/>
      <point x="902.2800441094296" y="98.0"/>
      <point x="631.2800441094296" y="98.0" type="curve" smooth="yes"/>
      <point x="360.2800441094296" y="98.0"/>
      <point x="212.30871005820723" y="308.0"/>
      <point x="262.7382265408282" y="594.0" type="curve" smooth="yes"/>
      <point x="313.1677430234492" y="880.0"/>
      <point x="535.0200819915184" y="1089.0"/>
      <point x="806.0200819915184" y="1089.0" type="curve" smooth="yes"/>
      <point x="1077.0200819915183" y="1089.0"/>
      <point x="1225.1677430234492" y="880.0"/>
    </contour>
    <contour>
      <point x="419.56189956011974" y="593.0" type="curve" smooth="yes"/>
      <point x="381.4752717270913" y="377.0"/>
      <point x="490.90541819640777" y="249.0"/>
      <point x="672.9054181964078" y="249.0" type="curve" smooth="yes"/>
      <point x="731.9054181964078" y="249.0"/>
      <point x="799.3739959263263" y="263.0"/>
      <point x="859.9584974247464" y="289.0" type="curve" smooth="yes"/>
      <point x="902.1323830774987" y="307.0"/>
      <point x="917.7168845759188" y="333.0"/>
      <point x="909.1226177656744" y="375.0" type="curve" smooth="yes"/>
      <point x="900.5283509554299" y="417.0"/>
      <point x="876.4099858589723" y="422.0"/>
      <point x="840.7650811483452" y="407.0" type="curve" smooth="yes"/>
      <point x="788.885887572759" y="385.0"/>
      <point x="746.1226177656744" y="375.0"/>
      <point x="695.1226177656744" y="375.0" type="curve" smooth="yes"/>
      <point x="594.1226177656744" y="375.0"/>
      <point x="526.9944873573922" y="448.0"/>
      <point x="552.5618995601197" y="593.0" type="curve" smooth="yes"/>
      <point x="578.1293117628471" y="738.0"/>
      <point x="671.0011813545651" y="811.0"/>
      <point x="772.0011813545651" y="811.0" type="curve" smooth="yes"/>
      <point x="823.0011813545651" y="811.0"/>
      <point x="862.2379115474805" y="801.0"/>
      <point x="906.3587179718942" y="779.0" type="curve" smooth="yes"/>
      <point x="936.7138132612672" y="764.0"/>
      <point x="962.5954481648096" y="769.0"/>
      <point x="986.0011813545651" y="811.0" type="curve" smooth="yes"/>
      <point x="1009.4069145443207" y="853.0"/>
      <point x="1002.9914160427408" y="879.0"/>
      <point x="967.1653016954931" y="897.0" type="curve" smooth="yes"/>
      <point x="915.7498031939132" y="923.0"/>
      <point x="853.2183809238317" y="937.0"/>
      <point x="794.2183809238317" y="937.0" type="curve" smooth="yes"/>
      <point x="612.2183809238317" y="937.0"/>
      <point x="457.64852739314813" y="809.0"/>
    </contour>
  </outline>
</glyph>
<glyph name="ordfeminine" format="2">
  <advance width="1228"/>
  <unicode hex="00AA"/>
  <outline>
    <contour>
      <point x="753.1793196765342" y="1209"/>
      <point x="635.0658372359887" y="1180"/>
      <point x="543.8968342391485" y="1128" type="curve" smooth="yes"/>
      <point x="516.0756025478131" y="1112"/>
      <point x="504.3147740686845" y="1085"/>
      <point x="521.7327138982205" y="1042" type="curve" smooth="yes"/>
      <point x="536.2086156120073" y="1005"/>
      <point x="563.326980708465" y="1000"/>
      <point x="590.9718854190919" y="1015" type="curve" smooth="yes"/>
      <point x="672.553945589556" y="1058"/>
      <point x="753.4331391651422" y="1080"/>
      <point x="834.4331391651422" y="1080" type="curve" smooth="yes"/>
      <point x="940.4331391651422" y="1080"/>
      <point x="973.4404631490105" y="1029"/>
      <point x="959.5106316730418" y="950" type="curve" smooth="yes"/>
      <point x="950.51795565691" y="899" type="line"/>
      <point x="881.0444952710793" y="919"/>
      <point x="804.455111116747" y="927"/>
      <point x="721.455111116747" y="927" type="curve" smooth="yes"/>
      <point x="553.455111116747" y="927"/>
      <point x="403.4648764285714" y="859"/>
      <point x="373.13663574671546" y="687" type="curve" smooth="yes"/>
      <point x="347.3928965632796" y="541"/>
      <point x="449.9920460294362" y="465"/>
      <point x="603.9920460294362" y="465" type="curve" smooth="yes"/>
      <point x="713.9920460294362" y="465"/>
      <point x="818.1030871420256" y="511"/>
      <point x="908.9169948494928" y="578" type="curve"/>
      <point x="899.3953378912356" y="524" type="line" smooth="yes"/>
      <point x="893.2238935664394" y="489"/>
      <point x="907.5789888558124" y="474"/>
      <point x="949.5789888558124" y="474" type="curve" smooth="yes"/>
      <point x="951.5789888558124" y="474" type="line" smooth="yes"/>
      <point x="992.5789888558124" y="474"/>
      <point x="1013.2238935664394" y="489"/>
      <point x="1019.3953378912356" y="524" type="curve" smooth="yes"/>
      <point x="1095.2159395958756" y="954" type="line" smooth="yes"/>
      <point x="1123.6045834899385" y="1115"/>
      <point x="1044.179319676534" y="1209"/>
      <point x="857.1793196765342" y="1209" type="curve" smooth="yes"/>
    </contour>
    <contour>
      <point x="789.2379115474805" y="801"/>
      <point x="861.6509687211043" y="792"/>
      <point x="928.8297370297688" y="776" type="curve"/>
      <point x="916.6631753608847" y="707" type="line"/>
      <point x="827.4386518077499" y="632"/>
      <point x="734.0329186179944" y="590"/>
      <point x="630.0329186179944" y="590" type="curve" smooth="yes"/>
      <point x="549.0329186179944" y="590"/>
      <point x="503.2043629427906" y="625"/>
      <point x="514.6656166888408" y="690" type="curve" smooth="yes"/>
      <point x="529.1244291069349" y="772"/>
      <point x="607.2379115474805" y="801"/>
      <point x="710.2379115474805" y="801" type="curve" smooth="yes"/>
    </contour>
  </outline>
</glyph>
<glyph name="logicalnot" format="2">
  <advance width="1228"/>
  <unicode hex="00AC"/>
  <outline>
    <contour>
      <point x="352.7016066214868" y="849" type="line" smooth="yes"/>
      <point x="307.7016066214868" y="849"/>
      <point x="286.17506700731747" y="829"/>
      <point x="277.0060640104773" y="777" type="curve" smooth="yes"/>
      <point x="267.83706101363714" y="725"/>
      <point x="282.3105213994678" y="705"/>
      <point x="327.3105213994678" y="705" type="curve" smooth="yes"/>
      <point x="1052.3105213994677" y="705" type="line"/>
      <point x="995.5332336113421" y="383" type="line" smooth="yes"/>
      <point x="987.4221924987527" y="337"/>
      <point x="1003.0719798652918" y="318"/>
      <point x="1059.071979865292" y="318" type="curve" smooth="yes"/>
      <point x="1115.071979865292" y="318"/>
      <point x="1137.4221924987528" y="337"/>
      <point x="1145.533233611342" y="383" type="curve" smooth="yes"/>
      <point x="1215.711371933311" y="781" type="line" smooth="yes"/>
      <point x="1224.5277209687345" y="831"/>
      <point x="1209.7016066214867" y="849"/>
      <point x="1164.7016066214867" y="849" type="curve" smooth="yes"/>
    </contour>
  </outline>
</glyph>
<glyph name="registered" format="2">
  <advance width="1228"/>
  <unicode hex="00AE"/>
  <outline>
    <contour>
      <point x="487.1793196765342" y="1209"/>
      <point x="201.2183809238317" y="937"/>
      <point x="140.73822654082818" y="594" type="curve" smooth="yes"/>
      <point x="80.2580721578247" y="251"/>
      <point x="270.1208064244138" y="-22"/>
      <point x="610.1208064244138" y="-22" type="curve" smooth="yes"/>
      <point x="950.1208064244138" y="-22"/>
      <point x="1236.2580721578247" y="251"/>
      <point x="1296.7382265408282" y="594" type="curve" smooth="yes"/>
      <point x="1357.2183809238318" y="937"/>
      <point x="1167.179319676534" y="1209"/>
      <point x="827.1793196765342" y="1209" type="curve" smooth="yes"/>
    </contour>
    <contour>
      <point x="1077.0200819915183" y="1089"/>
      <point x="1225.1677430234492" y="880"/>
      <point x="1174.7382265408282" y="594" type="curve" smooth="yes"/>
      <point x="1124.3087100582072" y="308"/>
      <point x="902.2800441094296" y="98"/>
      <point x="631.2800441094296" y="98" type="curve" smooth="yes"/>
      <point x="360.2800441094296" y="98"/>
      <point x="212.30871005820723" y="308"/>
      <point x="262.7382265408282" y="594" type="curve" smooth="yes"/>
      <point x="313.1677430234492" y="880"/>
      <point x="535.0200819915184" y="1089"/>
      <point x="806.0200819915184" y="1089" type="curve" smooth="yes"/>
    </contour>
    <contour>
      <point x="611.6918413096623" y="917" type="line" smooth="yes"/>
      <point x="566.6918413096623" y="917"/>
      <point x="543.51795565691" y="899"/>
      <point x="535.583241525029" y="854" type="curve" smooth="yes"/>
      <point x="444.06953853733575" y="335" type="line" smooth="yes"/>
      <point x="435.9584974247464" y="289"/>
      <point x="447.60828479128554" y="270"/>
      <point x="493.60828479128554" y="270" type="curve" smooth="yes"/>
      <point x="539.6082847912855" y="270"/>
      <point x="559.9584974247464" y="289"/>
      <point x="568.0695385373358" y="335" type="curve" smooth="yes"/>
      <point x="591.8736809329786" y="470" type="line"/>
      <point x="680.8736809329786" y="470" type="line"/>
      <point x="806.7821704440379" y="288" type="line" smooth="yes"/>
      <point x="825.0213419649093" y="261"/>
      <point x="857.9633800806586" y="255"/>
      <point x="895.076862521204" y="284" type="curve" smooth="yes"/>
      <point x="934.5429989231665" y="315"/>
      <point x="931.8328083444204" y="345"/>
      <point x="907.6515987077997" y="378" type="curve" smooth="yes"/>
      <point x="821.1055284699817" y="494" type="line"/>
      <point x="918.5716648719441" y="525"/>
      <point x="984.0908805022451" y="596"/>
      <point x="1001.5472515923832" y="695" type="curve" smooth="yes"/>
      <point x="1024.4697590844835" y="825"/>
      <point x="946.6918413096623" y="917"/>
      <point x="798.6918413096623" y="917" type="curve" smooth="yes"/>
    </contour>
    <contour>
      <point x="848.061584566772" y="800"/>
      <point x="883.0085053384335" y="760"/>
      <point x="871.5472515923832" y="695" type="curve" smooth="yes"/>
      <point x="859.5570169042076" y="627"/>
      <point x="808.5039376758689" y="587"/>
      <point x="718.5039376758689" y="587" type="curve" smooth="yes"/>
      <point x="612.5039376758689" y="587" type="line"/>
      <point x="650.061584566772" y="800" type="line"/>
      <point x="765.061584566772" y="800" type="line" smooth="yes"/>
    </contour>
  </outline>
</glyph>
<glyph name="macron" format="2">
  <advance width="1228"/>
  <unicode hex="00AF"/>
  <outline>
    <contour>
      <point x="573.4087258855812" y="1250.0" type="line" smooth="yes"/>
      <point x="528.4087258855812" y="1250.0"/>
      <point x="506.8821862714119" y="1230.0"/>
      <point x="497.71318327457175" y="1178.0" type="curve" smooth="yes"/>
      <point x="488.5441802777316" y="1126.0"/>
      <point x="503.01764066356225" y="1106.0"/>
      <point x="548.0176406635622" y="1106.0" type="curve" smooth="yes"/>
      <point x="1070.0176406635624" y="1106.0" type="line" smooth="yes"/>
      <point x="1115.0176406635624" y="1106.0"/>
      <point x="1136.5441802777316" y="1126.0"/>
      <point x="1145.7131832745717" y="1178.0" type="curve" smooth="yes"/>
      <point x="1154.882186271412" y="1230.0"/>
      <point x="1140.4087258855811" y="1250.0"/>
      <point x="1095.4087258855811" y="1250.0" type="curve" smooth="yes"/>
    </contour>
  </outline>
</glyph>
<glyph name="degree" format="2">
  <advance width="1228"/>
  <unicode hex="00B0"/>
  <outline>
    <contour>
      <point x="640.4362104797938" y="649.0" type="curve" smooth="yes"/>
      <point x="795.4362104797938" y="649.0"/>
      <point x="942.4770830683519" y="774.0"/>
      <point x="969.8077650781639" y="929.0" type="curve" smooth="yes"/>
      <point x="997.138447087976" y="1084.0"/>
      <point x="894.1793196765342" y="1209.0"/>
      <point x="739.1793196765342" y="1209.0" type="curve" smooth="yes"/>
      <point x="584.1793196765342" y="1209.0"/>
      <point x="437.13844708797603" y="1084.0"/>
      <point x="409.8077650781639" y="929.0" type="curve" smooth="yes"/>
      <point x="382.47708306835193" y="774.0"/>
      <point x="485.4362104797938" y="649.0"/>
    </contour>
    <contour>
      <point x="715.3751772808914" y="1074.0" type="curve" smooth="yes"/>
      <point x="795.3751772808914" y="1074.0"/>
      <point x="848.9139235348412" y="1009.0"/>
      <point x="834.8077650781639" y="929.0" type="curve" smooth="yes"/>
      <point x="820.7016066214868" y="849.0"/>
      <point x="744.2403528754365" y="784.0"/>
      <point x="664.2403528754365" y="784.0" type="curve" smooth="yes"/>
      <point x="584.2403528754365" y="784.0"/>
      <point x="530.7016066214868" y="849.0"/>
      <point x="544.8077650781639" y="929.0" type="curve" smooth="yes"/>
      <point x="558.9139235348412" y="1009.0"/>
      <point x="635.3751772808914" y="1074.0"/>
    </contour>
  </outline>
</glyph>
<glyph name="plusminus" format="2">
  <advance width="1228"/>
  <unicode hex="00B1"/>
  <outline>
    <contour>
      <point x="376.5301622966905" y="814.0" type="line" smooth="yes"/>
      <point x="331.5301622966905" y="814.0"/>
      <point x="310.00362268252115" y="794.0"/>
      <point x="300.834619685681" y="742.0" type="curve" smooth="yes"/>
      <point x="291.6656166888408" y="690.0"/>
      <point x="306.13907707467155" y="670.0"/>
      <point x="351.13907707467155" y="670.0" type="curve" smooth="yes"/>
      <point x="660.1390770746715" y="670.0" type="line"/>
      <point x="616.2336588782638" y="421.0" type="line" smooth="yes"/>
      <point x="608.2989447463829" y="376.0"/>
      <point x="625.1250590936305" y="358.0"/>
      <point x="677.1250590936305" y="358.0" type="curve" smooth="yes"/>
      <point x="729.1250590936305" y="358.0"/>
      <point x="752.2989447463829" y="376.0"/>
      <point x="760.2336588782638" y="421.0" type="curve" smooth="yes"/>
      <point x="804.1390770746715" y="670.0" type="line"/>
      <point x="1113.1390770746716" y="670.0" type="line" smooth="yes"/>
      <point x="1158.1390770746716" y="670.0"/>
      <point x="1179.6656166888408" y="690.0"/>
      <point x="1188.834619685681" y="742.0" type="curve" smooth="yes"/>
      <point x="1198.0036226825212" y="794.0"/>
      <point x="1183.5301622966904" y="814.0"/>
      <point x="1138.5301622966904" y="814.0" type="curve" smooth="yes"/>
      <point x="829.5301622966905" y="814.0" type="line"/>
      <point x="873.4355804930983" y="1063.0" type="line" smooth="yes"/>
      <point x="881.3702946249791" y="1108.0"/>
      <point x="864.5441802777316" y="1126.0"/>
      <point x="812.5441802777316" y="1126.0" type="curve" smooth="yes"/>
      <point x="760.5441802777316" y="1126.0"/>
      <point x="737.3702946249791" y="1108.0"/>
      <point x="729.4355804930983" y="1063.0" type="curve" smooth="yes"/>
      <point x="685.5301622966905" y="814.0" type="line"/>
    </contour>
    <contour>
      <point x="277.7870530999501" y="254.0" type="line" smooth="yes"/>
      <point x="232.7870530999501" y="254.0"/>
      <point x="211.2605134857808" y="234.0"/>
      <point x="202.09151048894063" y="182.0" type="curve" smooth="yes"/>
      <point x="192.92250749210044" y="130.0"/>
      <point x="207.39596787793116" y="110.0"/>
      <point x="252.39596787793116" y="110.0" type="curve" smooth="yes"/>
      <point x="1014.3959678779312" y="110.0" type="line" smooth="yes"/>
      <point x="1059.395967877931" y="110.0"/>
      <point x="1080.9225074921005" y="130.0"/>
      <point x="1090.0915104889407" y="182.0" type="curve" smooth="yes"/>
      <point x="1099.2605134857808" y="234.0"/>
      <point x="1084.78705309995" y="254.0"/>
      <point x="1039.78705309995" y="254.0" type="curve" smooth="yes"/>
    </contour>
  </outline>
</glyph>
